{"asset":{"version":"2.0","generator":"yuntu-dorm-m1"},"scenes":[{"nodes":[0]}],"nodes":[{"name":"sd2016_chair_001","translation":[-0.0,0.0,-0.0],"rotation":[-0.0,0.0,-0.0,1.0],"scale":[1.0,1.0,1.0],"mesh":0,"extras":{"aabb":[-0.3459405303001404,-3.814697180359872e-08,-0.2736320197582245,0.3459405303001404,0.6491434574127197,0.2736319303512573]}}],"meshes":[{"name":"sd2016_chair_001","primitives":[{"attributes":{"POSITION":0,"NORMAL":1,"TEXCOORD_0":2},"indices":3,"mode":4,"material":0}]}],"materials":[{"name":"sd2016_chair_001_D","pbrMetallicRoughness":{"baseColorFactor":[0.75,0.75,0.75,1.0],"metallicFactor":0.0,"roughnessFactor":0.9,"baseColorTexture":{"index":0}},"alphaMode":"MASK","alphaCutoff":0.5,"doubleSided":true}],"accessors":[{"bufferView":0,"componentType":5126,"count":466,"type":"VEC3","min":[-0.3459405303001404,-3.814697180359872e-08,-0.2736320197582245],"max":[0.3459405303001404,0.6491434574127197,0.2736319303512573]},{"bufferView":1,"componentType":5126,"count":466,"type":"VEC3"},{"bufferView":2,"componentType":5126,"count":466,"type":"VEC2"},{"bufferView":3,"componentType":5125,"count":1368,"type":"SCALAR"}],"bufferViews":[{"buffer":0,"byteOffset":0,"byteLength":5592},{"buffer":0,"byteOffset":5592,"byteLength":5592},{"buffer":0,"byteOffset":11184,"byteLength":3728},{"buffer":0,"byteOffset":14912,"byteLength":5472}],"images":[{"uri":"sd2016_chair_001_D.png"}],"textures":[{"source":0}],"buffers":[{"uri":"furn_sd2016_chair_001.bin","byteLength":20384}]}