{"asset":{"version":"2.0","generator":"yuntu-dorm-m1"},"scenes":[{"nodes":[0]}],"nodes":[{"name":"dwc2022_chair_01","translation":[0.0,0.0,-0.0],"rotation":[-0.0,-0.0,0.0,1.0],"scale":[1.0,1.0,1.0],"mesh":0,"extras":{"aabb":[-0.17382670938968658,-6.6028649214899815e-09,-0.17382743954658508,0.17382656037807465,0.5749399065971375,0.18442471325397491]}}],"meshes":[{"name":"dwc2022_chair_01","primitives":[{"attributes":{"POSITION":0,"NORMAL":1,"TEXCOORD_0":2},"indices":3,"mode":4,"material":0}]}],"materials":[{"name":"dwc2022_chair_01_D","pbrMetallicRoughness":{"baseColorFactor":[0.6320754289627075,0.5873531103134155,0.5873531103134155,1.0],"metallicFactor":0.0,"roughnessFactor":0.9,"baseColorTexture":{"index":0}}}],"accessors":[{"bufferView":0,"componentType":5126,"count":407,"type":"VEC3","min":[-0.17382670938968658,-6.6028649214899815e-09,-0.17382743954658508],"max":[0.17382656037807465,0.5749399065971375,0.18442471325397491]},{"bufferView":1,"componentType":5126,"count":407,"type":"VEC3"},{"bufferView":2,"componentType":5126,"count":407,"type":"VEC2"},{"bufferView":3,"componentType":5125,"count":1356,"type":"SCALAR"}],"bufferViews":[{"buffer":0,"byteOffset":0,"byteLength":4884},{"buffer":0,"byteOffset":4884,"byteLength":4884},{"buffer":0,"byteOffset":9768,"byteLength":3256},{"buffer":0,"byteOffset":13024,"byteLength":5424}],"images":[{"uri":"dwc2022_chair_01_D.png"}],"textures":[{"source":0}],"buffers":[{"uri":"furn_dwc2022_chair_01.bin","byteLength":18448}]}