{"asset":{"version":"2.0","generator":"yuntu-dorm-m1"},"scenes":[{"nodes":[0]}],"nodes":[{"name":"sd2016_sofa_001","translation":[0.0,0.0,-0.0],"rotation":[-0.0,0.0,-0.0,1.0],"scale":[1.0,1.0,1.0],"mesh":0,"extras":{"aabb":[-0.6625036001205444,0.0,-0.3122192323207855,0.6625036001205444,0.5838037133216858,0.3122192323207855]}}],"meshes":[{"name":"sd2016_sofa_001","primitives":[{"attributes":{"POSITION":0,"NORMAL":1,"TEXCOORD_0":2},"indices":3,"mode":4,"material":0}]}],"materials":[{"name":"sd2016_sofa_D","pbrMetallicRoughness":{"baseColorFactor":[0.75,0.75,0.75,1.0],"metallicFactor":0.0,"roughnessFactor":0.9,"baseColorTexture":{"index":0}},"alphaMode":"MASK","alphaCutoff":0.5,"doubleSided":true}],"accessors":[{"bufferView":0,"componentType":5126,"count":1056,"type":"VEC3","min":[-0.6625036001205444,0.0,-0.3122192323207855],"max":[0.6625036001205444,0.5838037133216858,0.3122192323207855]},{"bufferView":1,"componentType":5126,"count":1056,"type":"VEC3"},{"bufferView":2,"componentType":5126,"count":1056,"type":"VEC2"},{"bufferView":3,"componentType":5125,"count":3366,"type":"SCALAR"}],"bufferViews":[{"buffer":0,"byteOffset":0,"byteLength":12672},{"buffer":0,"byteOffset":12672,"byteLength":12672},{"buffer":0,"byteOffset":25344,"byteLength":8448},{"buffer":0,"byteOffset":33792,"byteLength":13464}],"images":[{"uri":"sd2016_sofa_001_D.png"}],"textures":[{"source":0}],"buffers":[{"uri":"furn_sd2016_sofa_001.bin","byteLength":47256}]}