{"asset":{"version":"2.0","generator":"yuntu-dorm-m1"},"scenes":[{"nodes":[0]}],"nodes":[{"name":"sd2016_bed_001","translation":[0.0,0.0,-0.0],"rotation":[-0.0,0.0,-0.0,1.0],"scale":[1.0,1.0,1.0],"mesh":0,"extras":{"aabb":[-0.39780619740486145,-0.004514351021498442,-0.7845994234085083,0.6982601881027222,0.6645486950874329,0.7845995426177979]}}],"meshes":[{"name":"sd2016_bed_001","primitives":[{"attributes":{"POSITION":0,"NORMAL":1,"TEXCOORD_0":2},"indices":3,"mode":4,"material":0}]}],"materials":[{"name":"sd2016_bed_001_D","pbrMetallicRoughness":{"baseColorFactor":[0.75,0.75,0.75,1.0],"metallicFactor":0.0,"roughnessFactor":0.9,"baseColorTexture":{"index":0}},"alphaMode":"MASK","alphaCutoff":0.5,"doubleSided":true}],"accessors":[{"bufferView":0,"componentType":5126,"count":2012,"type":"VEC3","min":[-0.39780619740486145,-0.004514351021498442,-0.7845994234085083],"max":[0.6982601881027222,0.6645486950874329,0.7845995426177979]},{"bufferView":1,"componentType":5126,"count":2012,"type":"VEC3"},{"bufferView":2,"componentType":5126,"count":2012,"type":"VEC2"},{"bufferView":3,"componentType":5125,"count":7134,"type":"SCALAR"}],"bufferViews":[{"buffer":0,"byteOffset":0,"byteLength":24144},{"buffer":0,"byteOffset":24144,"byteLength":24144},{"buffer":0,"byteOffset":48288,"byteLength":16096},{"buffer":0,"byteOffset":64384,"byteLength":28536}],"images":[{"uri":"sd2016_bed_001_D.png"}],"textures":[{"source":0}],"buffers":[{"uri":"furn_sd2016_bed_001.bin","byteLength":92920}]}