{"asset":{"version":"2.0","generator":"yuntu-dorm-m1"},"scenes":[{"nodes":[0]}],"nodes":[{"name":"se2021_motorboat_001","translation":[-0.0,0.0,-0.0],"rotation":[-0.0,-0.0,0.0,1.0],"scale":[1.0,1.0,1.0],"mesh":0,"extras":{"aabb":[-0.38140740990638733,-6.0291287809377536e-05,-0.9181272387504578,0.3815680742263794,0.6029593348503113,0.7109825611114502]}}],"meshes":[{"name":"se2021_motorboat_001","primitives":[{"attributes":{"POSITION":0,"NORMAL":1,"TEXCOORD_0":2},"indices":3,"mode":4,"material":0}]}],"materials":[{"name":"se2021_motorboat_001_D","pbrMetallicRoughness":{"baseColorFactor":[0.75,0.75,0.75,1.0],"metallicFactor":0.0,"roughnessFactor":0.9,"baseColorTexture":{"index":0}},"alphaMode":"MASK","alphaCutoff":0.5,"doubleSided":true}],"accessors":[{"bufferView":0,"componentType":5126,"count":770,"type":"VEC3","min":[-0.38140740990638733,-6.0291287809377536e-05,-0.9181272387504578],"max":[0.3815680742263794,0.6029593348503113,0.7109825611114502]},{"bufferView":1,"componentType":5126,"count":770,"type":"VEC3"},{"bufferView":2,"componentType":5126,"count":770,"type":"VEC2"},{"bufferView":3,"componentType":5125,"count":1962,"type":"SCALAR"}],"bufferViews":[{"buffer":0,"byteOffset":0,"byteLength":9240},{"buffer":0,"byteOffset":9240,"byteLength":9240},{"buffer":0,"byteOffset":18480,"byteLength":6160},{"buffer":0,"byteOffset":24640,"byteLength":7848}],"images":[{"uri":"se2021_motorboat_001_D.png"}],"textures":[{"source":0}],"buffers":[{"uri":"furn_se2021_motorboat_001.bin","byteLength":32488}]}