{"asset":{"version":"2.0","generator":"yuntu-dorm-m1"},"scenes":[{"nodes":[0]}],"nodes":[{"name":"syp2017_deco_005","translation":[0.0,0.0,-0.0],"rotation":[-0.0,-0.0,0.0,1.0],"scale":[1.0,1.0,1.0],"children":[1]},{"name":"syp2017_deco_005_syp2017_deco_005","translation":[0.0,0.0,-0.0],"rotation":[0.0,0.0,-0.0,1.0],"scale":[0.75,0.75,0.75],"mesh":0,"extras":{"aabb":[-0.21295616030693054,-0.0004061518993694335,-0.22533473372459412,0.21295619010925293,0.4255002737045288,0.22533473372459412]}}],"meshes":[{"name":"syp2017_deco_005","primitives":[{"attributes":{"POSITION":0,"NORMAL":1,"TEXCOORD_0":2},"indices":3,"mode":4,"material":0}]}],"materials":[{"name":"syp2017_deco_004_D","pbrMetallicRoughness":{"baseColorFactor":[0.75,0.75,0.75,1.0],"metallicFactor":0.0,"roughnessFactor":0.9,"baseColorTexture":{"index":0}}}],"accessors":[{"bufferView":0,"componentType":5126,"count":518,"type":"VEC3","min":[-0.21295616030693054,-0.0004061518993694335,-0.22533473372459412],"max":[0.21295619010925293,0.4255002737045288,0.22533473372459412]},{"bufferView":1,"componentType":5126,"count":518,"type":"VEC3"},{"bufferView":2,"componentType":5126,"count":518,"type":"VEC2"},{"bufferView":3,"componentType":5125,"count":1038,"type":"SCALAR"}],"bufferViews":[{"buffer":0,"byteOffset":0,"byteLength":6216},{"buffer":0,"byteOffset":6216,"byteLength":6216},{"buffer":0,"byteOffset":12432,"byteLength":4144},{"buffer":0,"byteOffset":16576,"byteLength":4152}],"images":[{"uri":"syp2017_deco_003_D.png"}],"textures":[{"source":0}],"buffers":[{"uri":"furn_syp2017_deco_005.bin","byteLength":20728}]}