{"asset":{"version":"2.0","generator":"yuntu-dorm-m1"},"scenes":[{"nodes":[0]}],"nodes":[{"name":"we2021_chair_001","translation":[0.0,0.0,-0.0],"rotation":[-0.0,-0.0,0.0,1.0],"scale":[1.0,1.0,1.0],"mesh":0,"extras":{"aabb":[-0.3669508695602417,0.00011160278518218547,-0.3169439733028412,0.36766350269317627,0.6237648129463196,0.3253236413002014]}}],"meshes":[{"name":"we2021_chair_001","primitives":[{"attributes":{"POSITION":0,"NORMAL":1,"TEXCOORD_0":2},"indices":3,"mode":4,"material":0}]}],"materials":[{"name":"we2021_chair_001_D","pbrMetallicRoughness":{"baseColorFactor":[0.699999988079071,0.699999988079071,0.699999988079071,1.0],"metallicFactor":0.0,"roughnessFactor":0.9,"baseColorTexture":{"index":0}}}],"accessors":[{"bufferView":0,"componentType":5126,"count":536,"type":"VEC3","min":[-0.3669508695602417,0.00011160278518218547,-0.3169439733028412],"max":[0.36766350269317627,0.6237648129463196,0.3253236413002014]},{"bufferView":1,"componentType":5126,"count":536,"type":"VEC3"},{"bufferView":2,"componentType":5126,"count":536,"type":"VEC2"},{"bufferView":3,"componentType":5125,"count":1356,"type":"SCALAR"}],"bufferViews":[{"buffer":0,"byteOffset":0,"byteLength":6432},{"buffer":0,"byteOffset":6432,"byteLength":6432},{"buffer":0,"byteOffset":12864,"byteLength":4288},{"buffer":0,"byteOffset":17152,"byteLength":5424}],"images":[{"uri":"we2021_chair_001_D.png"}],"textures":[{"source":0}],"buffers":[{"uri":"furn_we2021_chair_001.bin","byteLength":22576}]}