{"asset":{"version":"2.0","generator":"yuntu-dorm-m1"},"scenes":[{"nodes":[0]}],"nodes":[{"name":"do2022_deco_02","translation":[0.0,0.0,-0.0],"rotation":[-0.0,-0.0,0.0,1.0],"scale":[1.0,1.0,1.0],"mesh":0,"extras":{"aabb":[-0.37278303503990173,-0.00010164559353142977,-0.3410860300064087,0.37278303503990173,1.6062273979187012,0.34108608961105347]}}],"meshes":[{"name":"do2022_deco_02","primitives":[{"attributes":{"POSITION":0,"NORMAL":1,"TEXCOORD_0":2},"indices":3,"mode":4,"material":0}]}],"materials":[{"name":"do2022_deco_02_D","pbrMetallicRoughness":{"baseColorFactor":[0.6352941393852234,0.6623523831367493,0.7450980544090271,1.0],"metallicFactor":0.0,"roughnessFactor":0.9,"baseColorTexture":{"index":0}}}],"accessors":[{"bufferView":0,"componentType":5126,"count":2746,"type":"VEC3","min":[-0.37278303503990173,-0.00010164559353142977,-0.3410860300064087],"max":[0.37278303503990173,1.6062273979187012,0.34108608961105347]},{"bufferView":1,"componentType":5126,"count":2746,"type":"VEC3"},{"bufferView":2,"componentType":5126,"count":2746,"type":"VEC2"},{"bufferView":3,"componentType":5125,"count":7620,"type":"SCALAR"}],"bufferViews":[{"buffer":0,"byteOffset":0,"byteLength":32952},{"buffer":0,"byteOffset":32952,"byteLength":32952},{"buffer":0,"byteOffset":65904,"byteLength":21968},{"buffer":0,"byteOffset":87872,"byteLength":30480}],"images":[{"uri":"do2022_deco_02_D.png"}],"textures":[{"source":0}],"buffers":[{"uri":"furn_do2022_deco_02.bin","byteLength":118352}]}