{"asset":{"version":"2.0","generator":"yuntu-dorm-m1"},"scenes":[{"nodes":[0]}],"nodes":[{"name":"anniversary4_chair","translation":[0.0,0.0,-0.0],"rotation":[-0.0,-0.0,0.0,1.0],"scale":[1.0,1.0,1.0],"children":[1]},{"name":"anniversary4_chair_anniversary4_chair","translation":[0.0,0.0,-0.0],"rotation":[0.0,0.0,-0.0,1.0],"scale":[1.0,1.0,1.0],"children":[2,3]},{"name":"anniversary4_chair_anniversary4_chair_anniversary4_chair","translation":[-0.0,0.0,-0.0],"rotation":[0.7071067811865475,-0.0,-0.0,0.7071067811865475],"scale":[1.0,1.0,1.0],"skin":0,"mesh":0,"extras":{"aabb":[-0.0900396928191185,-0.10041636973619461,-0.36064592003822327,0.09003978222608566,0.10041648894548416,-0.0008310808334499598]}},{"name":"anniversary4_chair_anniversary4_chair_root","translation":[-0.0,0.0,2.6014967957621593e-09],"rotation":[-8.146034247147299e-08,4.656935392866031e-10,3.793555506542089e-17,0.9999999999999967],"scale":[1.0,1.0,1.0],"children":[4,5]},{"name":"anniversary4_chair_anniversary4_chair_root_bind_path","translation":[-0.0,0.0,-0.0],"rotation":[-0.0,0.0,-0.0,1.0],"scale":[1.0,1.0,1.0]},{"name":"anniversary4_chair_anniversary4_chair_root_Bone024","translation":[2.423000404552327e-18,4.2383763146305756e-16,-2.6014967957621593e-09],"rotation":[-0.49999988079069624,0.5000001192092753,-0.49999988079069624,0.5000001192092753],"scale":[0.699999988079071,0.699999988079071,0.699999988079071]}],"meshes":[{"name":"anniversary4_chair","primitives":[{"attributes":{"POSITION":1,"NORMAL":2,"TEXCOORD_0":3,"JOINTS_0":4,"WEIGHTS_0":5},"indices":6,"mode":4}]}],"skins":[{"joints":[5],"inverseBindMatrices":0,"skeleton":5}],"accessors":[{"bufferView":0,"componentType":5126,"count":1,"type":"MAT4"},{"bufferView":1,"componentType":5126,"count":3186,"type":"VEC3","min":[-0.0900396928191185,-0.10041636973619461,-0.36064592003822327],"max":[0.09003978222608566,0.10041648894548416,-0.0008310808334499598]},{"bufferView":2,"componentType":5126,"count":3186,"type":"VEC3"},{"bufferView":3,"componentType":5126,"count":3186,"type":"VEC2"},{"bufferView":4,"componentType":5123,"count":3186,"type":"VEC4"},{"bufferView":5,"componentType":5126,"count":3186,"type":"VEC4"},{"bufferView":6,"componentType":5125,"count":5904,"type":"SCALAR"}],"bufferViews":[{"buffer":0,"byteOffset":0,"byteLength":64},{"buffer":0,"byteOffset":64,"byteLength":38232},{"buffer":0,"byteOffset":38296,"byteLength":38232},{"buffer":0,"byteOffset":76528,"byteLength":25488},{"buffer":0,"byteOffset":102016,"byteLength":25488},{"buffer":0,"byteOffset":127504,"byteLength":50976},{"buffer":0,"byteOffset":178480,"byteLength":23616}],"buffers":[{"uri":"furn_anniversary4_chair.bin","byteLength":202096}]}