{"asset":{"version":"2.0","generator":"yuntu-dorm-m1"},"scenes":[{"nodes":[0]}],"nodes":[{"name":"sef2022_deco_02","translation":[0.0,0.0,-0.0],"rotation":[-0.0,-0.0,0.0,1.0],"scale":[1.0,1.0,1.0],"mesh":0,"extras":{"aabb":[-0.3426586985588074,-0.000662307720631361,-0.3284125328063965,0.4678306579589844,0.6302487254142761,0.32840976119041443]}}],"meshes":[{"name":"sef2022_deco_02","primitives":[{"attributes":{"POSITION":0,"NORMAL":1,"TEXCOORD_0":2},"indices":3,"mode":4,"material":0}]}],"materials":[{"name":"sef2022_deco_02","pbrMetallicRoughness":{"baseColorFactor":[0.6662513613700867,0.6933820843696594,0.7169811725616455,1.0],"metallicFactor":0.0,"roughnessFactor":0.9,"baseColorTexture":{"index":0}},"alphaMode":"MASK","alphaCutoff":0.5,"doubleSided":true}],"accessors":[{"bufferView":0,"componentType":5126,"count":1206,"type":"VEC3","min":[-0.3426586985588074,-0.000662307720631361,-0.3284125328063965],"max":[0.4678306579589844,0.6302487254142761,0.32840976119041443]},{"bufferView":1,"componentType":5126,"count":1206,"type":"VEC3"},{"bufferView":2,"componentType":5126,"count":1206,"type":"VEC2"},{"bufferView":3,"componentType":5125,"count":2376,"type":"SCALAR"}],"bufferViews":[{"buffer":0,"byteOffset":0,"byteLength":14472},{"buffer":0,"byteOffset":14472,"byteLength":14472},{"buffer":0,"byteOffset":28944,"byteLength":9648},{"buffer":0,"byteOffset":38592,"byteLength":9504}],"images":[{"uri":"sef2022_deco_02_D.png"}],"textures":[{"source":0}],"buffers":[{"uri":"furn_sef2022_deco_02.bin","byteLength":48096}]}