{"asset":{"version":"2.0","generator":"yuntu-dorm-m1"},"scenes":[{"nodes":[0]}],"nodes":[{"name":"we2021_deco_001","translation":[0.0,0.0,-0.0],"rotation":[-0.0,-0.0,0.0,1.0],"scale":[1.0,1.0,1.0],"mesh":0,"extras":{"aabb":[-0.5470245480537415,0.0,-0.46278852224349976,0.5470244288444519,0.8080390095710754,0.46278849244117737]}}],"meshes":[{"name":"we2021_deco_001","primitives":[{"attributes":{"POSITION":0,"NORMAL":1,"TEXCOORD_0":2},"indices":3,"mode":4,"material":0},{"attributes":{"POSITION":0,"NORMAL":1,"TEXCOORD_0":2},"indices":4,"mode":4,"material":1},{"attributes":{"POSITION":0,"NORMAL":1,"TEXCOORD_0":2},"indices":5,"mode":4,"material":2}]}],"materials":[{"name":"we2021_deco_001_b_D","pbrMetallicRoughness":{"baseColorFactor":[0.699999988079071,0.699999988079071,0.699999988079071,1.0],"metallicFactor":0.0,"roughnessFactor":0.9,"baseColorTexture":{"index":0}}},{"name":"we2021_deco_001_c_T","pbrMetallicRoughness":{"baseColorFactor":[0.699999988079071,0.699999988079071,0.699999988079071,1.0],"metallicFactor":0.0,"roughnessFactor":0.9,"baseColorTexture":{"index":0}},"alphaMode":"BLEND","doubleSided":true},{"name":"we2021_deco_001_a_T","pbrMetallicRoughness":{"baseColorFactor":[0.699999988079071,0.699999988079071,0.699999988079071,1.0],"metallicFactor":0.0,"roughnessFactor":0.9,"baseColorTexture":{"index":0}}}],"accessors":[{"bufferView":0,"componentType":5126,"count":2057,"type":"VEC3","min":[-0.5470245480537415,0.0,-0.46278852224349976],"max":[0.5470244288444519,0.8080390095710754,0.46278849244117737]},{"bufferView":1,"componentType":5126,"count":2057,"type":"VEC3"},{"bufferView":2,"componentType":5126,"count":2057,"type":"VEC2"},{"bufferView":3,"componentType":5125,"count":1146,"type":"SCALAR"},{"bufferView":4,"componentType":5125,"count":360,"type":"SCALAR"},{"bufferView":5,"componentType":5125,"count":1782,"type":"SCALAR"}],"bufferViews":[{"buffer":0,"byteOffset":0,"byteLength":24684},{"buffer":0,"byteOffset":24684,"byteLength":24684},{"buffer":0,"byteOffset":49368,"byteLength":16456},{"buffer":0,"byteOffset":65824,"byteLength":4584},{"buffer":0,"byteOffset":70408,"byteLength":1440},{"buffer":0,"byteOffset":71848,"byteLength":7128}],"images":[{"uri":"we2021_deco_001_T.png"}],"textures":[{"source":0}],"buffers":[{"uri":"furn_we2021_deco_001.bin","byteLength":78976}]}