{"asset":{"version":"2.0","generator":"yuntu-dorm-m1"},"scenes":[{"nodes":[0]}],"nodes":[{"name":"sef2022_deco_03","translation":[0.0,0.0,-0.0],"rotation":[-0.0,-0.0,0.0,1.0],"scale":[1.0,1.0,1.0],"mesh":0,"extras":{"aabb":[-0.15092410147190094,-9.241436338551674e-18,-0.15092410147190094,0.15092410147190094,0.5376089215278625,0.15092410147190094]}}],"meshes":[{"name":"sef2022_deco_03","primitives":[{"attributes":{"POSITION":0,"NORMAL":1,"TEXCOORD_0":2},"indices":3,"mode":4,"material":0}]}],"materials":[{"name":"sef2022_deco_03","pbrMetallicRoughness":{"baseColorFactor":[0.75,0.75,0.75,1.0],"metallicFactor":0.0,"roughnessFactor":0.9,"baseColorTexture":{"index":0}},"alphaMode":"MASK","alphaCutoff":0.5,"doubleSided":true}],"accessors":[{"bufferView":0,"componentType":5126,"count":278,"type":"VEC3","min":[-0.15092410147190094,-9.241436338551674e-18,-0.15092410147190094],"max":[0.15092410147190094,0.5376089215278625,0.15092410147190094]},{"bufferView":1,"componentType":5126,"count":278,"type":"VEC3"},{"bufferView":2,"componentType":5126,"count":278,"type":"VEC2"},{"bufferView":3,"componentType":5125,"count":690,"type":"SCALAR"}],"bufferViews":[{"buffer":0,"byteOffset":0,"byteLength":3336},{"buffer":0,"byteOffset":3336,"byteLength":3336},{"buffer":0,"byteOffset":6672,"byteLength":2224},{"buffer":0,"byteOffset":8896,"byteLength":2760}],"images":[{"uri":"sef2022_deco_03_D.png"}],"textures":[{"source":0}],"buffers":[{"uri":"furn_sef2022_deco_03.bin","byteLength":11656}]}