{"asset":{"version":"2.0","generator":"yuntu-dorm-m1"},"scenes":[{"nodes":[0]}],"nodes":[{"name":"dwc2022_sofa_01","translation":[0.0,0.0,-0.0],"rotation":[-0.0,-0.0,0.0,1.0],"scale":[1.0,1.0,1.0],"mesh":0,"extras":{"aabb":[-0.19249074161052704,-5.7303658707041905e-08,-0.6799598336219788,0.19249074161052704,0.2727188169956207,0.6799598336219788]}}],"meshes":[{"name":"dwc2022_sofa_01","primitives":[{"attributes":{"POSITION":0,"NORMAL":1,"TEXCOORD_0":2},"indices":3,"mode":4,"material":0}]}],"materials":[{"name":"dwc2022_sofa_02_D","pbrMetallicRoughness":{"baseColorFactor":[0.6320754289627075,0.6320754289627075,0.6320754289627075,1.0],"metallicFactor":0.0,"roughnessFactor":0.9,"baseColorTexture":{"index":0}}}],"accessors":[{"bufferView":0,"componentType":5126,"count":80,"type":"VEC3","min":[-0.19249074161052704,-5.7303658707041905e-08,-0.6799598336219788],"max":[0.19249074161052704,0.2727188169956207,0.6799598336219788]},{"bufferView":1,"componentType":5126,"count":80,"type":"VEC3"},{"bufferView":2,"componentType":5126,"count":80,"type":"VEC2"},{"bufferView":3,"componentType":5125,"count":156,"type":"SCALAR"}],"bufferViews":[{"buffer":0,"byteOffset":0,"byteLength":960},{"buffer":0,"byteOffset":960,"byteLength":960},{"buffer":0,"byteOffset":1920,"byteLength":640},{"buffer":0,"byteOffset":2560,"byteLength":624}],"images":[{"uri":"dwc2022_sofa_01_D.png"}],"textures":[{"source":0}],"buffers":[{"uri":"furn_dwc2022_sofa_01.bin","byteLength":3184}]}