{"asset":{"version":"2.0","generator":"yuntu-dorm-m1"},"scenes":[{"nodes":[0]}],"nodes":[{"name":"xn2018_bonfire_001","translation":[0.0,0.0,-0.0],"rotation":[-0.0,-0.0,0.0,1.0],"scale":[1.0,1.0,1.0],"children":[1],"mesh":0,"extras":{"aabb":[-0.233891099691391,-2.38418573772492e-09,-0.23389127850532532,0.233891099691391,0.2339809238910675,0.23389089107513428]}},{"name":"xn2018_bonfire_001_FXP_sd2016_fireplace_001_(1)","translation":[0.0,0.0,-0.0],"rotation":[0.0,0.0,-0.0,1.0],"scale":[1.0,1.0,1.0],"children":[2]},{"name":"xn2018_bonfire_001_FXP_sd2016_fireplace_001_(1)_low","translation":[0.0,0.0,-0.0],"rotation":[-0.0,-0.0,0.0,1.0],"scale":[1.0,1.0,1.0],"children":[3]},{"name":"xn2018_bonfire_001_FXP_sd2016_fireplace_001_(1)_low_HY_(16)","translation":[0.0,0.11299999803304672,-0.0],"rotation":[-0.7071067811865475,-0.0,0.0,0.7071067811865475],"scale":[1.4947999715805054,1.4947999715805054,1.4947999715805054],"children":[4,5]},{"name":"xn2018_bonfire_001_FXP_sd2016_fireplace_001_(1)_low_HY_(16)_smoke","translation":[0.0,0.0,-0.0],"rotation":[0.0918044089586603,-0.018169032691151575,-0.9106031797280645,0.4025465014330111],"scale":[0.4811943769454956,0.4811941683292389,0.48119446635246277]},{"name":"xn2018_bonfire_001_FXP_sd2016_fireplace_001_(1)_low_HY_(16)_lizi","translation":[0.0,0.0,-0.0],"rotation":[-0.008409419275371376,-0.7023325529673267,-0.7117482978594338,0.008522159588224403],"scale":[1.0,1.0,1.0]}],"meshes":[{"name":"xn2018_bonfire_001","primitives":[{"attributes":{"POSITION":0,"NORMAL":1,"TEXCOORD_0":2},"indices":3,"mode":4,"material":0}]}],"materials":[{"name":"xn2018_bonfire_001_D","pbrMetallicRoughness":{"baseColorFactor":[0.75,0.75,0.75,1.0],"metallicFactor":0.0,"roughnessFactor":0.9,"baseColorTexture":{"index":0}}}],"accessors":[{"bufferView":0,"componentType":5126,"count":308,"type":"VEC3","min":[-0.233891099691391,-2.38418573772492e-09,-0.23389127850532532],"max":[0.233891099691391,0.2339809238910675,0.23389089107513428]},{"bufferView":1,"componentType":5126,"count":308,"type":"VEC3"},{"bufferView":2,"componentType":5126,"count":308,"type":"VEC2"},{"bufferView":3,"componentType":5125,"count":666,"type":"SCALAR"}],"bufferViews":[{"buffer":0,"byteOffset":0,"byteLength":3696},{"buffer":0,"byteOffset":3696,"byteLength":3696},{"buffer":0,"byteOffset":7392,"byteLength":2464},{"buffer":0,"byteOffset":9856,"byteLength":2664}],"images":[{"uri":"xn2018_bonfire_001_D.png"}],"textures":[{"source":0}],"buffers":[{"uri":"furn_xn2018_bonfire_001.bin","byteLength":12520}]}