{"asset":{"version":"2.0","generator":"yuntu-dorm-m1"},"scenes":[{"nodes":[0]}],"nodes":[{"name":"syp2017_deco_001","translation":[0.0,0.0,-0.0],"rotation":[-0.0,-0.0,0.0,1.0],"scale":[1.0,1.0,1.0],"children":[1]},{"name":"syp2017_deco_001_syp2017_deco_001","translation":[0.0,0.0,-0.0],"rotation":[0.0,0.0,-0.0,1.0],"scale":[0.800000011920929,0.800000011920929,0.800000011920929],"mesh":0,"extras":{"aabb":[-0.38700637221336365,-0.00023403167142532766,-0.45236989855766296,0.40204572677612305,1.1877857446670532,0.4492550492286682]}}],"meshes":[{"name":"syp2017_deco_001","primitives":[{"attributes":{"POSITION":0,"NORMAL":1,"TEXCOORD_0":2},"indices":3,"mode":4,"material":0}]}],"materials":[{"name":"syp2017_deco_001_D","pbrMetallicRoughness":{"baseColorFactor":[0.75,0.75,0.75,1.0],"metallicFactor":0.0,"roughnessFactor":0.9,"baseColorTexture":{"index":0}}}],"accessors":[{"bufferView":0,"componentType":5126,"count":1737,"type":"VEC3","min":[-0.38700637221336365,-0.00023403167142532766,-0.45236989855766296],"max":[0.40204572677612305,1.1877857446670532,0.4492550492286682]},{"bufferView":1,"componentType":5126,"count":1737,"type":"VEC3"},{"bufferView":2,"componentType":5126,"count":1737,"type":"VEC2"},{"bufferView":3,"componentType":5125,"count":4242,"type":"SCALAR"}],"bufferViews":[{"buffer":0,"byteOffset":0,"byteLength":20844},{"buffer":0,"byteOffset":20844,"byteLength":20844},{"buffer":0,"byteOffset":41688,"byteLength":13896},{"buffer":0,"byteOffset":55584,"byteLength":16968}],"images":[{"uri":"syp2017_deco_001_D.png"}],"textures":[{"source":0}],"buffers":[{"uri":"furn_syp2017_deco_001.bin","byteLength":72552}]}