{"asset":{"version":"2.0","generator":"yuntu-dorm-m1"},"scenes":[{"nodes":[0]}],"nodes":[{"name":"sef2022_chair","translation":[0.0,0.0,-0.0],"rotation":[-0.0,-0.0,0.0,1.0],"scale":[1.0,1.0,1.0],"mesh":0,"extras":{"aabb":[-0.18708480894565582,-0.0015722656389698386,-0.18721425533294678,0.18708449602127075,0.5291178226470947,0.1887115091085434]}}],"meshes":[{"name":"sef2022_chair","primitives":[{"attributes":{"POSITION":0,"NORMAL":1,"TEXCOORD_0":2},"indices":3,"mode":4,"material":0},{"attributes":{"POSITION":0,"NORMAL":1,"TEXCOORD_0":2},"indices":4,"mode":4,"material":1}]}],"materials":[{"name":"sef2022_sofa_D","pbrMetallicRoughness":{"baseColorFactor":[0.6797792911529541,0.689079761505127,0.7169811725616455,1.0],"metallicFactor":0.0,"roughnessFactor":0.9,"baseColorTexture":{"index":0}},"alphaMode":"MASK","alphaCutoff":0.5,"doubleSided":true},{"name":"sef2022_sofa_T","pbrMetallicRoughness":{"baseColorFactor":[0.75,0.75,0.75,1.0],"metallicFactor":0.0,"roughnessFactor":0.9,"baseColorTexture":{"index":0}},"alphaMode":"BLEND","doubleSided":true}],"accessors":[{"bufferView":0,"componentType":5126,"count":507,"type":"VEC3","min":[-0.18708480894565582,-0.0015722656389698386,-0.18721425533294678],"max":[0.18708449602127075,0.5291178226470947,0.1887115091085434]},{"bufferView":1,"componentType":5126,"count":507,"type":"VEC3"},{"bufferView":2,"componentType":5126,"count":507,"type":"VEC2"},{"bufferView":3,"componentType":5125,"count":822,"type":"SCALAR"},{"bufferView":4,"componentType":5125,"count":12,"type":"SCALAR"}],"bufferViews":[{"buffer":0,"byteOffset":0,"byteLength":6084},{"buffer":0,"byteOffset":6084,"byteLength":6084},{"buffer":0,"byteOffset":12168,"byteLength":4056},{"buffer":0,"byteOffset":16224,"byteLength":3288},{"buffer":0,"byteOffset":19512,"byteLength":48}],"images":[{"uri":"sef2022_sofa_T.png"}],"textures":[{"source":0}],"buffers":[{"uri":"furn_sef2022_chair.bin","byteLength":19560}]}