{"asset":{"version":"2.0","generator":"yuntu-dorm-m1"},"scenes":[{"nodes":[0]}],"nodes":[{"name":"se2021_lantern_001","translation":[-0.0,0.0,-0.0],"rotation":[-0.0,-0.0,0.0,1.0],"scale":[1.0,1.0,1.0],"mesh":0,"extras":{"aabb":[-0.17328132688999176,1.907348590179936e-08,-0.17975537478923798,0.17277416586875916,0.37119749188423157,0.17960228025913239]}}],"meshes":[{"name":"se2021_lantern_001","primitives":[{"attributes":{"POSITION":0,"NORMAL":1,"TEXCOORD_0":2},"indices":3,"mode":4,"material":0}]}],"materials":[{"name":"se2021_lantern_001_D","pbrMetallicRoughness":{"baseColorFactor":[0.75,0.75,0.75,1.0],"metallicFactor":0.0,"roughnessFactor":0.9,"baseColorTexture":{"index":0}},"alphaMode":"MASK","alphaCutoff":0.5,"doubleSided":true}],"accessors":[{"bufferView":0,"componentType":5126,"count":176,"type":"VEC3","min":[-0.17328132688999176,1.907348590179936e-08,-0.17975537478923798],"max":[0.17277416586875916,0.37119749188423157,0.17960228025913239]},{"bufferView":1,"componentType":5126,"count":176,"type":"VEC3"},{"bufferView":2,"componentType":5126,"count":176,"type":"VEC2"},{"bufferView":3,"componentType":5125,"count":504,"type":"SCALAR"}],"bufferViews":[{"buffer":0,"byteOffset":0,"byteLength":2112},{"buffer":0,"byteOffset":2112,"byteLength":2112},{"buffer":0,"byteOffset":4224,"byteLength":1408},{"buffer":0,"byteOffset":5632,"byteLength":2016}],"images":[{"uri":"se2021_boat_001_D.png"}],"textures":[{"source":0}],"buffers":[{"uri":"furn_se2021_lantern_001.bin","byteLength":7648}]}