{"asset":{"version":"2.0","generator":"yuntu-dorm-m1"},"scenes":[{"nodes":[0]}],"nodes":[{"name":"do2022_sofa","translation":[0.0,0.0,-0.0],"rotation":[-0.0,-0.0,0.0,1.0],"scale":[1.0,1.0,1.0],"mesh":0,"extras":{"aabb":[-0.5501587390899658,-1.9685972851846145e-09,-0.4487641155719757,0.5501587390899658,0.8315812349319458,0.4487641155719757]}}],"meshes":[{"name":"do2022_sofa","primitives":[{"attributes":{"POSITION":0,"NORMAL":1,"TEXCOORD_0":2},"indices":3,"mode":4,"material":0}]}],"materials":[{"name":"do2022_sofa_D","pbrMetallicRoughness":{"baseColorFactor":[0.6355464458465576,0.650957465171814,0.698113203048706,1.0],"metallicFactor":0.0,"roughnessFactor":0.9,"baseColorTexture":{"index":0}}}],"accessors":[{"bufferView":0,"componentType":5126,"count":786,"type":"VEC3","min":[-0.5501587390899658,-1.9685972851846145e-09,-0.4487641155719757],"max":[0.5501587390899658,0.8315812349319458,0.4487641155719757]},{"bufferView":1,"componentType":5126,"count":786,"type":"VEC3"},{"bufferView":2,"componentType":5126,"count":786,"type":"VEC2"},{"bufferView":3,"componentType":5125,"count":2742,"type":"SCALAR"}],"bufferViews":[{"buffer":0,"byteOffset":0,"byteLength":9432},{"buffer":0,"byteOffset":9432,"byteLength":9432},{"buffer":0,"byteOffset":18864,"byteLength":6288},{"buffer":0,"byteOffset":25152,"byteLength":10968}],"images":[{"uri":"do2022_sofa_D.png"}],"textures":[{"source":0}],"buffers":[{"uri":"furn_do2022_sofa.bin","byteLength":36120}]}