{"asset":{"version":"2.0","generator":"yuntu-dorm-m1"},"scenes":[{"nodes":[0]}],"nodes":[{"name":"anniversary3_pool","translation":[0.0,0.0,-0.0],"rotation":[-0.0,-0.0,0.0,1.0],"scale":[1.0,1.0,1.0],"children":[1]},{"name":"anniversary3_pool_anniversary3_pool","translation":[0.0,0.0,-0.0],"rotation":[0.0,0.0,-0.0,1.0],"scale":[1.0,1.0,1.0],"children":[2,3]},{"name":"anniversary3_pool_anniversary3_pool_anniversary3_pool","translation":[-0.0,0.0,-0.0],"rotation":[0.7071067811865475,-0.0,-0.0,0.7071067811865475],"scale":[1.0,1.0,1.0],"skin":0,"mesh":0,"extras":{"aabb":[-1.1207972764968872,-0.8307415843009949,-0.510915994644165,1.1207973957061768,0.8307415843009949,-0.00031879424932412803]}},{"name":"anniversary3_pool_anniversary3_pool_anniversary3_pool_root","translation":[-0.0,0.0,-0.0],"rotation":[-2.185569414336896e-08,-0.0,-0.0,0.9999999999999998],"scale":[1.0,1.0,1.0],"children":[4]},{"name":"anniversary3_pool_anniversary3_pool_anniversary3_pool_root_Bone001","translation":[-3.911554691260477e-10,0.08073058724403381,-0.0],"rotation":[0.7071067811865475,-6.585445079827192e-10,-6.585445079827192e-10,0.7071067811865475],"scale":[1.0,1.0,1.0],"children":[5]},{"name":"anniversary3_pool_anniversary3_pool_anniversary3_pool_root_Bone001_bind_path","translation":[3.911554691260477e-10,-5.9604643443123e-10,0.08073058724403381],"rotation":[-0.7071067811865475,-0.0,-0.0,0.7071067811865475],"scale":[1.0,1.0,1.0]}],"meshes":[{"name":"anniversary3_pool","primitives":[{"attributes":{"POSITION":1,"NORMAL":2,"TEXCOORD_0":3,"JOINTS_0":4,"WEIGHTS_0":5},"indices":6,"mode":4,"material":0},{"attributes":{"POSITION":1,"NORMAL":2,"TEXCOORD_0":3,"JOINTS_0":4,"WEIGHTS_0":5},"indices":7,"mode":4,"material":1}]}],"materials":[{"name":"anniversary3_pool_D","pbrMetallicRoughness":{"baseColorFactor":[0.6792452931404114,0.6792452931404114,0.6792452931404114,1.0],"metallicFactor":0.0,"roughnessFactor":0.9,"baseColorTexture":{"index":0}}},{"name":"anniversary3_pool_D2","pbrMetallicRoughness":{"baseColorFactor":[1.0,1.0,1.0,1.0],"metallicFactor":0.0,"roughnessFactor":0.9}}],"skins":[{"joints":[4],"inverseBindMatrices":0,"skeleton":4}],"accessors":[{"bufferView":0,"componentType":5126,"count":1,"type":"MAT4"},{"bufferView":1,"componentType":5126,"count":1810,"type":"VEC3","min":[-1.1207972764968872,-0.8307415843009949,-0.510915994644165],"max":[1.1207973957061768,0.8307415843009949,-0.00031879424932412803]},{"bufferView":2,"componentType":5126,"count":1810,"type":"VEC3"},{"bufferView":3,"componentType":5126,"count":1810,"type":"VEC2"},{"bufferView":4,"componentType":5123,"count":1810,"type":"VEC4"},{"bufferView":5,"componentType":5126,"count":1810,"type":"VEC4"},{"bufferView":6,"componentType":5125,"count":7032,"type":"SCALAR"},{"bufferView":7,"componentType":5125,"count":30,"type":"SCALAR"}],"bufferViews":[{"buffer":0,"byteOffset":0,"byteLength":64},{"buffer":0,"byteOffset":64,"byteLength":21720},{"buffer":0,"byteOffset":21784,"byteLength":21720},{"buffer":0,"byteOffset":43504,"byteLength":14480},{"buffer":0,"byteOffset":57984,"byteLength":14480},{"buffer":0,"byteOffset":72464,"byteLength":28960},{"buffer":0,"byteOffset":101424,"byteLength":28128},{"buffer":0,"byteOffset":129552,"byteLength":120}],"images":[{"uri":"anniversary3_pool_D.png"}],"textures":[{"source":0}],"buffers":[{"uri":"furn_anniversary3_pool.bin","byteLength":129672}]}