{"asset":{"version":"2.0","generator":"yuntu-dorm-m1"},"scenes":[{"nodes":[0]}],"nodes":[{"name":"dwc2022_table_01","translation":[0.0,0.0,-0.0],"rotation":[-0.0,-0.0,0.0,1.0],"scale":[1.0,1.0,1.0],"children":[1]},{"name":"dwc2022_table_01_dwc2022_table_01","translation":[0.0,0.0,-0.0],"rotation":[0.0,0.0,-0.0,1.0],"scale":[1.0,1.0,1.0],"children":[2,3]},{"name":"dwc2022_table_01_dwc2022_table_01_dwc2022_table_01","translation":[0.5419820547103882,0.0,0.5450981259346008],"rotation":[-6.657902673623525e-08,0.0,-0.0,0.9999999999999978],"scale":[1.0,1.0,1.0],"skin":0,"mesh":0,"extras":{"aabb":[-0.31237003207206726,-2.921115935805574e-07,-0.5834087133407593,0.3123702108860016,1.2420767545700073,0.5834086537361145]}},{"name":"dwc2022_table_01_dwc2022_table_01_root","translation":[-0.0,0.0,-0.0],"rotation":[-6.657902673623525e-08,-3.1003275297691694e-17,4.656612873077382e-10,0.9999999999999978],"scale":[1.0,1.0,1.0],"children":[4,5,7]},{"name":"dwc2022_table_01_dwc2022_table_01_root_bind_path","translation":[-0.0,0.0,-0.0],"rotation":[3.532779211159381e-26,7.58658558795911e-17,-4.656612873077393e-10,1.0],"scale":[1.0,1.0,1.0]},{"name":"dwc2022_table_01_dwc2022_table_01_root_Bone001","translation":[-0.0,0.0,-0.0],"rotation":[-0.0017656875940110428,-0.0010057896605684972,-0.7062565191876347,0.7079531056782257],"scale":[1.0,1.0,1.0],"children":[6]},{"name":"dwc2022_table_01_dwc2022_table_01_root_Bone001_Bone003","translation":[-0.45436087250709534,0.16060730814933777,0.059881847351789474],"rotation":[0.000905808228012616,-0.17946745297322447,0.004791667177081723,0.9837518247812412],"scale":[1.0000001192092896,1.0000001192092896,1.0]},{"name":"dwc2022_table_01_dwc2022_table_01_root_Bone002","translation":[-0.0,5.491272858648699e-08,-0.3349628746509552],"rotation":[6.798240446070747e-07,-6.688302999611928e-07,-0.7013194006121077,0.7128471773979079],"scale":[1.0,1.0,1.0]}],"meshes":[{"name":"dwc2022_table_01","primitives":[{"attributes":{"POSITION":1,"NORMAL":2,"TEXCOORD_0":3,"JOINTS_0":4,"WEIGHTS_0":5},"indices":6,"mode":4,"material":0},{"attributes":{"POSITION":1,"NORMAL":2,"TEXCOORD_0":3,"JOINTS_0":4,"WEIGHTS_0":5},"indices":7,"mode":4,"material":1}]}],"materials":[{"name":"dwc2022_table_01_D","pbrMetallicRoughness":{"baseColorFactor":[0.7118605971336365,0.6887237429618835,0.7264150977134705,1.0],"metallicFactor":0.0,"roughnessFactor":0.9,"baseColorTexture":{"index":0}}},{"name":"dwc2022_table_01_002_D","pbrMetallicRoughness":{"baseColorFactor":[1.0,1.0,1.0,1.0],"metallicFactor":0.0,"roughnessFactor":0.9,"baseColorTexture":{"index":1}},"alphaMode":"MASK","alphaCutoff":0.5,"doubleSided":true}],"skins":[{"joints":[5,6,7],"inverseBindMatrices":0,"skeleton":5}],"accessors":[{"bufferView":0,"componentType":5126,"count":3,"type":"MAT4"},{"bufferView":1,"componentType":5126,"count":1274,"type":"VEC3","min":[-0.31237003207206726,-2.921115935805574e-07,-0.5834087133407593],"max":[0.3123702108860016,1.2420767545700073,0.5834086537361145]},{"bufferView":2,"componentType":5126,"count":1274,"type":"VEC3"},{"bufferView":3,"componentType":5126,"count":1274,"type":"VEC2"},{"bufferView":4,"componentType":5123,"count":1274,"type":"VEC4"},{"bufferView":5,"componentType":5126,"count":1274,"type":"VEC4"},{"bufferView":6,"componentType":5125,"count":3036,"type":"SCALAR"},{"bufferView":7,"componentType":5125,"count":6,"type":"SCALAR"}],"bufferViews":[{"buffer":0,"byteOffset":0,"byteLength":192},{"buffer":0,"byteOffset":192,"byteLength":15288},{"buffer":0,"byteOffset":15480,"byteLength":15288},{"buffer":0,"byteOffset":30768,"byteLength":10192},{"buffer":0,"byteOffset":40960,"byteLength":10192},{"buffer":0,"byteOffset":51152,"byteLength":20384},{"buffer":0,"byteOffset":71536,"byteLength":12144},{"buffer":0,"byteOffset":83680,"byteLength":24}],"images":[{"uri":"dwc2022_table_01_D.png"},{"uri":"dwc2022_table_01_002_D.png"}],"textures":[{"source":0},{"source":1}],"buffers":[{"uri":"furn_dwc2022_table_01.bin","byteLength":83704}]}