{"asset":{"version":"2.0","generator":"yuntu-dorm-m1"},"scenes":[{"nodes":[0]}],"nodes":[{"name":"syp2017_deco_006","translation":[0.0,0.0,-0.0],"rotation":[-0.0,-0.0,0.0,1.0],"scale":[1.0,1.0,1.0],"children":[1]},{"name":"syp2017_deco_006_syp2017_deco_006","translation":[0.0,0.0,-0.0],"rotation":[0.0,0.0,-0.0,1.0],"scale":[1.2000000476837158,1.2000000476837158,1.2000000476837158],"mesh":0,"extras":{"aabb":[-0.5590757727622986,-0.0027503822930157185,-0.22065280377864838,0.5590757727622986,0.8377271890640259,0.5227076411247253]}}],"meshes":[{"name":"syp2017_deco_006","primitives":[{"attributes":{"POSITION":0,"NORMAL":1,"TEXCOORD_0":2},"indices":3,"mode":4,"material":0},{"attributes":{"POSITION":0,"NORMAL":1,"TEXCOORD_0":2},"indices":4,"mode":4,"material":1}]}],"materials":[{"name":"syp2017_deco_006_D","pbrMetallicRoughness":{"baseColorFactor":[0.6359999775886536,0.6359999775886536,0.6359999775886536,1.0],"metallicFactor":0.0,"roughnessFactor":0.9,"baseColorTexture":{"index":0}},"alphaMode":"MASK","alphaCutoff":0.5,"doubleSided":true},{"name":"syp2017_deco_006_T","pbrMetallicRoughness":{"baseColorFactor":[0.6359999775886536,0.6359999775886536,0.6359999775886536,1.0],"metallicFactor":0.0,"roughnessFactor":0.9,"baseColorTexture":{"index":0}},"alphaMode":"BLEND","doubleSided":true}],"accessors":[{"bufferView":0,"componentType":5126,"count":7737,"type":"VEC3","min":[-0.5590757727622986,-0.0027503822930157185,-0.22065280377864838],"max":[0.5590757727622986,0.8377271890640259,0.5227076411247253]},{"bufferView":1,"componentType":5126,"count":7737,"type":"VEC3"},{"bufferView":2,"componentType":5126,"count":7737,"type":"VEC2"},{"bufferView":3,"componentType":5125,"count":18843,"type":"SCALAR"},{"bufferView":4,"componentType":5125,"count":1932,"type":"SCALAR"}],"bufferViews":[{"buffer":0,"byteOffset":0,"byteLength":92844},{"buffer":0,"byteOffset":92844,"byteLength":92844},{"buffer":0,"byteOffset":185688,"byteLength":61896},{"buffer":0,"byteOffset":247584,"byteLength":75372},{"buffer":0,"byteOffset":322956,"byteLength":7728}],"images":[{"uri":"syp2017_deco_006_T.png"}],"textures":[{"source":0}],"buffers":[{"uri":"furn_syp2017_deco_006.bin","byteLength":330684}]}