{"asset":{"version":"2.0","generator":"yuntu-dorm-m1"},"scenes":[{"nodes":[0]}],"nodes":[{"name":"se2021_surfboard_001","translation":[0.024961108341813087,0.0,-0.0],"rotation":[-0.0,-0.0,0.0,1.0],"scale":[1.0,1.0,1.0],"mesh":0,"extras":{"aabb":[-0.5917250514030457,-0.0042714690789580345,-0.023078475147485733,0.5672609806060791,1.0298008918762207,0.05133573338389397]}}],"meshes":[{"name":"se2021_surfboard_001","primitives":[{"attributes":{"POSITION":0,"NORMAL":1,"TEXCOORD_0":2},"indices":3,"mode":4,"material":0}]}],"materials":[{"name":"se2021_surfboard_001_D","pbrMetallicRoughness":{"baseColorFactor":[0.75,0.75,0.75,1.0],"metallicFactor":0.0,"roughnessFactor":0.9,"baseColorTexture":{"index":0}},"alphaMode":"MASK","alphaCutoff":0.5,"doubleSided":true}],"accessors":[{"bufferView":0,"componentType":5126,"count":410,"type":"VEC3","min":[-0.5917250514030457,-0.0042714690789580345,-0.023078475147485733],"max":[0.5672609806060791,1.0298008918762207,0.05133573338389397]},{"bufferView":1,"componentType":5126,"count":410,"type":"VEC3"},{"bufferView":2,"componentType":5126,"count":410,"type":"VEC2"},{"bufferView":3,"componentType":5125,"count":924,"type":"SCALAR"}],"bufferViews":[{"buffer":0,"byteOffset":0,"byteLength":4920},{"buffer":0,"byteOffset":4920,"byteLength":4920},{"buffer":0,"byteOffset":9840,"byteLength":3280},{"buffer":0,"byteOffset":13120,"byteLength":3696}],"images":[{"uri":"se2021_surfboard_001_D.png"}],"textures":[{"source":0}],"buffers":[{"uri":"furn_se2021_surfboard_001.bin","byteLength":16816}]}