{"asset":{"version":"2.0","generator":"yuntu-dorm-m1"},"scenes":[{"nodes":[0]}],"nodes":[{"name":"syp2017_table_002","translation":[0.0,0.0,-0.0],"rotation":[-0.0,-0.0,0.0,1.0],"scale":[1.0,1.0,1.0],"mesh":0,"extras":{"aabb":[-0.7563629746437073,0.0,-0.3484354019165039,0.7563629746437073,0.9639189839363098,0.29948854446411133]}}],"meshes":[{"name":"syp2017_table_002","primitives":[{"attributes":{"POSITION":0,"NORMAL":1,"TEXCOORD_0":2},"indices":3,"mode":4,"material":0},{"attributes":{"POSITION":0,"NORMAL":1,"TEXCOORD_0":2},"indices":4,"mode":4,"material":1}]}],"materials":[{"name":"syp2017_table_002_D","pbrMetallicRoughness":{"baseColorFactor":[0.6359999775886536,0.6359999775886536,0.6359999775886536,1.0],"metallicFactor":0.0,"roughnessFactor":0.9,"baseColorTexture":{"index":0}}},{"name":"syp2017_table_002_T","pbrMetallicRoughness":{"baseColorFactor":[0.6359999775886536,0.6359999775886536,0.6359999775886536,1.0],"metallicFactor":0.0,"roughnessFactor":0.9,"baseColorTexture":{"index":0}},"alphaMode":"BLEND","doubleSided":true}],"accessors":[{"bufferView":0,"componentType":5126,"count":1150,"type":"VEC3","min":[-0.7563629746437073,0.0,-0.3484354019165039],"max":[0.7563629746437073,0.9639189839363098,0.29948854446411133]},{"bufferView":1,"componentType":5126,"count":1150,"type":"VEC3"},{"bufferView":2,"componentType":5126,"count":1150,"type":"VEC2"},{"bufferView":3,"componentType":5125,"count":2190,"type":"SCALAR"},{"bufferView":4,"componentType":5125,"count":30,"type":"SCALAR"}],"bufferViews":[{"buffer":0,"byteOffset":0,"byteLength":13800},{"buffer":0,"byteOffset":13800,"byteLength":13800},{"buffer":0,"byteOffset":27600,"byteLength":9200},{"buffer":0,"byteOffset":36800,"byteLength":8760},{"buffer":0,"byteOffset":45560,"byteLength":120}],"images":[{"uri":"syp2017_table_002_T.png"}],"textures":[{"source":0}],"buffers":[{"uri":"furn_syp2017_table_002.bin","byteLength":45680}]}