{"asset":{"version":"2.0","generator":"yuntu-dorm-m1"},"scenes":[{"nodes":[0]}],"nodes":[{"name":"anniversary2_table","translation":[0.0,0.0,-0.0],"rotation":[-0.0,-0.0,0.0,1.0],"scale":[1.0,1.0,1.0],"children":[1]},{"name":"anniversary2_table_anniversary2_table","translation":[0.0,0.0,-0.0],"rotation":[0.0,0.0,-0.0,1.0],"scale":[1.0,1.0,1.0],"children":[2,3]},{"name":"anniversary2_table_anniversary2_table_anniversary2_table","translation":[-0.8999999761581421,0.0,1.5258788721439487e-07],"rotation":[0.7071067811865475,-0.0,-0.0,0.7071067811865475],"scale":[1.0,1.0,1.0],"skin":0,"mesh":0,"extras":{"aabb":[-0.3096386790275574,-0.8839964270591736,-1.0018965005874634,2.1300652027130127,0.7909626364707947,0.004471681080758572]}},{"name":"anniversary2_table_anniversary2_table_anniversary2_table_root","translation":[-0.0,0.0,1.4822546745563159e-08],"rotation":[1.4503335421522754e-07,-4.3711395392164744e-08,-4.371138118131003e-08,0.9999999999999876],"scale":[1.0,1.0,1.0],"children":[4,5,6,7]},{"name":"anniversary2_table_anniversary2_table_anniversary2_table_root_bind_path","translation":[-2.6755663809307053e-16,-1.1368683518051719e-15,-3.060492748119259e-09],"rotation":[-2.2649371089755129e-07,4.371140249759148e-08,9.900357409700283e-15,0.9999999999999734],"scale":[1.0,1.0,1.0]},{"name":"anniversary2_table_anniversary2_table_anniversary2_table_root_Bone002","translation":[-6.528076745837552e-09,0.07467252016067505,-1.0005068773466519e-08],"rotation":[0.7071066619771199,-0.7071069003957031,-2.613133505448485e-07,5.366707774543129e-07],"scale":[1.0,1.0,1.0]},{"name":"anniversary2_table_anniversary2_table_anniversary2_table_root_Bone003","translation":[1.0333915948867798,0.02276792749762535,-0.07534345239400864],"rotation":[0.7039285545382596,-0.710270786447697,3.6090448712501503e-06,-3.4089821948604075e-06],"scale":[1.0,1.0,1.0]},{"name":"anniversary2_table_anniversary2_table_anniversary2_table_root_Bone005","translation":[-0.36847174167633057,0.019999822601675987,0.6601558327674866],"rotation":[0.7043920820217487,-0.7098110979560239,1.4907706282303463e-06,-1.1434991725508593e-06],"scale":[1.0,1.0,1.0]}],"meshes":[{"name":"anniversary2_table","primitives":[{"attributes":{"POSITION":1,"NORMAL":2,"TEXCOORD_0":3,"JOINTS_0":4,"WEIGHTS_0":5},"indices":6,"mode":4,"material":0},{"attributes":{"POSITION":1,"NORMAL":2,"TEXCOORD_0":3,"JOINTS_0":4,"WEIGHTS_0":5},"indices":7,"mode":4,"material":1}]}],"materials":[{"name":"anniversary2_table_D","pbrMetallicRoughness":{"baseColorFactor":[0.6037735939025879,0.6037735939025879,0.6037735939025879,1.0],"metallicFactor":0.0,"roughnessFactor":0.9,"baseColorTexture":{"index":0}}},{"name":"anniversary2_table_T","pbrMetallicRoughness":{"baseColorFactor":[0.6415094137191772,0.6415094137191772,0.6415094137191772,1.0],"metallicFactor":0.0,"roughnessFactor":0.9,"baseColorTexture":{"index":0}},"alphaMode":"BLEND","doubleSided":true}],"skins":[{"joints":[5,6,7],"inverseBindMatrices":0,"skeleton":5}],"accessors":[{"bufferView":0,"componentType":5126,"count":3,"type":"MAT4"},{"bufferView":1,"componentType":5126,"count":10242,"type":"VEC3","min":[-0.3096386790275574,-0.8839964270591736,-1.0018965005874634],"max":[2.1300652027130127,0.7909626364707947,0.004471681080758572]},{"bufferView":2,"componentType":5126,"count":10242,"type":"VEC3"},{"bufferView":3,"componentType":5126,"count":10242,"type":"VEC2"},{"bufferView":4,"componentType":5123,"count":10242,"type":"VEC4"},{"bufferView":5,"componentType":5126,"count":10242,"type":"VEC4"},{"bufferView":6,"componentType":5125,"count":20970,"type":"SCALAR"},{"bufferView":7,"componentType":5125,"count":5748,"type":"SCALAR"}],"bufferViews":[{"buffer":0,"byteOffset":0,"byteLength":192},{"buffer":0,"byteOffset":192,"byteLength":122904},{"buffer":0,"byteOffset":123096,"byteLength":122904},{"buffer":0,"byteOffset":246000,"byteLength":81936},{"buffer":0,"byteOffset":327936,"byteLength":81936},{"buffer":0,"byteOffset":409872,"byteLength":163872},{"buffer":0,"byteOffset":573744,"byteLength":83880},{"buffer":0,"byteOffset":657624,"byteLength":22992}],"images":[{"uri":"anniversary2_table_T.png"}],"textures":[{"source":0}],"buffers":[{"uri":"furn_anniversary2_table.bin","byteLength":680616}]}