{"asset":{"version":"2.0","generator":"yuntu-dorm-m1"},"scenes":[{"nodes":[0]}],"nodes":[{"name":"sef2022_sofa","translation":[0.0,0.0,-0.0],"rotation":[-0.0,-0.0,0.0,1.0],"scale":[1.0,1.0,1.0],"mesh":0,"extras":{"aabb":[-0.5075352191925049,-0.031138915568590164,-0.23063592612743378,0.5079297423362732,0.4995778501033783,0.1876809298992157]}}],"meshes":[{"name":"sef2022_sofa","primitives":[{"attributes":{"POSITION":0,"NORMAL":1,"TEXCOORD_0":2},"indices":3,"mode":4,"material":0},{"attributes":{"POSITION":0,"NORMAL":1,"TEXCOORD_0":2},"indices":4,"mode":4,"material":1}]}],"materials":[{"name":"sef2022_sofa_D","pbrMetallicRoughness":{"baseColorFactor":[0.6797792911529541,0.689079761505127,0.7169811725616455,1.0],"metallicFactor":0.0,"roughnessFactor":0.9,"baseColorTexture":{"index":0}},"alphaMode":"MASK","alphaCutoff":0.5,"doubleSided":true},{"name":"sef2022_sofa_T","pbrMetallicRoughness":{"baseColorFactor":[0.75,0.75,0.75,1.0],"metallicFactor":0.0,"roughnessFactor":0.9,"baseColorTexture":{"index":0}},"alphaMode":"BLEND","doubleSided":true}],"accessors":[{"bufferView":0,"componentType":5126,"count":524,"type":"VEC3","min":[-0.5075352191925049,-0.031138915568590164,-0.23063592612743378],"max":[0.5079297423362732,0.4995778501033783,0.1876809298992157]},{"bufferView":1,"componentType":5126,"count":524,"type":"VEC3"},{"bufferView":2,"componentType":5126,"count":524,"type":"VEC2"},{"bufferView":3,"componentType":5125,"count":870,"type":"SCALAR"},{"bufferView":4,"componentType":5125,"count":12,"type":"SCALAR"}],"bufferViews":[{"buffer":0,"byteOffset":0,"byteLength":6288},{"buffer":0,"byteOffset":6288,"byteLength":6288},{"buffer":0,"byteOffset":12576,"byteLength":4192},{"buffer":0,"byteOffset":16768,"byteLength":3480},{"buffer":0,"byteOffset":20248,"byteLength":48}],"images":[{"uri":"sef2022_sofa_T.png"}],"textures":[{"source":0}],"buffers":[{"uri":"furn_sef2022_sofa.bin","byteLength":20296}]}