{"asset":{"version":"2.0","generator":"yuntu-dorm-m1"},"scenes":[{"nodes":[0]}],"nodes":[{"name":"xn2018_chair_002","translation":[0.0,0.0,-0.0],"rotation":[-0.0,-0.0,0.0,1.0],"scale":[1.0,1.0,1.0],"mesh":0,"extras":{"aabb":[-0.10461913794279099,0.0009960937313735485,-0.10092773288488388,0.10461913794279099,0.20292967557907104,0.10092773288488388]}}],"meshes":[{"name":"xn2018_chair_002","primitives":[{"attributes":{"POSITION":0,"NORMAL":1,"TEXCOORD_0":2},"indices":3,"mode":4,"material":0}]}],"materials":[{"name":"xn2018_chair_002_D","pbrMetallicRoughness":{"baseColorFactor":[0.75,0.75,0.75,1.0],"metallicFactor":0.0,"roughnessFactor":0.9,"baseColorTexture":{"index":0}}}],"accessors":[{"bufferView":0,"componentType":5126,"count":548,"type":"VEC3","min":[-0.10461913794279099,0.0009960937313735485,-0.10092773288488388],"max":[0.10461913794279099,0.20292967557907104,0.10092773288488388]},{"bufferView":1,"componentType":5126,"count":548,"type":"VEC3"},{"bufferView":2,"componentType":5126,"count":548,"type":"VEC2"},{"bufferView":3,"componentType":5125,"count":1296,"type":"SCALAR"}],"bufferViews":[{"buffer":0,"byteOffset":0,"byteLength":6576},{"buffer":0,"byteOffset":6576,"byteLength":6576},{"buffer":0,"byteOffset":13152,"byteLength":4384},{"buffer":0,"byteOffset":17536,"byteLength":5184}],"images":[{"uri":"xn2018_chair_002_D.png"}],"textures":[{"source":0}],"buffers":[{"uri":"furn_xn2018_chair_002.bin","byteLength":22720}]}