{"asset":{"version":"2.0","generator":"yuntu-dorm-m1"},"scenes":[{"nodes":[0]}],"nodes":[{"name":"srt2022_drumset","translation":[0.0,0.0,-0.0],"rotation":[-0.0,-0.0,0.0,1.0],"scale":[1.0,1.0,1.0],"children":[1,26]},{"name":"srt2022_drumset_srt2022_drumset","translation":[0.0,0.0,-0.0],"rotation":[0.0,0.0,-0.0,1.0],"scale":[1.0,1.0,1.0],"children":[2,25]},{"name":"srt2022_drumset_srt2022_drumset_root","translation":[-0.0,0.0,6.72217892461191e-10],"rotation":[-6.657902673623525e-08,4.656879326603292e-10,3.100504877292501e-17,0.9999999999999978],"scale":[1.0,1.0,1.0],"children":[3]},{"name":"srt2022_drumset_srt2022_drumset_root_Bone021","translation":[-2.4476776837666215e-18,-2.8421706148151337e-16,2.628024020623343e-09],"rotation":[-7.57110550841001e-08,7.571103376781855e-08,-0.7071066917795727,0.7071068705935026],"scale":[1.0,1.0,1.0],"children":[4,5,9,11,13,15,19,21,23,24]},{"name":"srt2022_drumset_srt2022_drumset_root_Bone021_bind_path","translation":[-3.937352716577218e-16,7.097979926291387e-16,-3.3002418575733827e-09],"rotation":[-1.2644054197996454e-07,-1.264405135582546e-07,0.7071066619772346,0.7071069003958177],"scale":[1.0,1.0,1.0]},{"name":"srt2022_drumset_srt2022_drumset_root_Bone021_Bone01","translation":[-0.004710273817181587,0.14927181601524353,-0.20713216066360474],"rotation":[0.18028250922396358,2.9384225133449812e-08,-8.21412585600563e-08,0.9836148722278979],"scale":[1.0,1.0,1.0],"children":[6,8]},{"name":"srt2022_drumset_srt2022_drumset_root_Bone021_Bone01_Bone10","translation":[-0.4788402318954468,-0.013425254262983799,-0.0],"rotation":[-2.9802322387694452e-08,-7.105427357600797e-15,2.3841857910155562e-07,0.9999999999999711],"scale":[1.0,1.0,1.0],"children":[7]},{"name":"srt2022_drumset_srt2022_drumset_root_Bone021_Bone01_Bone10_Bone11","translation":[-0.08207469433546066,0.006378345191478729,0.0028050041291862726],"rotation":[-0.05377057176812395,0.7932875129998237,-0.07023864216075536,0.6023870686507944],"scale":[1.0,1.0,1.0]},{"name":"srt2022_drumset_srt2022_drumset_root_Bone021_Bone01_Bone18","translation":[-0.00321755837649107,0.0027478074189275503,0.2500426173210144],"rotation":[-0.8402142444317939,-0.014324756202116757,-0.5416827746055313,-0.020361643089715782],"scale":[1.0,1.0,1.0]},{"name":"srt2022_drumset_srt2022_drumset_root_Bone021_Bone02","translation":[-0.019617803394794464,0.4590502679347992,0.05095933377742767],"rotation":[6.123234262925839e-17,-6.123234262925839e-17,-6.123234262925839e-17,1.0],"scale":[1.0,1.0,1.0],"children":[10]},{"name":"srt2022_drumset_srt2022_drumset_root_Bone021_Bone02_Bone12","translation":[-0.6303484439849854,-0.0005310821579769254,0.0013514709426090121],"rotation":[0.17286653923773818,0.7755689596513622,0.19948840035378398,0.5734233397426022],"scale":[1.0,1.0,1.0]},{"name":"srt2022_drumset_srt2022_drumset_root_Bone021_Bone03","translation":[-0.019617900252342224,0.24744942784309387,0.12934288382530212],"rotation":[6.123234262925839e-17,-6.123234262925839e-17,-6.123234262925839e-17,1.0],"scale":[1.0,1.0,1.0],"children":[12]},{"name":"srt2022_drumset_srt2022_drumset_root_Bone021_Bone03_Bone13","translation":[-0.24506951868534088,3.814697180359872e-08,-0.0],"rotation":[-1.0360962932054407e-07,3.552714525833429e-15,-7.10542693408449e-15,0.9999999999999947],"scale":[1.0,1.0,1.0]},{"name":"srt2022_drumset_srt2022_drumset_root_Bone021_Bone04","translation":[-0.01961802877485752,0.00194551853928715,0.3214946389198303],"rotation":[6.123234262925839e-17,-6.123234262925839e-17,-6.123234262925839e-17,1.0],"scale":[1.0,0.6406769156455994,0.6406769156455994],"children":[14]},{"name":"srt2022_drumset_srt2022_drumset_root_Bone021_Bone04_Bone20","translation":[-0.1522451937198639,5.7220457705398076e-08,-0.0],"rotation":[-8.976314092024005e-08,0.0,-0.0,0.999999999999996],"scale":[1.0,0.9999999403953552,0.9999999403953552]},{"name":"srt2022_drumset_srt2022_drumset_root_Bone021_Bone05","translation":[-0.019618187099695206,-0.3371238708496094,0.1599971503019333],"rotation":[6.123234262925839e-17,-6.123234262925839e-17,-6.123234262925839e-17,1.0],"scale":[1.0,1.0,1.0],"children":[16,17,18]},{"name":"srt2022_drumset_srt2022_drumset_root_Bone021_Bone05_Bone15","translation":[-0.48665979504585266,0.0,0.00011063575220759958],"rotation":[-1.1781926438085008e-07,0.707512453181482,1.744173411311029e-07,0.7067008763211469],"scale":[1.0,1.0,1.0]},{"name":"srt2022_drumset_srt2022_drumset_root_Bone021_Bone05_Bone16","translation":[-0.43973222374916077,0.0,0.00011059761163778603],"rotation":[-1.1781926438085008e-07,0.707512453181482,1.744173411311029e-07,0.7067008763211469],"scale":[1.0,1.0,1.0]},{"name":"srt2022_drumset_srt2022_drumset_root_Bone021_Bone05_Bone17","translation":[0.011074676178395748,0.1454131305217743,0.0621737577021122],"rotation":[-0.7196129505589076,-0.2811799922002834,-0.42147367871234526,-0.4748209678677158],"scale":[1.0,1.0,1.0]},{"name":"srt2022_drumset_srt2022_drumset_root_Bone021_Bone06","translation":[-0.019618147984147072,-0.28154775500297546,-0.16701415181159973],"rotation":[6.123234262925839e-17,-6.123234262925839e-17,-6.123234262925839e-17,1.0],"scale":[1.0,1.0,1.0],"children":[20]},{"name":"srt2022_drumset_srt2022_drumset_root_Bone021_Bone06_Bone14","translation":[-0.6464793086051941,-0.0005914116045460105,-0.0013934326125308871],"rotation":[-0.19937789338346992,0.7149388157577353,-0.2648870335404472,0.6155857412375946],"scale":[1.0,0.9999997615814209,0.9999998807907104]},{"name":"srt2022_drumset_srt2022_drumset_root_Bone021_Bone07","translation":[-0.0196180809289217,-0.1223282590508461,-0.015497246757149696],"rotation":[6.123234262925839e-17,-6.123234262925839e-17,-6.123234262925839e-17,1.0],"scale":[1.0,1.0,1.0],"children":[22]},{"name":"srt2022_drumset_srt2022_drumset_root_Bone021_Bone07_Bone19","translation":[-0.24506931006908417,-0.0008913612109608948,0.0003317451337352395],"rotation":[-2.4668403852955094e-07,-5.526134427445034e-14,2.3841857910154847e-07,0.9999999999999412],"scale":[1.0,1.0,1.0]},{"name":"srt2022_drumset_srt2022_drumset_root_Bone021_Bone08","translation":[-0.37581107020378113,-0.1631339192390442,0.05998402461409569],"rotation":[0.6937214675271376,-0.13693265504582208,0.6937214675271376,-0.13693246133072814],"scale":[1.0,0.9999999403953552,0.9999999403953552]},{"name":"srt2022_drumset_srt2022_drumset_root_Bone021_Bone09","translation":[-0.3735649883747101,-0.048315681517124176,0.054856035858392715],"rotation":[0.6736058702404382,0.15133135266976805,0.7090008374187048,0.14377679164710697],"scale":[1.0000004768371582,0.9999998807907104,0.9999999403953552]},{"name":"srt2022_drumset_srt2022_drumset_srt2022_drumset","translation":[-0.0,0.0,-0.0],"rotation":[0.7071067811865475,8.659560683426728e-17,-8.659560683426728e-17,0.7071067811865475],"scale":[1.0,1.0,1.0],"skin":0,"mesh":0,"extras":{"aabb":[-0.5109368562698364,-0.3897772431373596,-0.7097421884536743,0.6554793119430542,0.34726443886756897,0.0005250549293123186]}},{"name":"srt2022_drumset_highLightMeshRoot","translation":[0.0,0.0,-0.0],"rotation":[0.7071067811865475,8.659560683426728e-17,-8.659560683426728e-17,0.7071067811865475],"scale":[1.0,1.0,1.0],"mesh":1,"extras":{"aabb":[-0.5109368562698364,-0.3897772431373596,-0.7097421884536743,0.6554793119430542,0.34726443886756897,0.0005250549293123186]}}],"meshes":[{"name":"srt2022_drumset","primitives":[{"attributes":{"POSITION":1,"NORMAL":2,"TEXCOORD_0":3,"JOINTS_0":4,"WEIGHTS_0":5},"indices":6,"mode":4,"material":0}]},{"name":"srt2022_drumset","primitives":[{"attributes":{"POSITION":7,"NORMAL":8,"TEXCOORD_0":9,"JOINTS_0":10,"WEIGHTS_0":11},"indices":12,"mode":4}]}],"materials":[{"name":"srt2022_drumset_D","pbrMetallicRoughness":{"baseColorFactor":[0.7924528121948242,0.7924528121948242,0.7924528121948242,1.0],"metallicFactor":0.0,"roughnessFactor":0.9,"baseColorTexture":{"index":0}}}],"skins":[{"joints":[5,22,23,24,13,14,9,10,15,17,16,18,19,21,20,7,6,12,11,8],"inverseBindMatrices":0,"skeleton":5}],"accessors":[{"bufferView":0,"componentType":5126,"count":20,"type":"MAT4"},{"bufferView":1,"componentType":5126,"count":6708,"type":"VEC3","min":[-0.5109368562698364,-0.3897772431373596,-0.7097421884536743],"max":[0.6554793119430542,0.34726443886756897,0.0005250549293123186]},{"bufferView":2,"componentType":5126,"count":6708,"type":"VEC3"},{"bufferView":3,"componentType":5126,"count":6708,"type":"VEC2"},{"bufferView":4,"componentType":5123,"count":6708,"type":"VEC4"},{"bufferView":5,"componentType":5126,"count":6708,"type":"VEC4"},{"bufferView":6,"componentType":5125,"count":14190,"type":"SCALAR"},{"bufferView":7,"componentType":5126,"count":6708,"type":"VEC3","min":[-0.5109368562698364,-0.3897772431373596,-0.7097421884536743],"max":[0.6554793119430542,0.34726443886756897,0.0005250549293123186]},{"bufferView":8,"componentType":5126,"count":6708,"type":"VEC3"},{"bufferView":9,"componentType":5126,"count":6708,"type":"VEC2"},{"bufferView":10,"componentType":5123,"count":6708,"type":"VEC4"},{"bufferView":11,"componentType":5126,"count":6708,"type":"VEC4"},{"bufferView":12,"componentType":5125,"count":14190,"type":"SCALAR"}],"bufferViews":[{"buffer":0,"byteOffset":0,"byteLength":1280},{"buffer":0,"byteOffset":1280,"byteLength":80496},{"buffer":0,"byteOffset":81776,"byteLength":80496},{"buffer":0,"byteOffset":162272,"byteLength":53664},{"buffer":0,"byteOffset":215936,"byteLength":53664},{"buffer":0,"byteOffset":269600,"byteLength":107328},{"buffer":0,"byteOffset":376928,"byteLength":56760},{"buffer":0,"byteOffset":433688,"byteLength":80496},{"buffer":0,"byteOffset":514184,"byteLength":80496},{"buffer":0,"byteOffset":594680,"byteLength":53664},{"buffer":0,"byteOffset":648344,"byteLength":53664},{"buffer":0,"byteOffset":702008,"byteLength":107328},{"buffer":0,"byteOffset":809336,"byteLength":56760}],"images":[{"uri":"srt2022_drumset_D.png"}],"textures":[{"source":0}],"buffers":[{"uri":"furn_srt2022_drumset.bin","byteLength":866096}]}