{"asset":{"version":"2.0","generator":"yuntu-dorm-m1"},"scenes":[{"nodes":[0]}],"nodes":[{"name":"xn2018_bed_001","translation":[0.0,0.0,-0.0],"rotation":[-0.0,-0.0,0.0,1.0],"scale":[1.0,1.0,1.0],"mesh":0,"extras":{"aabb":[-0.7810440063476562,0.002538995584473014,-0.2994597852230072,0.7788558602333069,0.5751906633377075,0.30004534125328064]}}],"meshes":[{"name":"xn2018_bed_001","primitives":[{"attributes":{"POSITION":0,"NORMAL":1,"TEXCOORD_0":2},"indices":3,"mode":4,"material":0}]}],"materials":[{"name":"xn2018_bed_001_D","pbrMetallicRoughness":{"baseColorFactor":[0.75,0.75,0.75,1.0],"metallicFactor":0.0,"roughnessFactor":0.9,"baseColorTexture":{"index":0}}}],"accessors":[{"bufferView":0,"componentType":5126,"count":1884,"type":"VEC3","min":[-0.7810440063476562,0.002538995584473014,-0.2994597852230072],"max":[0.7788558602333069,0.5751906633377075,0.30004534125328064]},{"bufferView":1,"componentType":5126,"count":1884,"type":"VEC3"},{"bufferView":2,"componentType":5126,"count":1884,"type":"VEC2"},{"bufferView":3,"componentType":5125,"count":6540,"type":"SCALAR"}],"bufferViews":[{"buffer":0,"byteOffset":0,"byteLength":22608},{"buffer":0,"byteOffset":22608,"byteLength":22608},{"buffer":0,"byteOffset":45216,"byteLength":15072},{"buffer":0,"byteOffset":60288,"byteLength":26160}],"images":[{"uri":"xn2018_bed_001_D.png"}],"textures":[{"source":0}],"buffers":[{"uri":"furn_xn2018_bed_001.bin","byteLength":86448}]}