{"asset":{"version":"2.0","generator":"yuntu-dorm-m1"},"scenes":[{"nodes":[0]}],"nodes":[{"name":"ab2024_door","translation":[0.0,0.0,-0.0],"rotation":[-0.0,-0.0,0.0,1.0],"scale":[1.0,1.0,1.0],"mesh":0,"extras":{"aabb":[-1.2640348672866821,-0.2362389862537384,-0.14814618229866028,1.2640348672866821,2.2704215049743652,0.4110743999481201]}}],"meshes":[{"name":"ab2024_door","primitives":[{"attributes":{"POSITION":0,"NORMAL":1,"TEXCOORD_0":2},"indices":3,"mode":4,"material":0},{"attributes":{"POSITION":0,"NORMAL":1,"TEXCOORD_0":2},"indices":4,"mode":4,"material":1},{"attributes":{"POSITION":0,"NORMAL":1,"TEXCOORD_0":2},"indices":5,"mode":4,"material":2}]}],"materials":[{"name":"ab2024_door_D","pbrMetallicRoughness":{"baseColorFactor":[0.6415094137191772,0.6415094137191772,0.6415094137191772,1.0],"metallicFactor":0.0,"roughnessFactor":0.9,"baseColorTexture":{"index":0}}},{"name":"ab2024_door_bg1_D","pbrMetallicRoughness":{"baseColorFactor":[0.6603773832321167,0.5695443153381348,0.4080633819103241,1.0],"metallicFactor":0.0,"roughnessFactor":0.9}},{"name":"ab2024_door_bg2_D","pbrMetallicRoughness":{"baseColorFactor":[0.08235294371843338,0.05833333730697632,0.053529415279626846,1.0],"metallicFactor":0.0,"roughnessFactor":0.9}}],"accessors":[{"bufferView":0,"componentType":5126,"count":301,"type":"VEC3","min":[-1.2640348672866821,-0.2362389862537384,-0.14814618229866028],"max":[1.2640348672866821,2.2704215049743652,0.4110743999481201]},{"bufferView":1,"componentType":5126,"count":301,"type":"VEC3"},{"bufferView":2,"componentType":5126,"count":301,"type":"VEC2"},{"bufferView":3,"componentType":5125,"count":411,"type":"SCALAR"},{"bufferView":4,"componentType":5125,"count":3,"type":"SCALAR"},{"bufferView":5,"componentType":5125,"count":21,"type":"SCALAR"}],"bufferViews":[{"buffer":0,"byteOffset":0,"byteLength":3612},{"buffer":0,"byteOffset":3612,"byteLength":3612},{"buffer":0,"byteOffset":7224,"byteLength":2408},{"buffer":0,"byteOffset":9632,"byteLength":1644},{"buffer":0,"byteOffset":11276,"byteLength":12},{"buffer":0,"byteOffset":11288,"byteLength":84}],"images":[{"uri":"ab2024_door_T.png"}],"textures":[{"source":0}],"buffers":[{"uri":"furn_ab2024_door.bin","byteLength":11372}]}