{"asset":{"version":"2.0","generator":"yuntu-dorm-m1"},"scenes":[{"nodes":[0]}],"nodes":[{"name":"do2022_deco_01","translation":[0.0,0.0,-0.0],"rotation":[-0.0,-0.0,0.0,1.0],"scale":[1.0,1.0,1.0],"mesh":0,"extras":{"aabb":[-0.2705593705177307,-1.0033909347839653e-05,-0.20839102566242218,0.2705593705177307,0.903208315372467,0.2083912044763565]}}],"meshes":[{"name":"do2022_deco_01","primitives":[{"attributes":{"POSITION":0,"NORMAL":1,"TEXCOORD_0":2},"indices":3,"mode":4,"material":0}]}],"materials":[{"name":"do2022_deco_01_D","pbrMetallicRoughness":{"baseColorFactor":[0.5762726664543152,0.6224880814552307,0.698113203048706,1.0],"metallicFactor":0.0,"roughnessFactor":0.9,"baseColorTexture":{"index":0}}}],"accessors":[{"bufferView":0,"componentType":5126,"count":316,"type":"VEC3","min":[-0.2705593705177307,-1.0033909347839653e-05,-0.20839102566242218],"max":[0.2705593705177307,0.903208315372467,0.2083912044763565]},{"bufferView":1,"componentType":5126,"count":316,"type":"VEC3"},{"bufferView":2,"componentType":5126,"count":316,"type":"VEC2"},{"bufferView":3,"componentType":5125,"count":1356,"type":"SCALAR"}],"bufferViews":[{"buffer":0,"byteOffset":0,"byteLength":3792},{"buffer":0,"byteOffset":3792,"byteLength":3792},{"buffer":0,"byteOffset":7584,"byteLength":2528},{"buffer":0,"byteOffset":10112,"byteLength":5424}],"images":[{"uri":"do2022_deco_01_D.png"}],"textures":[{"source":0}],"buffers":[{"uri":"furn_do2022_deco_01.bin","byteLength":15536}]}