{"asset":{"version":"2.0","generator":"yuntu-dorm-m1"},"scenes":[{"nodes":[0]}],"nodes":[{"name":"syp2017_deco_003","translation":[0.0,0.0,-0.0],"rotation":[-0.0,-0.0,0.0,1.0],"scale":[1.0,1.0,1.0],"children":[1]},{"name":"syp2017_deco_003_syp2017_deco_003","translation":[0.0,0.0,-0.0],"rotation":[0.0,0.0,-0.0,1.0],"scale":[1.0,1.2000000476837158,1.0],"mesh":0,"extras":{"aabb":[-0.8883801102638245,0.010868835262954235,-0.37515366077423096,0.8915089964866638,1.2199660539627075,0.3747980296611786]}}],"meshes":[{"name":"syp2017_deco_003","primitives":[{"attributes":{"POSITION":0,"NORMAL":1,"TEXCOORD_0":2},"indices":3,"mode":4,"material":0}]}],"materials":[{"name":"syp2017_deco_003_D","pbrMetallicRoughness":{"baseColorFactor":[0.75,0.75,0.75,1.0],"metallicFactor":0.0,"roughnessFactor":0.9,"baseColorTexture":{"index":0}}}],"accessors":[{"bufferView":0,"componentType":5126,"count":58,"type":"VEC3","min":[-0.8883801102638245,0.010868835262954235,-0.37515366077423096],"max":[0.8915089964866638,1.2199660539627075,0.3747980296611786]},{"bufferView":1,"componentType":5126,"count":58,"type":"VEC3"},{"bufferView":2,"componentType":5126,"count":58,"type":"VEC2"},{"bufferView":3,"componentType":5125,"count":204,"type":"SCALAR"}],"bufferViews":[{"buffer":0,"byteOffset":0,"byteLength":696},{"buffer":0,"byteOffset":696,"byteLength":696},{"buffer":0,"byteOffset":1392,"byteLength":464},{"buffer":0,"byteOffset":1856,"byteLength":816}],"images":[{"uri":"syp2017_deco_003_D.png"}],"textures":[{"source":0}],"buffers":[{"uri":"furn_syp2017_deco_003.bin","byteLength":2672}]}