{"asset":{"version":"2.0","generator":"yuntu-dorm-m1"},"scenes":[{"nodes":[0]}],"nodes":[{"name":"sd2016_tree_001","translation":[0.0,0.0,-0.0],"rotation":[-0.0,-0.0,0.0,1.0],"scale":[1.0,1.0,1.0],"mesh":0,"extras":{"aabb":[-0.5385684370994568,-0.0005481662228703499,-0.5521770715713501,0.5543763041496277,1.6512120962142944,0.493976891040802]}}],"meshes":[{"name":"sd2016_tree_001","primitives":[{"attributes":{"POSITION":0,"NORMAL":1,"TEXCOORD_0":2},"indices":3,"mode":4,"material":0},{"attributes":{"POSITION":0,"NORMAL":1,"TEXCOORD_0":2},"indices":4,"mode":4,"material":1}]}],"materials":[{"name":"sd2016_tree_001_b_D","pbrMetallicRoughness":{"baseColorFactor":[0.75,0.75,0.75,1.0],"metallicFactor":0.0,"roughnessFactor":0.9,"baseColorTexture":{"index":0}},"alphaMode":"BLEND","doubleSided":true},{"name":"sd2016_tree_001_a_T","pbrMetallicRoughness":{"baseColorFactor":[0.75,0.75,0.75,1.0],"metallicFactor":0.0,"roughnessFactor":0.9,"baseColorTexture":{"index":1}},"alphaMode":"BLEND","doubleSided":true}],"accessors":[{"bufferView":0,"componentType":5126,"count":2693,"type":"VEC3","min":[-0.5385684370994568,-0.0005481662228703499,-0.5521770715713501],"max":[0.5543763041496277,1.6512120962142944,0.493976891040802]},{"bufferView":1,"componentType":5126,"count":2693,"type":"VEC3"},{"bufferView":2,"componentType":5126,"count":2693,"type":"VEC2"},{"bufferView":3,"componentType":5125,"count":6750,"type":"SCALAR"},{"bufferView":4,"componentType":5125,"count":462,"type":"SCALAR"}],"bufferViews":[{"buffer":0,"byteOffset":0,"byteLength":32316},{"buffer":0,"byteOffset":32316,"byteLength":32316},{"buffer":0,"byteOffset":64632,"byteLength":21544},{"buffer":0,"byteOffset":86176,"byteLength":27000},{"buffer":0,"byteOffset":113176,"byteLength":1848}],"images":[{"uri":"sd2016_tree_001_b_T.png"},{"uri":"sd2016_tree_001_a_T.png"}],"textures":[{"source":0},{"source":1}],"buffers":[{"uri":"furn_sd2016_tree_001.bin","byteLength":115024}]}