{"asset":{"version":"2.0","generator":"yuntu-dorm-m1"},"scenes":[{"nodes":[0]}],"nodes":[{"name":"xn2018_deco_004","translation":[0.0,0.0,-0.0],"rotation":[-0.0,-0.0,0.0,1.0],"scale":[1.0,1.0,1.0],"mesh":0,"extras":{"aabb":[-0.8477489948272705,-0.0004150009190198034,-0.4414159953594208,0.8477489948272705,1.6900908946990967,0.380146324634552]}}],"meshes":[{"name":"xn2018_deco_004","primitives":[{"attributes":{"POSITION":0,"NORMAL":1,"TEXCOORD_0":2},"indices":3,"mode":4,"material":0},{"attributes":{"POSITION":0,"NORMAL":1,"TEXCOORD_0":2},"indices":4,"mode":4,"material":1}]}],"materials":[{"name":"xn2018_deco_004_D","pbrMetallicRoughness":{"baseColorFactor":[0.699999988079071,0.699999988079071,0.699999988079071,1.0],"metallicFactor":0.0,"roughnessFactor":0.9,"baseColorTexture":{"index":0}}},{"name":"xn2018_deco_004_T","pbrMetallicRoughness":{"baseColorFactor":[1.0,1.0,1.0,1.0],"metallicFactor":0.0,"roughnessFactor":0.9,"baseColorTexture":{"index":0}},"alphaMode":"BLEND","doubleSided":true}],"accessors":[{"bufferView":0,"componentType":5126,"count":3838,"type":"VEC3","min":[-0.8477489948272705,-0.0004150009190198034,-0.4414159953594208],"max":[0.8477489948272705,1.6900908946990967,0.380146324634552]},{"bufferView":1,"componentType":5126,"count":3838,"type":"VEC3"},{"bufferView":2,"componentType":5126,"count":3838,"type":"VEC2"},{"bufferView":3,"componentType":5125,"count":8718,"type":"SCALAR"},{"bufferView":4,"componentType":5125,"count":1272,"type":"SCALAR"}],"bufferViews":[{"buffer":0,"byteOffset":0,"byteLength":46056},{"buffer":0,"byteOffset":46056,"byteLength":46056},{"buffer":0,"byteOffset":92112,"byteLength":30704},{"buffer":0,"byteOffset":122816,"byteLength":34872},{"buffer":0,"byteOffset":157688,"byteLength":5088}],"images":[{"uri":"xn2018_deco_004_T.png"}],"textures":[{"source":0}],"buffers":[{"uri":"furn_xn2018_deco_004.bin","byteLength":162776}]}