{"asset":{"version":"2.0","generator":"yuntu-dorm-m1"},"scenes":[{"nodes":[0]}],"nodes":[{"name":"etj2018_deco_009","translation":[0.0,0.0,-0.0],"rotation":[-0.0,-0.0,0.0,1.0],"scale":[1.0,1.0,1.0],"children":[1]},{"name":"etj2018_deco_009_etj2018_deco_009","translation":[0.0,0.0,-0.0],"rotation":[0.0,0.0,-0.0,1.0],"scale":[1.0,1.0,1.0],"children":[2,3]},{"name":"etj2018_deco_009_etj2018_deco_009_etj2018_deco_009","translation":[-0.0,0.0,-0.0],"rotation":[0.7071067811865475,-0.0,-0.0,0.7071067811865475],"scale":[1.0,1.0,1.0],"skin":0,"mesh":0,"extras":{"aabb":[-1.7125707864761353,-1.695456862449646,-2.239043712615967,1.7163872718811035,1.7095104455947876,0.00016804938786663115]}},{"name":"etj2018_deco_009_etj2018_deco_009_root","translation":[-0.0,0.0,2.4796197095611205e-08],"rotation":[-2.185569414336896e-08,2.3284302264059415e-10,5.088945822963009e-18,0.9999999999999998],"scale":[1.0,1.0,1.0],"children":[4]},{"name":"etj2018_deco_009_etj2018_deco_009_root_Bone001","translation":[1.1914078404406433e-17,1.0658140401126792e-15,-2.5583926088756925e-08],"rotation":[6.590987708497489e-07,-6.590987140063291e-07,-0.707106721581592,0.7071068407908836],"scale":[1.0,1.0,1.0],"children":[5,8,11,12,13,14,15,16,17,18,19]},{"name":"etj2018_deco_009_etj2018_deco_009_root_Bone001_Bone002","translation":[0.012774161994457245,0.6202788352966309,-0.30339348316192627],"rotation":[-3.3379125075272738e-06,-2.0604051037480335e-08,0.0061726181352004155,0.9999809492056411],"scale":[1.0,1.0,1.0],"children":[6,7]},{"name":"etj2018_deco_009_etj2018_deco_009_root_Bone001_Bone002_bind_path","translation":[-0.0,0.0,1.907348590179936e-08],"rotation":[1.6754356275625062e-06,-1.696247821678232e-06,0.7027286712055789,0.7114579500293442],"scale":[1.0,1.0,1.0]},{"name":"etj2018_deco_009_etj2018_deco_009_root_Bone001_Bone002_Bone006","translation":[-0.42120885848999023,0.08390235900878906,0.027572760358452797],"rotation":[2.0625714203261725e-06,1.415932735385466e-06,-0.5049752018742366,0.8631338514308282],"scale":[1.0,1.0,1.0]},{"name":"etj2018_deco_009_etj2018_deco_009_root_Bone001_Bone004","translation":[0.021676864475011826,-0.7397410273551941,0.22398975491523743],"rotation":[0.7071004520114867,-0.002840018136793865,0.0028400130145196972,0.7071017037090288],"scale":[1.0,1.0,1.0],"children":[9,10]},{"name":"etj2018_deco_009_etj2018_deco_009_root_Bone001_Bone004_bind_path_01","translation":[2.38418573772492e-09,5.7220457705398076e-08,-0.0],"rotation":[-0.4979878047768173,0.5020041445394242,0.49798777497449503,0.5020041445394242],"scale":[1.0,1.0,1.0]},{"name":"etj2018_deco_009_etj2018_deco_009_root_Bone001_Bone004_Bone005","translation":[-0.4451073110103607,-0.006270767189562321,0.007328274194151163],"rotation":[1.0085627463810393e-07,-2.1703618472961768e-07,0.49869646840180126,0.8667766911976315],"scale":[1.0,1.0,1.0]},{"name":"etj2018_deco_009_etj2018_deco_009_root_Bone001_Bone007","translation":[3.0517577442878974e-07,1.5419970750808716,-0.5934867858886719],"rotation":[-1.0188975920749896e-06,0.0,-0.0,0.9999999999994811],"scale":[1.0,1.0,1.0]},{"name":"etj2018_deco_009_etj2018_deco_009_root_Bone001_Bone008","translation":[1.5258788721439487e-07,1.5419992208480835,0.6595733761787415],"rotation":[-1.0188975920749896e-06,0.0,-0.0,0.9999999999994811],"scale":[1.0,1.0,1.0]},{"name":"etj2018_deco_009_etj2018_deco_009_root_Bone001_Bone009","translation":[-1.519659917903482e-07,-1.5352686643600464,-0.6077084541320801],"rotation":[-1.0188975920749896e-06,0.0,-0.0,0.9999999999994811],"scale":[1.0,1.0,1.0]},{"name":"etj2018_deco_009_etj2018_deco_009_root_Bone001_Bone010","translation":[-3.055728257095325e-07,-1.535266399383545,0.6686626076698303],"rotation":[-1.0188975920749896e-06,0.0,-0.0,0.9999999999994811],"scale":[1.0,1.0,1.0]},{"name":"etj2018_deco_009_etj2018_deco_009_root_Bone001_Bone011","translation":[6.611679737034137e-08,0.011239128187298775,-1.489702582359314],"rotation":[-1.0188975920749896e-06,0.0,-0.0,0.9999999999994811],"scale":[1.0,1.0,1.0]},{"name":"etj2018_deco_009_etj2018_deco_009_root_Bone001_Bone012","translation":[-6.446996536624283e-08,-5.374908505473286e-05,1.5092747211456299],"rotation":[-1.0188975920749896e-06,0.0,-0.0,0.9999999999994811],"scale":[1.0,1.0,1.0]},{"name":"etj2018_deco_009_etj2018_deco_009_root_Bone001_Bone013","translation":[-1.2028019114040944e-07,-0.9405235052108765,-1.4897007942199707],"rotation":[-1.0188975920749896e-06,0.0,-0.0,0.9999999999994811],"scale":[1.0,1.0,1.0]},{"name":"etj2018_deco_009_etj2018_deco_009_root_Bone001_Bone014","translation":[-1.938169589266181e-07,-0.92359459400177,1.5092763900756836],"rotation":[-1.0188975920749896e-06,0.0,-0.0,0.9999999999994811],"scale":[1.0,1.0,1.0]},{"name":"etj2018_deco_009_etj2018_deco_009_root_Bone001_Bone015","translation":[7.629394360719743e-08,0.9381082653999329,1.5092730522155762],"rotation":[-1.0188975920749896e-06,0.0,-0.0,0.9999999999994811],"scale":[1.0,1.0,1.0]}],"meshes":[{"name":"etj2018_deco_009","primitives":[{"attributes":{"POSITION":1,"NORMAL":2,"TEXCOORD_0":3,"JOINTS_0":4,"WEIGHTS_0":5},"indices":6,"mode":4,"material":0}]}],"materials":[{"name":"etj2018_deco_009_D","pbrMetallicRoughness":{"baseColorFactor":[0.9150943160057068,0.9150943160057068,0.9150943160057068,1.0],"metallicFactor":0.0,"roughnessFactor":0.9,"baseColorTexture":{"index":0}}}],"skins":[{"joints":[4,17,15,18,8,16,19,14,13,12,5,11,10,7],"inverseBindMatrices":0,"skeleton":4}],"accessors":[{"bufferView":0,"componentType":5126,"count":14,"type":"MAT4"},{"bufferView":1,"componentType":5126,"count":5449,"type":"VEC3","min":[-1.7125707864761353,-1.695456862449646,-2.239043712615967],"max":[1.7163872718811035,1.7095104455947876,0.00016804938786663115]},{"bufferView":2,"componentType":5126,"count":5449,"type":"VEC3"},{"bufferView":3,"componentType":5126,"count":5449,"type":"VEC2"},{"bufferView":4,"componentType":5123,"count":5449,"type":"VEC4"},{"bufferView":5,"componentType":5126,"count":5449,"type":"VEC4"},{"bufferView":6,"componentType":5125,"count":16116,"type":"SCALAR"}],"bufferViews":[{"buffer":0,"byteOffset":0,"byteLength":896},{"buffer":0,"byteOffset":896,"byteLength":65388},{"buffer":0,"byteOffset":66284,"byteLength":65388},{"buffer":0,"byteOffset":131672,"byteLength":43592},{"buffer":0,"byteOffset":175264,"byteLength":43592},{"buffer":0,"byteOffset":218856,"byteLength":87184},{"buffer":0,"byteOffset":306040,"byteLength":64464}],"images":[{"uri":"etj2018_deco_009_D.png"}],"textures":[{"source":0}],"buffers":[{"uri":"furn_etj2018_deco_009.bin","byteLength":370504}]}