{"asset":{"version":"2.0","generator":"yuntu-dorm-m1"},"scenes":[{"nodes":[0]}],"nodes":[{"name":"etj2018_deco_005","translation":[0.0,0.0,-0.0],"rotation":[-0.0,-0.0,0.0,1.0],"scale":[1.0,1.0,1.0],"children":[1]},{"name":"etj2018_deco_005_etj2018_deco_005","translation":[0.0,0.0,-0.0],"rotation":[0.0,0.0,-0.0,1.0],"scale":[1.0,1.0,1.0],"children":[2,3]},{"name":"etj2018_deco_005_etj2018_deco_005_etj2018_deco_005","translation":[-0.0,0.0,-0.0],"rotation":[0.7071067811865475,-0.0,-0.0,0.7071067811865475],"scale":[1.0,1.0,1.0],"skin":0,"mesh":0,"extras":{"aabb":[-3.503298282623291,-1.8249297142028809,-4.167065143585205,3.503298282623291,1.8249297142028809,0.16940172016620636]}},{"name":"etj2018_deco_005_etj2018_deco_005_root","translation":[-0.0,0.0,1.0252580118219612e-08],"rotation":[-6.657902673623525e-08,2.328544024265961e-10,1.5503220872538274e-17,0.9999999999999978],"scale":[1.0,1.0,1.0],"children":[4]},{"name":"etj2018_deco_005_etj2018_deco_005_root_Bone001","translation":[-1.7382552063201635e-17,-9.094945967408428e-15,3.732493070174314e-08],"rotation":[-1.9118980242372432e-06,1.9118980242372432e-06,-0.7071067811839629,0.7071067811839629],"scale":[1.0,1.0,1.0],"children":[5,7]},{"name":"etj2018_deco_005_etj2018_deco_005_root_Bone001_Bone002","translation":[-0.3705327808856964,1.8078994750976562,-0.7700269818305969],"rotation":[-4.235164736271502e-22,0.0,-0.0,1.0],"scale":[1.0,1.0,1.0],"children":[6]},{"name":"etj2018_deco_005_etj2018_deco_005_root_Bone001_Bone002_bind_path","translation":[-0.25123998522758484,-0.013699950650334358,0.0031397247221320868],"rotation":[-0.7071067811865475,0.0,-0.0,0.7071067811865475],"scale":[100.0,100.0,100.0]},{"name":"etj2018_deco_005_etj2018_deco_005_root_Bone001_Bone003","translation":[-0.3705327808856964,0.986623227596283,-0.7700313925743103],"rotation":[-4.235164736271502e-22,0.0,-0.0,1.0],"scale":[1.0,1.0000001192092896,1.0],"children":[8]},{"name":"etj2018_deco_005_etj2018_deco_005_root_Bone001_Bone003_bind_path_01","translation":[-0.2506200075149536,-0.05856994539499283,0.0038800048641860485],"rotation":[-0.7071067215793145,-1.911898412771871e-06,-1.911898185398192e-06,0.7071068407886061],"scale":[99.99998474121094,100.0,100.0]}],"meshes":[{"name":"etj2018_deco_005","primitives":[{"attributes":{"POSITION":1,"NORMAL":2,"TEXCOORD_0":3,"JOINTS_0":4,"WEIGHTS_0":5},"indices":6,"mode":4,"material":0},{"attributes":{"POSITION":1,"NORMAL":2,"TEXCOORD_0":3,"JOINTS_0":4,"WEIGHTS_0":5},"indices":7,"mode":4,"material":1},{"attributes":{"POSITION":1,"NORMAL":2,"TEXCOORD_0":3,"JOINTS_0":4,"WEIGHTS_0":5},"indices":8,"mode":4,"material":2}]}],"materials":[{"name":"etj2018_deco_005_b_D","pbrMetallicRoughness":{"baseColorFactor":[0.7924528121948242,0.7924528121948242,0.7924528121948242,1.0],"metallicFactor":0.0,"roughnessFactor":0.9,"baseColorTexture":{"index":0}},"alphaMode":"MASK","alphaCutoff":0.5,"doubleSided":true},{"name":"etj2018_deco_005_a_D","pbrMetallicRoughness":{"baseColorFactor":[0.7169811725616455,0.7169811725616455,0.7169811725616455,1.0],"metallicFactor":0.0,"roughnessFactor":0.9,"baseColorTexture":{"index":1}}},{"name":"etj2018_deco_005_a_T","pbrMetallicRoughness":{"baseColorFactor":[1.0,1.0,1.0,1.0],"metallicFactor":0.0,"roughnessFactor":0.9,"baseColorTexture":{"index":1}},"alphaMode":"BLEND","doubleSided":true}],"skins":[{"joints":[5,7,4],"inverseBindMatrices":0,"skeleton":5}],"accessors":[{"bufferView":0,"componentType":5126,"count":3,"type":"MAT4"},{"bufferView":1,"componentType":5126,"count":10346,"type":"VEC3","min":[-3.503298282623291,-1.8249297142028809,-4.167065143585205],"max":[3.503298282623291,1.8249297142028809,0.16940172016620636]},{"bufferView":2,"componentType":5126,"count":10346,"type":"VEC3"},{"bufferView":3,"componentType":5126,"count":10346,"type":"VEC2"},{"bufferView":4,"componentType":5123,"count":10346,"type":"VEC4"},{"bufferView":5,"componentType":5126,"count":10346,"type":"VEC4"},{"bufferView":6,"componentType":5125,"count":7122,"type":"SCALAR"},{"bufferView":7,"componentType":5125,"count":21552,"type":"SCALAR"},{"bufferView":8,"componentType":5125,"count":36,"type":"SCALAR"}],"bufferViews":[{"buffer":0,"byteOffset":0,"byteLength":192},{"buffer":0,"byteOffset":192,"byteLength":124152},{"buffer":0,"byteOffset":124344,"byteLength":124152},{"buffer":0,"byteOffset":248496,"byteLength":82768},{"buffer":0,"byteOffset":331264,"byteLength":82768},{"buffer":0,"byteOffset":414032,"byteLength":165536},{"buffer":0,"byteOffset":579568,"byteLength":28488},{"buffer":0,"byteOffset":608056,"byteLength":86208},{"buffer":0,"byteOffset":694264,"byteLength":144}],"images":[{"uri":"etj2018_deco_005_b_D.png"},{"uri":"etj2018_deco_005_a_T.png"}],"textures":[{"source":0},{"source":1}],"buffers":[{"uri":"furn_etj2018_deco_005.bin","byteLength":694408}]}