{"asset":{"version":"2.0","generator":"yuntu-dorm-m1"},"scenes":[{"nodes":[0]}],"nodes":[{"name":"we2021_bed_001","translation":[0.0,0.0,-0.0],"rotation":[-0.0,-0.0,0.0,1.0],"scale":[1.0,1.0,1.0],"mesh":0,"extras":{"aabb":[-0.7373916506767273,2.136230477844947e-06,-0.31298506259918213,0.7373926639556885,0.499379426240921,0.29815033078193665]}}],"meshes":[{"name":"we2021_bed_001","primitives":[{"attributes":{"POSITION":0,"NORMAL":1,"TEXCOORD_0":2},"indices":3,"mode":4,"material":0}]}],"materials":[{"name":"we2021_bed_001_D","pbrMetallicRoughness":{"baseColorFactor":[0.699999988079071,0.699999988079071,0.699999988079071,1.0],"metallicFactor":0.0,"roughnessFactor":0.9,"baseColorTexture":{"index":0}}}],"accessors":[{"bufferView":0,"componentType":5126,"count":443,"type":"VEC3","min":[-0.7373916506767273,2.136230477844947e-06,-0.31298506259918213],"max":[0.7373926639556885,0.499379426240921,0.29815033078193665]},{"bufferView":1,"componentType":5126,"count":443,"type":"VEC3"},{"bufferView":2,"componentType":5126,"count":443,"type":"VEC2"},{"bufferView":3,"componentType":5125,"count":1452,"type":"SCALAR"}],"bufferViews":[{"buffer":0,"byteOffset":0,"byteLength":5316},{"buffer":0,"byteOffset":5316,"byteLength":5316},{"buffer":0,"byteOffset":10632,"byteLength":3544},{"buffer":0,"byteOffset":14176,"byteLength":5808}],"images":[{"uri":"we2021_bed_001_D.png"}],"textures":[{"source":0}],"buffers":[{"uri":"furn_we2021_bed_001.bin","byteLength":19984}]}