{"asset":{"version":"2.0","generator":"yuntu-dorm-m1"},"scenes":[{"nodes":[0]}],"nodes":[{"name":"ab2024_sofa","translation":[0.0,0.0,-0.0],"rotation":[-0.0,-0.0,0.0,1.0],"scale":[1.0,1.0,1.0],"mesh":0,"extras":{"aabb":[-1.0129115581512451,-8.515288209309801e-05,-0.42214611172676086,1.0129115581512451,0.6260465383529663,0.4221458435058594]}}],"meshes":[{"name":"ab2024_sofa","primitives":[{"attributes":{"POSITION":0,"NORMAL":1,"TEXCOORD_0":2},"indices":3,"mode":4,"material":0}]}],"materials":[{"name":"ab2024_sofa_D","pbrMetallicRoughness":{"baseColorFactor":[0.650943398475647,0.6417319178581238,0.6417319178581238,1.0],"metallicFactor":0.0,"roughnessFactor":0.9,"baseColorTexture":{"index":0}}}],"accessors":[{"bufferView":0,"componentType":5126,"count":2453,"type":"VEC3","min":[-1.0129115581512451,-8.515288209309801e-05,-0.42214611172676086],"max":[1.0129115581512451,0.6260465383529663,0.4221458435058594]},{"bufferView":1,"componentType":5126,"count":2453,"type":"VEC3"},{"bufferView":2,"componentType":5126,"count":2453,"type":"VEC2"},{"bufferView":3,"componentType":5125,"count":7890,"type":"SCALAR"}],"bufferViews":[{"buffer":0,"byteOffset":0,"byteLength":29436},{"buffer":0,"byteOffset":29436,"byteLength":29436},{"buffer":0,"byteOffset":58872,"byteLength":19624},{"buffer":0,"byteOffset":78496,"byteLength":31560}],"images":[{"uri":"ab2024_sofa_D.png"}],"textures":[{"source":0}],"buffers":[{"uri":"furn_ab2024_sofa.bin","byteLength":110056}]}