{"asset":{"version":"2.0","generator":"yuntu-dorm-m1"},"scenes":[{"nodes":[0]}],"nodes":[{"name":"syp2017_chair_001","translation":[0.0,0.0,-0.0],"rotation":[0.0,0.0,-0.0,1.0],"scale":[1.0,1.0,1.0],"mesh":0,"extras":{"aabb":[-0.13587640225887299,-0.0001684570306679234,-0.14049310982227325,0.1360468864440918,0.259084552526474,0.12401264160871506]}}],"meshes":[{"name":"syp2017_chair_001","primitives":[{"attributes":{"POSITION":0,"NORMAL":1,"TEXCOORD_0":2},"indices":3,"mode":4,"material":0}]}],"materials":[{"name":"syp2017_chair_001_D","pbrMetallicRoughness":{"baseColorFactor":[0.75,0.75,0.75,1.0],"metallicFactor":0.0,"roughnessFactor":0.9,"baseColorTexture":{"index":0}}}],"accessors":[{"bufferView":0,"componentType":5126,"count":725,"type":"VEC3","min":[-0.13587640225887299,-0.0001684570306679234,-0.14049310982227325],"max":[0.1360468864440918,0.259084552526474,0.12401264160871506]},{"bufferView":1,"componentType":5126,"count":725,"type":"VEC3"},{"bufferView":2,"componentType":5126,"count":725,"type":"VEC2"},{"bufferView":3,"componentType":5125,"count":1644,"type":"SCALAR"}],"bufferViews":[{"buffer":0,"byteOffset":0,"byteLength":8700},{"buffer":0,"byteOffset":8700,"byteLength":8700},{"buffer":0,"byteOffset":17400,"byteLength":5800},{"buffer":0,"byteOffset":23200,"byteLength":6576}],"images":[{"uri":"syp2017_chair_001_D.png"}],"textures":[{"source":0}],"buffers":[{"uri":"furn_syp2017_chair_001.bin","byteLength":29776}]}