{"asset":{"version":"2.0","generator":"yuntu-dorm-m1"},"scenes":[{"nodes":[0]}],"nodes":[{"name":"etj2018_deco_004","translation":[0.0,0.0,-0.0],"rotation":[-0.0,-0.0,0.0,1.0],"scale":[1.0,1.0,1.0],"children":[1]},{"name":"etj2018_deco_004_etj2018_deco_004","translation":[0.0,0.0,-0.0],"rotation":[0.0,0.0,-0.0,1.0],"scale":[1.0,1.0,1.0],"children":[2,3]},{"name":"etj2018_deco_004_etj2018_deco_004_etj2018_deco_004","translation":[-0.0,3.4464262554934066e-09,-0.0],"rotation":[0.7071067811865475,-0.0,-0.0,0.7071067811865475],"scale":[1.0,1.0,1.0],"skin":0,"mesh":0,"extras":{"aabb":[-0.6722241044044495,-0.5320340394973755,-1.1637436151504517,0.6722241044044495,0.689723789691925,0.0003144570509903133]}},{"name":"etj2018_deco_004_etj2018_deco_004_root","translation":[-0.0,0.0,-5.085510346169997e-10],"rotation":[1.3281047129291216e-35,4.657209062841616e-10,-2.851718305678358e-26,1.0],"scale":[1.0,1.0,1.0],"children":[4]},{"name":"etj2018_deco_004_etj2018_deco_004_root_Bone007","translation":[-2.9885994172510262e-18,2.1175823208040965e-24,3.2085736290099476e-09],"rotation":[1.8686907309054467e-05,-1.8677726869591302e-05,-0.7081022218969301,0.7061099366575808],"scale":[1.0,1.0,1.0],"children":[5,8,11]},{"name":"etj2018_deco_004_etj2018_deco_004_root_Bone007_Bone001","translation":[-0.18970641493797302,-0.0005259132012724876,0.16174054145812988],"rotation":[0.6531042514572691,-0.27097660543536206,0.27283025029967817,0.6523727236454504],"scale":[1.0,1.0,1.0],"children":[6]},{"name":"etj2018_deco_004_etj2018_deco_004_root_Bone007_Bone001_Bone002","translation":[-0.3612745702266693,-1.907348590179936e-08,3.057468234146654e-08],"rotation":[-2.3320861176575383e-08,2.562615485988112e-08,-0.7395318584953844,0.6731215568308312],"scale":[1.000000238418579,1.000000238418579,1.0],"children":[7]},{"name":"etj2018_deco_004_etj2018_deco_004_root_Bone007_Bone001_Bone002_Bone003","translation":[-0.3699928820133209,-3.814697180359872e-08,-6.167388733047119e-08],"rotation":[7.105427357600983e-15,5.293956425210342e-22,7.450581307466544e-08,0.9999999999999973],"scale":[1.0,1.0,1.0]},{"name":"etj2018_deco_004_etj2018_deco_004_root_Bone007_Bone004","translation":[-0.1835755854845047,-0.0005257606389932334,-0.16217969357967377],"rotation":[0.6522384865212769,0.27273827721128746,-0.2710185044000024,0.6532593352697218],"scale":[1.0,1.0,0.9999999403953552],"children":[9]},{"name":"etj2018_deco_004_etj2018_deco_004_root_Bone007_Bone004_Bone005","translation":[-0.3684998154640198,-1.5258788721439487e-07,-3.118067937180058e-08],"rotation":[-8.467418365532673e-08,3.1257872567235743e-08,0.7457108457688744,0.6662697160329757],"scale":[1.0000001192092896,1.000000238418579,1.0],"children":[10]},{"name":"etj2018_deco_004_etj2018_deco_004_root_Bone007_Bone004_Bone005_Bone006","translation":[-0.36704221367836,1.9073485191256623e-07,9.313225537987968e-12],"rotation":[-5.4569690779993074e-12,4.092726157978177e-12,1.4901162970204496e-08,1.0],"scale":[0.9999998807907104,0.9999998807907104,1.0]},{"name":"etj2018_deco_004_etj2018_deco_004_root_Bone007_Bone008","translation":[-0.7095410823822021,-0.001999028492718935,-0.00040529249235987663],"rotation":[0.7070851221918973,0.0020267557985803064,-3.467522350443585e-05,0.7071255341404603],"scale":[0.9999999403953552,1.0,0.9999999403953552],"children":[12,13,14]},{"name":"etj2018_deco_004_etj2018_deco_004_root_Bone007_Bone008_bind_path","translation":[-0.0,1.4454125896179448e-08,-1.5258787300354015e-07],"rotation":[-0.5007283069806884,0.4992706157943897,0.5007282473760438,0.49927070520135647],"scale":[1.0,1.0,1.0]},{"name":"etj2018_deco_004_etj2018_deco_004_root_Bone007_Bone008_Bone009","translation":[-0.08935195952653885,-0.14272966980934143,-0.4019896984100342],"rotation":[-0.0,-0.0,0.6512613813777371,0.7588534859417603],"scale":[1.0,1.0,1.0]},{"name":"etj2018_deco_004_etj2018_deco_004_root_Bone007_Bone008_Bone011","translation":[-0.08935203403234482,-0.14272969961166382,0.40107351541519165],"rotation":[-0.0,-0.0,0.6512613813777371,0.7588534859417603],"scale":[1.0,1.0,1.0]}],"meshes":[{"name":"etj2018_deco_004","primitives":[{"attributes":{"POSITION":1,"NORMAL":2,"TEXCOORD_0":3,"JOINTS_0":4,"WEIGHTS_0":5},"indices":6,"mode":4,"material":0}]}],"materials":[{"name":"etj2018_deco_004_D","pbrMetallicRoughness":{"baseColorFactor":[0.9528301954269409,0.9528301954269409,0.9528301954269409,1.0],"metallicFactor":0.0,"roughnessFactor":0.9,"baseColorTexture":{"index":0}}},{"name":"etj2018_deco_004_T","pbrMetallicRoughness":{"baseColorFactor":[0.8396226167678833,0.8396226167678833,0.8396226167678833,1.0],"metallicFactor":0.0,"roughnessFactor":0.9,"baseColorTexture":{"index":0}}}],"skins":[{"joints":[9,11,13,14,6,8,4,5],"inverseBindMatrices":0,"skeleton":9}],"accessors":[{"bufferView":0,"componentType":5126,"count":8,"type":"MAT4"},{"bufferView":1,"componentType":5126,"count":4026,"type":"VEC3","min":[-0.6722241044044495,-0.5320340394973755,-1.1637436151504517],"max":[0.6722241044044495,0.689723789691925,0.0003144570509903133]},{"bufferView":2,"componentType":5126,"count":4026,"type":"VEC3"},{"bufferView":3,"componentType":5126,"count":4026,"type":"VEC2"},{"bufferView":4,"componentType":5123,"count":4026,"type":"VEC4"},{"bufferView":5,"componentType":5126,"count":4026,"type":"VEC4"},{"bufferView":6,"componentType":5125,"count":10134,"type":"SCALAR"}],"bufferViews":[{"buffer":0,"byteOffset":0,"byteLength":512},{"buffer":0,"byteOffset":512,"byteLength":48312},{"buffer":0,"byteOffset":48824,"byteLength":48312},{"buffer":0,"byteOffset":97136,"byteLength":32208},{"buffer":0,"byteOffset":129344,"byteLength":32208},{"buffer":0,"byteOffset":161552,"byteLength":64416},{"buffer":0,"byteOffset":225968,"byteLength":40536}],"images":[{"uri":"etj2018_deco_004_T.png"}],"textures":[{"source":0}],"buffers":[{"uri":"furn_etj2018_deco_004.bin","byteLength":266504}]}