{"asset":{"version":"2.0","generator":"yuntu-dorm-m1"},"scenes":[{"nodes":[0]}],"nodes":[{"name":"we2021_sofa_002","translation":[0.0,0.0,-0.0],"rotation":[-0.0,-0.0,0.0,1.0],"scale":[1.0,1.0,1.0],"mesh":0,"extras":{"aabb":[-0.4160526990890503,0.0003155517624691129,-0.3378159701824188,0.41646674275398254,0.5085167288780212,0.3045971095561981]}}],"meshes":[{"name":"we2021_sofa_002","primitives":[{"attributes":{"POSITION":0,"NORMAL":1,"TEXCOORD_0":2},"indices":3,"mode":4,"material":0}]}],"materials":[{"name":"we2021_sofa_001_D","pbrMetallicRoughness":{"baseColorFactor":[0.6990000009536743,0.6990000009536743,0.6990000009536743,1.0],"metallicFactor":0.0,"roughnessFactor":0.9,"baseColorTexture":{"index":0}}}],"accessors":[{"bufferView":0,"componentType":5126,"count":1938,"type":"VEC3","min":[-0.4160526990890503,0.0003155517624691129,-0.3378159701824188],"max":[0.41646674275398254,0.5085167288780212,0.3045971095561981]},{"bufferView":1,"componentType":5126,"count":1938,"type":"VEC3"},{"bufferView":2,"componentType":5126,"count":1938,"type":"VEC2"},{"bufferView":3,"componentType":5125,"count":2994,"type":"SCALAR"}],"bufferViews":[{"buffer":0,"byteOffset":0,"byteLength":23256},{"buffer":0,"byteOffset":23256,"byteLength":23256},{"buffer":0,"byteOffset":46512,"byteLength":15504},{"buffer":0,"byteOffset":62016,"byteLength":11976}],"images":[{"uri":"we2021_sofa_001_D.png"}],"textures":[{"source":0}],"buffers":[{"uri":"furn_we2021_sofa_002.bin","byteLength":73992}]}