{"asset":{"version":"2.0","generator":"yuntu-dorm-m1"},"scenes":[{"nodes":[0]}],"nodes":[{"name":"syp2017_deco_002","translation":[0.0,0.0,-0.0],"rotation":[-0.0,-0.0,0.0,1.0],"scale":[1.0,1.0,1.0],"children":[1]},{"name":"syp2017_deco_002_syp2017_deco_002","translation":[0.0,0.0,-0.0],"rotation":[0.0,0.0,-0.0,1.0],"scale":[0.800000011920929,0.800000011920929,0.800000011920929],"mesh":0,"extras":{"aabb":[-0.40482744574546814,-0.00023383139341603965,-0.5232676863670349,0.41757476329803467,1.1877858638763428,0.4548839330673218]}}],"meshes":[{"name":"syp2017_deco_002","primitives":[{"attributes":{"POSITION":0,"NORMAL":1,"TEXCOORD_0":2},"indices":3,"mode":4,"material":0}]}],"materials":[{"name":"syp2017_deco_001_D","pbrMetallicRoughness":{"baseColorFactor":[0.75,0.75,0.75,1.0],"metallicFactor":0.0,"roughnessFactor":0.9,"baseColorTexture":{"index":0}}}],"accessors":[{"bufferView":0,"componentType":5126,"count":2046,"type":"VEC3","min":[-0.40482744574546814,-0.00023383139341603965,-0.5232676863670349],"max":[0.41757476329803467,1.1877858638763428,0.4548839330673218]},{"bufferView":1,"componentType":5126,"count":2046,"type":"VEC3"},{"bufferView":2,"componentType":5126,"count":2046,"type":"VEC2"},{"bufferView":3,"componentType":5125,"count":5088,"type":"SCALAR"}],"bufferViews":[{"buffer":0,"byteOffset":0,"byteLength":24552},{"buffer":0,"byteOffset":24552,"byteLength":24552},{"buffer":0,"byteOffset":49104,"byteLength":16368},{"buffer":0,"byteOffset":65472,"byteLength":20352}],"images":[{"uri":"syp2017_deco_001_D.png"}],"textures":[{"source":0}],"buffers":[{"uri":"furn_syp2017_deco_002.bin","byteLength":85824}]}