{"asset":{"version":"2.0","generator":"yuntu-dorm-m1"},"scenes":[{"nodes":[0]}],"nodes":[{"name":"syp2017_table_001","translation":[0.0,0.0,-0.0],"rotation":[-0.0,-0.0,0.0,1.0],"scale":[1.0,1.0,1.0],"mesh":0,"extras":{"aabb":[-0.5922659635543823,-0.0028069971594959497,-0.29906898736953735,0.5922079682350159,0.687080979347229,0.29906898736953735]}}],"meshes":[{"name":"syp2017_table_001","primitives":[{"attributes":{"POSITION":0,"NORMAL":1,"TEXCOORD_0":2},"indices":3,"mode":4,"material":0}]}],"materials":[{"name":"syp2017_table_001_D","pbrMetallicRoughness":{"baseColorFactor":[0.6359999775886536,0.6359999775886536,0.6359999775886536,1.0],"metallicFactor":0.0,"roughnessFactor":0.9,"baseColorTexture":{"index":0}}}],"accessors":[{"bufferView":0,"componentType":5126,"count":865,"type":"VEC3","min":[-0.5922659635543823,-0.0028069971594959497,-0.29906898736953735],"max":[0.5922079682350159,0.687080979347229,0.29906898736953735]},{"bufferView":1,"componentType":5126,"count":865,"type":"VEC3"},{"bufferView":2,"componentType":5126,"count":865,"type":"VEC2"},{"bufferView":3,"componentType":5125,"count":1854,"type":"SCALAR"}],"bufferViews":[{"buffer":0,"byteOffset":0,"byteLength":10380},{"buffer":0,"byteOffset":10380,"byteLength":10380},{"buffer":0,"byteOffset":20760,"byteLength":6920},{"buffer":0,"byteOffset":27680,"byteLength":7416}],"images":[{"uri":"syp2017_table_001_D.png"}],"textures":[{"source":0}],"buffers":[{"uri":"furn_syp2017_table_001.bin","byteLength":35096}]}