{"asset":{"version":"2.0","generator":"yuntu-dorm-m1"},"scenes":[{"nodes":[0]}],"nodes":[{"name":"do2022_deco_03","translation":[0.0,0.0,-0.0],"rotation":[-0.0,-0.0,0.0,1.0],"scale":[1.0,1.0,1.0],"mesh":0,"extras":{"aabb":[-0.4782697856426239,-0.00012819666881114244,-0.3840966820716858,0.4782697856426239,0.9864099025726318,0.38409653306007385]}}],"meshes":[{"name":"do2022_deco_03","primitives":[{"attributes":{"POSITION":0,"NORMAL":1,"TEXCOORD_0":2},"indices":3,"mode":4,"material":0},{"attributes":{"POSITION":0,"NORMAL":1,"TEXCOORD_0":2},"indices":4,"mode":4,"material":1}]}],"materials":[{"name":"do2022_deco_03_D","pbrMetallicRoughness":{"baseColorFactor":[0.6553043723106384,0.6638661623001099,0.698113203048706,1.0],"metallicFactor":0.0,"roughnessFactor":0.9,"baseColorTexture":{"index":0}}},{"name":"do2022_deco_03_T","pbrMetallicRoughness":{"baseColorFactor":[0.6603773832321167,0.6603773832321167,0.6603773832321167,1.0],"metallicFactor":0.0,"roughnessFactor":0.9,"baseColorTexture":{"index":0}},"alphaMode":"BLEND","doubleSided":true}],"accessors":[{"bufferView":0,"componentType":5126,"count":2628,"type":"VEC3","min":[-0.4782697856426239,-0.00012819666881114244,-0.3840966820716858],"max":[0.4782697856426239,0.9864099025726318,0.38409653306007385]},{"bufferView":1,"componentType":5126,"count":2628,"type":"VEC3"},{"bufferView":2,"componentType":5126,"count":2628,"type":"VEC2"},{"bufferView":3,"componentType":5125,"count":7374,"type":"SCALAR"},{"bufferView":4,"componentType":5125,"count":186,"type":"SCALAR"}],"bufferViews":[{"buffer":0,"byteOffset":0,"byteLength":31536},{"buffer":0,"byteOffset":31536,"byteLength":31536},{"buffer":0,"byteOffset":63072,"byteLength":21024},{"buffer":0,"byteOffset":84096,"byteLength":29496},{"buffer":0,"byteOffset":113592,"byteLength":744}],"images":[{"uri":"do2022_deco_03_T.png"}],"textures":[{"source":0}],"buffers":[{"uri":"furn_do2022_deco_03.bin","byteLength":114336}]}