{"asset":{"version":"2.0","generator":"yuntu-dorm-m1"},"scenes":[{"nodes":[0]}],"nodes":[{"name":"anniversary1_bar","translation":[0.0,0.0,-0.0],"rotation":[-0.0,-0.0,0.0,1.0],"scale":[1.0,1.0,1.0],"children":[1]},{"name":"anniversary1_bar_anniversary1_bar","translation":[0.0,0.0,-0.0],"rotation":[0.0,0.0,-0.0,1.0],"scale":[1.0,1.0,1.0],"children":[2,3]},{"name":"anniversary1_bar_anniversary1_bar_anniversary1_bar","translation":[-0.0,0.0,-0.0],"rotation":[0.7071067811865475,-0.0,-0.0,0.7071067811865475],"scale":[1.0,1.0,1.0],"skin":0,"mesh":0,"extras":{"aabb":[-1.2481021881103516,-1.0961145162582397,-1.7103379964828491,1.2064905166625977,0.9012616276741028,-0.00027025697636418045]}},{"name":"anniversary1_bar_anniversary1_bar_root","translation":[-0.0,0.0,-0.0],"rotation":[-8.146034247147299e-08,2.328544856933227e-10,-9.313225746154754e-10,0.9999999999999967],"scale":[1.0,1.0,1.0],"children":[4,5]},{"name":"anniversary1_bar_anniversary1_bar_root_bind_path","translation":[0.11191586405038834,0.024769656360149384,-0.3725970387458801],"rotation":[-0.0,1.2953833681037625e-17,-0.0,1.0],"scale":[1.0,1.0,1.0]},{"name":"anniversary1_bar_anniversary1_bar_root_Bone001","translation":[0.11191586405038834,0.024769578129053116,0.09495814889669418],"rotation":[8.429370981150155e-07,-7.811197085157118e-07,-0.7071067215814323,0.7071068407907238],"scale":[1.0,1.0,1.0]}],"meshes":[{"name":"anniversary1_bar","primitives":[{"attributes":{"POSITION":1,"NORMAL":2,"TEXCOORD_0":3,"JOINTS_0":4,"WEIGHTS_0":5},"indices":6,"mode":4,"material":0},{"attributes":{"POSITION":1,"NORMAL":2,"TEXCOORD_0":3,"JOINTS_0":4,"WEIGHTS_0":5},"indices":7,"mode":4,"material":1},{"attributes":{"POSITION":1,"NORMAL":2,"TEXCOORD_0":3,"JOINTS_0":4,"WEIGHTS_0":5},"indices":8,"mode":4,"material":2}]}],"materials":[{"name":"anniversary1_bar_01_D","pbrMetallicRoughness":{"baseColorFactor":[0.6698113083839417,0.6413758993148804,0.661686897277832,1.0],"metallicFactor":0.0,"roughnessFactor":0.9,"baseColorTexture":{"index":0}}},{"name":"anniversary1_bar_03_D","pbrMetallicRoughness":{"baseColorFactor":[0.6698113083839417,0.6413758993148804,0.661686897277832,1.0],"metallicFactor":0.0,"roughnessFactor":0.9,"baseColorTexture":{"index":0}}},{"name":"anniversary1_bar_02_D","pbrMetallicRoughness":{"baseColorFactor":[0.5716397762298584,0.5609647631645203,0.6226415038108826,1.0],"metallicFactor":0.0,"roughnessFactor":0.9,"baseColorTexture":{"index":1}}}],"skins":[{"joints":[5],"inverseBindMatrices":0,"skeleton":5}],"accessors":[{"bufferView":0,"componentType":5126,"count":1,"type":"MAT4"},{"bufferView":1,"componentType":5126,"count":7289,"type":"VEC3","min":[-1.2481021881103516,-1.0961145162582397,-1.7103379964828491],"max":[1.2064905166625977,0.9012616276741028,-0.00027025697636418045]},{"bufferView":2,"componentType":5126,"count":7289,"type":"VEC3"},{"bufferView":3,"componentType":5126,"count":7289,"type":"VEC2"},{"bufferView":4,"componentType":5123,"count":7289,"type":"VEC4"},{"bufferView":5,"componentType":5126,"count":7289,"type":"VEC4"},{"bufferView":6,"componentType":5125,"count":14829,"type":"SCALAR"},{"bufferView":7,"componentType":5125,"count":12,"type":"SCALAR"},{"bufferView":8,"componentType":5125,"count":30,"type":"SCALAR"}],"bufferViews":[{"buffer":0,"byteOffset":0,"byteLength":64},{"buffer":0,"byteOffset":64,"byteLength":87468},{"buffer":0,"byteOffset":87532,"byteLength":87468},{"buffer":0,"byteOffset":175000,"byteLength":58312},{"buffer":0,"byteOffset":233312,"byteLength":58312},{"buffer":0,"byteOffset":291624,"byteLength":116624},{"buffer":0,"byteOffset":408248,"byteLength":59316},{"buffer":0,"byteOffset":467564,"byteLength":48},{"buffer":0,"byteOffset":467612,"byteLength":120}],"images":[{"uri":"anniversary1_bar_01_D.png"},{"uri":"anniversary1_bar_02_D.png"}],"textures":[{"source":0},{"source":1}],"buffers":[{"uri":"furn_anniversary1_bar.bin","byteLength":467732}]}