{"asset":{"version":"2.0","generator":"yuntu-dorm-m1"},"scenes":[{"nodes":[0]}],"nodes":[{"name":"do2022_chair","translation":[0.0,0.0,-0.0],"rotation":[-0.0,-0.0,0.0,1.0],"scale":[1.0,1.0,1.0],"mesh":0,"extras":{"aabb":[-0.2790898084640503,-4.850848256410245e-08,-0.2527470290660858,0.27908965945243835,0.6592904329299927,0.2527470588684082]}}],"meshes":[{"name":"do2022_chair","primitives":[{"attributes":{"POSITION":0,"NORMAL":1,"TEXCOORD_0":2},"indices":3,"mode":4,"material":0}]}],"materials":[{"name":"do2022_chair_D","pbrMetallicRoughness":{"baseColorFactor":[0.59273761510849,0.6152790188789368,0.6792452931404114,1.0],"metallicFactor":0.0,"roughnessFactor":0.9,"baseColorTexture":{"index":0}}}],"accessors":[{"bufferView":0,"componentType":5126,"count":306,"type":"VEC3","min":[-0.2790898084640503,-4.850848256410245e-08,-0.2527470290660858],"max":[0.27908965945243835,0.6592904329299927,0.2527470588684082]},{"bufferView":1,"componentType":5126,"count":306,"type":"VEC3"},{"bufferView":2,"componentType":5126,"count":306,"type":"VEC2"},{"bufferView":3,"componentType":5125,"count":1014,"type":"SCALAR"}],"bufferViews":[{"buffer":0,"byteOffset":0,"byteLength":3672},{"buffer":0,"byteOffset":3672,"byteLength":3672},{"buffer":0,"byteOffset":7344,"byteLength":2448},{"buffer":0,"byteOffset":9792,"byteLength":4056}],"images":[{"uri":"do2022_chair_D.png"}],"textures":[{"source":0}],"buffers":[{"uri":"furn_do2022_chair.bin","byteLength":13848}]}