{"asset":{"version":"2.0","generator":"yuntu-dorm-m1"},"scenes":[{"nodes":[0]}],"nodes":[{"name":"sef2022_deco_01","translation":[0.0,0.0,-0.0],"rotation":[-0.0,-0.0,0.0,1.0],"scale":[1.0,1.0,1.0],"mesh":0,"extras":{"aabb":[-0.9753694534301758,-0.0013073075097054243,-0.3662325143814087,1.042956829071045,1.2111530303955078,0.3689185380935669]}}],"meshes":[{"name":"sef2022_deco_01","primitives":[{"attributes":{"POSITION":0,"NORMAL":1,"TEXCOORD_0":2},"indices":3,"mode":4,"material":0}]}],"materials":[{"name":"sef2022_deco_01","pbrMetallicRoughness":{"baseColorFactor":[0.652945876121521,0.6737903356552124,0.6886792182922363,1.0],"metallicFactor":0.0,"roughnessFactor":0.9,"baseColorTexture":{"index":0}},"alphaMode":"MASK","alphaCutoff":0.5,"doubleSided":true}],"accessors":[{"bufferView":0,"componentType":5126,"count":4118,"type":"VEC3","min":[-0.9753694534301758,-0.0013073075097054243,-0.3662325143814087],"max":[1.042956829071045,1.2111530303955078,0.3689185380935669]},{"bufferView":1,"componentType":5126,"count":4118,"type":"VEC3"},{"bufferView":2,"componentType":5126,"count":4118,"type":"VEC2"},{"bufferView":3,"componentType":5125,"count":10257,"type":"SCALAR"}],"bufferViews":[{"buffer":0,"byteOffset":0,"byteLength":49416},{"buffer":0,"byteOffset":49416,"byteLength":49416},{"buffer":0,"byteOffset":98832,"byteLength":32944},{"buffer":0,"byteOffset":131776,"byteLength":41028}],"images":[{"uri":"sef2022_deco_01_D.png"}],"textures":[{"source":0}],"buffers":[{"uri":"furn_sef2022_deco_01.bin","byteLength":172804}]}