{"asset":{"version":"2.0","generator":"yuntu-dorm-m1"},"scenes":[{"nodes":[0]}],"nodes":[{"name":"we2021_table_001","translation":[0.0,0.0,-0.0],"rotation":[-0.0,-0.0,0.0,1.0],"scale":[1.0,1.0,1.0],"mesh":0,"extras":{"aabb":[-0.149429053068161,-0.00034560024505481124,-0.1604732871055603,0.14942897856235504,0.4787003993988037,0.16104358434677124]}}],"meshes":[{"name":"we2021_table_001","primitives":[{"attributes":{"POSITION":0,"NORMAL":1,"TEXCOORD_0":2},"indices":3,"mode":4,"material":0}]}],"materials":[{"name":"we2021_table_001_D","pbrMetallicRoughness":{"baseColorFactor":[0.6000000238418579,0.6000000238418579,0.6000000238418579,1.0],"metallicFactor":0.0,"roughnessFactor":0.9,"baseColorTexture":{"index":0}}}],"accessors":[{"bufferView":0,"componentType":5126,"count":363,"type":"VEC3","min":[-0.149429053068161,-0.00034560024505481124,-0.1604732871055603],"max":[0.14942897856235504,0.4787003993988037,0.16104358434677124]},{"bufferView":1,"componentType":5126,"count":363,"type":"VEC3"},{"bufferView":2,"componentType":5126,"count":363,"type":"VEC2"},{"bufferView":3,"componentType":5125,"count":990,"type":"SCALAR"}],"bufferViews":[{"buffer":0,"byteOffset":0,"byteLength":4356},{"buffer":0,"byteOffset":4356,"byteLength":4356},{"buffer":0,"byteOffset":8712,"byteLength":2904},{"buffer":0,"byteOffset":11616,"byteLength":3960}],"images":[{"uri":"we2021_table_001_D.png"}],"textures":[{"source":0}],"buffers":[{"uri":"furn_we2021_table_001.bin","byteLength":15576}]}