{"asset":{"version":"2.0","generator":"yuntu-dorm-m1"},"scenes":[{"nodes":[0]}],"nodes":[{"name":"ab2024_chair","translation":[0.0,0.0,-0.0],"rotation":[-0.0,-0.0,0.0,1.0],"scale":[1.0,1.0,1.0],"mesh":0,"extras":{"aabb":[-0.37148284912109375,-8.762803918216377e-05,-0.3406653106212616,0.37148237228393555,0.7054108381271362,0.34066519141197205]}}],"meshes":[{"name":"ab2024_chair","primitives":[{"attributes":{"POSITION":0,"NORMAL":1,"TEXCOORD_0":2},"indices":3,"mode":4,"material":0}]}],"materials":[{"name":"ab2024_chair_D","pbrMetallicRoughness":{"baseColorFactor":[0.6415094137191772,0.6415094137191772,0.6415094137191772,1.0],"metallicFactor":0.0,"roughnessFactor":0.9,"baseColorTexture":{"index":0}}}],"accessors":[{"bufferView":0,"componentType":5126,"count":1300,"type":"VEC3","min":[-0.37148284912109375,-8.762803918216377e-05,-0.3406653106212616],"max":[0.37148237228393555,0.7054108381271362,0.34066519141197205]},{"bufferView":1,"componentType":5126,"count":1300,"type":"VEC3"},{"bufferView":2,"componentType":5126,"count":1300,"type":"VEC2"},{"bufferView":3,"componentType":5125,"count":4380,"type":"SCALAR"}],"bufferViews":[{"buffer":0,"byteOffset":0,"byteLength":15600},{"buffer":0,"byteOffset":15600,"byteLength":15600},{"buffer":0,"byteOffset":31200,"byteLength":10400},{"buffer":0,"byteOffset":41600,"byteLength":17520}],"images":[{"uri":"ab2024_sofa_D.png"}],"textures":[{"source":0}],"buffers":[{"uri":"furn_ab2024_chair.bin","byteLength":59120}]}