{"asset":{"version":"2.0","generator":"yuntu-dorm-m1"},"scenes":[{"nodes":[0]}],"nodes":[{"name":"we2021_walldeco_001","translation":[0.0,0.0,-0.0],"rotation":[-0.0,-0.0,0.0,1.0],"scale":[1.0,1.0,1.0],"mesh":0,"extras":{"aabb":[-0.8369238376617432,0.0018079798901453614,-0.33083587884902954,0.8372082114219666,1.1701438426971436,0.31715482473373413]}}],"meshes":[{"name":"we2021_walldeco_001","primitives":[{"attributes":{"POSITION":0,"NORMAL":1,"TEXCOORD_0":2},"indices":3,"mode":4,"material":0},{"attributes":{"POSITION":0,"NORMAL":1,"TEXCOORD_0":2},"indices":4,"mode":4,"material":1}]}],"materials":[{"name":"we2021_walldeco_001_a_D","pbrMetallicRoughness":{"baseColorFactor":[0.699999988079071,0.699999988079071,0.699999988079071,1.0],"metallicFactor":0.0,"roughnessFactor":0.9,"baseColorTexture":{"index":0}}},{"name":"we2021_walldeco_001_a_T","pbrMetallicRoughness":{"baseColorFactor":[1.4640856981277466,1.4640856981277466,1.4640856981277466,1.0],"metallicFactor":0.0,"roughnessFactor":0.9,"baseColorTexture":{"index":1}}}],"accessors":[{"bufferView":0,"componentType":5126,"count":808,"type":"VEC3","min":[-0.8369238376617432,0.0018079798901453614,-0.33083587884902954],"max":[0.8372082114219666,1.1701438426971436,0.31715482473373413]},{"bufferView":1,"componentType":5126,"count":808,"type":"VEC3"},{"bufferView":2,"componentType":5126,"count":808,"type":"VEC2"},{"bufferView":3,"componentType":5125,"count":1632,"type":"SCALAR"},{"bufferView":4,"componentType":5125,"count":48,"type":"SCALAR"}],"bufferViews":[{"buffer":0,"byteOffset":0,"byteLength":9696},{"buffer":0,"byteOffset":9696,"byteLength":9696},{"buffer":0,"byteOffset":19392,"byteLength":6464},{"buffer":0,"byteOffset":25856,"byteLength":6528},{"buffer":0,"byteOffset":32384,"byteLength":192}],"images":[{"uri":"we2021_walldeco_001_a_D.png"},{"uri":"T_we2021_TV_001_bg_D.png"}],"textures":[{"source":0},{"source":1}],"buffers":[{"uri":"furn_we2021_walldeco_001.bin","byteLength":32576}]}