{"asset":{"version":"2.0","generator":"yuntu-dorm-m1"},"scenes":[{"nodes":[0]}],"nodes":[{"name":"sef2022_deco_04","translation":[0.0,0.0,-0.0],"rotation":[-0.0,-0.0,0.0,1.0],"scale":[1.0,1.0,1.0],"mesh":0,"extras":{"aabb":[-0.45190587639808655,-1.5736696923340787e-07,-0.4554249942302704,0.45190587639808655,1.8075071573257446,0.45190587639808655]}}],"meshes":[{"name":"sef2022_deco_04","primitives":[{"attributes":{"POSITION":0,"NORMAL":1,"TEXCOORD_0":2},"indices":3,"mode":4,"material":0},{"attributes":{"POSITION":0,"NORMAL":1,"TEXCOORD_0":2},"indices":4,"mode":4,"material":1}]}],"materials":[{"name":"sef2022_deco_04_D","pbrMetallicRoughness":{"baseColorFactor":[0.6908597350120544,0.6988645792007446,0.7075471878051758,1.0],"metallicFactor":0.0,"roughnessFactor":0.9,"baseColorTexture":{"index":0}},"alphaMode":"MASK","alphaCutoff":0.5,"doubleSided":true},{"name":"sef2022_deco_04_T","pbrMetallicRoughness":{"baseColorFactor":[0.6415094137191772,0.6415094137191772,0.6415094137191772,1.0],"metallicFactor":0.0,"roughnessFactor":0.9,"baseColorTexture":{"index":0}},"alphaMode":"BLEND","doubleSided":true}],"accessors":[{"bufferView":0,"componentType":5126,"count":3507,"type":"VEC3","min":[-0.45190587639808655,-1.5736696923340787e-07,-0.4554249942302704],"max":[0.45190587639808655,1.8075071573257446,0.45190587639808655]},{"bufferView":1,"componentType":5126,"count":3507,"type":"VEC3"},{"bufferView":2,"componentType":5126,"count":3507,"type":"VEC2"},{"bufferView":3,"componentType":5125,"count":7719,"type":"SCALAR"},{"bufferView":4,"componentType":5125,"count":240,"type":"SCALAR"}],"bufferViews":[{"buffer":0,"byteOffset":0,"byteLength":42084},{"buffer":0,"byteOffset":42084,"byteLength":42084},{"buffer":0,"byteOffset":84168,"byteLength":28056},{"buffer":0,"byteOffset":112224,"byteLength":30876},{"buffer":0,"byteOffset":143100,"byteLength":960}],"images":[{"uri":"sef2022_deco_04_T.png"}],"textures":[{"source":0}],"buffers":[{"uri":"furn_sef2022_deco_04.bin","byteLength":144060}]}