{"asset":{"version":"2.0","generator":"yuntu-dorm-m1"},"scenes":[{"nodes":[0]}],"nodes":[{"name":"dwc2022_deco_05","translation":[0.0,0.0,-0.0],"rotation":[-0.0,-0.0,0.0,1.0],"scale":[1.0,1.0,1.0],"children":[1,7]},{"name":"dwc2022_deco_05_dwc2022_deco_05","translation":[0.0,0.0,-0.0],"rotation":[0.0,0.0,-0.0,1.0],"scale":[1.0,1.0,1.0],"children":[2,3]},{"name":"dwc2022_deco_05_dwc2022_deco_05_dwc2022_deco_05","translation":[0.06015891954302788,0.0,0.6110804677009583],"rotation":[0.7071067811865475,-0.0,-0.0,0.7071067811865475],"scale":[1.0,1.0,1.0],"skin":0,"mesh":0,"extras":{"aabb":[-0.5536575317382812,-1.3876152038574219,-2.492845296859741,0.5536577105522156,1.220630407333374,-0.0016585254343226552]}},{"name":"dwc2022_deco_05_dwc2022_deco_05_root","translation":[-0.0,0.0,-0.0],"rotation":[-6.657902673623506e-08,7.450578465295585e-08,3.699781800370321e-12,0.9999999999999951],"scale":[1.0,1.0,1.0],"children":[4,5]},{"name":"dwc2022_deco_05_dwc2022_deco_05_root_bind_path","translation":[-0.0,0.0,-0.0],"rotation":[-5.9590792744756876e-08,-7.450573935585667e-09,1.0855434606771278e-11,0.9999999999999982],"scale":[1.0,1.0,1.0]},{"name":"dwc2022_deco_05_dwc2022_deco_05_root_Bone002","translation":[-0.0,0.0,-0.0],"rotation":[2.2014933542003147e-06,-2.13963202463773e-06,-0.7071067215785671,0.7071068407878587],"scale":[1.0,1.0,1.0],"children":[6]},{"name":"dwc2022_deco_05_dwc2022_deco_05_root_Bone002_Bone003","translation":[-0.08408146351575851,0.03836963698267937,-0.5265669822692871],"rotation":[-0.7071071686166227,-0.0,0.0,0.7071063937562599],"scale":[1.0,1.0,1.0]},{"name":"dwc2022_deco_05_Effect","translation":[0.0,0.0,-0.0],"rotation":[-0.0,-0.0,0.0,1.0],"scale":[1.0,1.0,1.0],"children":[8]},{"name":"dwc2022_deco_05_Effect_FXP_dwc2022_deco_05@interact_loop(Clone)","translation":[0.0,0.0,-0.0],"rotation":[-0.0,-0.0,0.0,1.0],"scale":[1.0,1.0,1.0],"children":[9]},{"name":"dwc2022_deco_05_Effect_FXP_dwc2022_deco_05@interact_loop(Clone)_low","translation":[0.0,0.0,-0.0],"rotation":[-0.0,-0.0,0.0,1.0],"scale":[1.0,1.0,1.0],"children":[10,12,14,15]},{"name":"dwc2022_deco_05_Effect_FXP_dwc2022_deco_05@interact_loop(Clone)_low_suzi","translation":[-0.10100000351667404,1.593999981880188,0.7789999842643738],"rotation":[-0.0,1.0,0.0,0.0],"scale":[0.5174391865730286,0.5174391865730286,0.5174391865730286],"children":[11]},{"name":"dwc2022_deco_05_Effect_FXP_dwc2022_deco_05@interact_loop(Clone)_low_suzi_suzi_(3)","translation":[0.0,0.0,-0.0],"rotation":[0.0,0.0,-0.0,1.0],"scale":[1.0,1.0,1.0]},{"name":"dwc2022_deco_05_Effect_FXP_dwc2022_deco_05@interact_loop(Clone)_low_suzi_(1)","translation":[0.14399999380111694,1.5880000591278076,0.7789999842643738],"rotation":[-0.0,1.0,0.0,0.0],"scale":[0.5393030643463135,0.5393030643463135,0.5393030643463135],"children":[13]},{"name":"dwc2022_deco_05_Effect_FXP_dwc2022_deco_05@interact_loop(Clone)_low_suzi_(1)_suzi_(3)","translation":[0.0,0.0,-0.0],"rotation":[0.0,0.0,-0.0,1.0],"scale":[1.0,1.0,1.0]},{"name":"dwc2022_deco_05_Effect_FXP_dwc2022_deco_05@interact_loop(Clone)_low_suzi_(4)","translation":[-0.09700000286102295,1.5920000076293945,0.7789999842643738],"rotation":[0.0,1.0,-0.0,0.0],"scale":[0.5370252728462219,0.5370252728462219,0.5370252728462219]},{"name":"dwc2022_deco_05_Effect_FXP_dwc2022_deco_05@interact_loop(Clone)_low_suzi_(5)","translation":[0.14499999582767487,1.590999960899353,0.7789999842643738],"rotation":[0.0,1.0,-0.0,0.0],"scale":[0.5370252728462219,0.5370252728462219,0.5370252728462219]}],"meshes":[{"name":"dwc2022_deco_05","primitives":[{"attributes":{"POSITION":1,"NORMAL":2,"TEXCOORD_0":3,"JOINTS_0":4,"WEIGHTS_0":5},"indices":6,"mode":4,"material":0},{"attributes":{"POSITION":1,"NORMAL":2,"TEXCOORD_0":3,"JOINTS_0":4,"WEIGHTS_0":5},"indices":7,"mode":4,"material":1}]}],"materials":[{"name":"dwc2022_deco_05_D","pbrMetallicRoughness":{"baseColorFactor":[0.7358490228652954,0.7046101689338684,0.7342996597290039,1.0],"metallicFactor":0.0,"roughnessFactor":0.9,"baseColorTexture":{"index":0}}},{"name":"dwc2022_table_02_002_D","pbrMetallicRoughness":{"baseColorFactor":[1.0,1.0,1.0,1.0],"metallicFactor":0.0,"roughnessFactor":0.9,"baseColorTexture":{"index":1}},"alphaMode":"MASK","alphaCutoff":0.5,"doubleSided":true}],"skins":[{"joints":[5,6],"inverseBindMatrices":0,"skeleton":5}],"accessors":[{"bufferView":0,"componentType":5126,"count":2,"type":"MAT4"},{"bufferView":1,"componentType":5126,"count":2833,"type":"VEC3","min":[-0.5536575317382812,-1.3876152038574219,-2.492845296859741],"max":[0.5536577105522156,1.220630407333374,-0.0016585254343226552]},{"bufferView":2,"componentType":5126,"count":2833,"type":"VEC3"},{"bufferView":3,"componentType":5126,"count":2833,"type":"VEC2"},{"bufferView":4,"componentType":5123,"count":2833,"type":"VEC4"},{"bufferView":5,"componentType":5126,"count":2833,"type":"VEC4"},{"bufferView":6,"componentType":5125,"count":5799,"type":"SCALAR"},{"bufferView":7,"componentType":5125,"count":792,"type":"SCALAR"}],"bufferViews":[{"buffer":0,"byteOffset":0,"byteLength":128},{"buffer":0,"byteOffset":128,"byteLength":33996},{"buffer":0,"byteOffset":34124,"byteLength":33996},{"buffer":0,"byteOffset":68120,"byteLength":22664},{"buffer":0,"byteOffset":90784,"byteLength":22664},{"buffer":0,"byteOffset":113448,"byteLength":45328},{"buffer":0,"byteOffset":158776,"byteLength":23196},{"buffer":0,"byteOffset":181972,"byteLength":3168}],"images":[{"uri":"dwc2022_deco_05_D.png"},{"uri":"dwc2022_table_02_002_D.png"}],"textures":[{"source":0},{"source":1}],"buffers":[{"uri":"furn_dwc2022_deco_05.bin","byteLength":185140}]}