{"asset":{"version":"2.0","generator":"yuntu-dorm-m1"},"scenes":[{"nodes":[0]}],"nodes":[{"name":"xn2018_desk_001","translation":[0.0,0.0,-0.0],"rotation":[-0.0,-0.0,0.0,1.0],"scale":[1.0,1.0,1.0],"mesh":0,"extras":{"aabb":[-0.14298571646213531,0.00010046004899777472,-0.14514702558517456,0.1429857313632965,0.335965096950531,0.13353197276592255]}}],"meshes":[{"name":"xn2018_desk_001","primitives":[{"attributes":{"POSITION":0,"NORMAL":1,"TEXCOORD_0":2},"indices":3,"mode":4,"material":0}]}],"materials":[{"name":"xn2018_desk_001_D","pbrMetallicRoughness":{"baseColorFactor":[0.75,0.75,0.75,1.0],"metallicFactor":0.0,"roughnessFactor":0.9,"baseColorTexture":{"index":0}}}],"accessors":[{"bufferView":0,"componentType":5126,"count":778,"type":"VEC3","min":[-0.14298571646213531,0.00010046004899777472,-0.14514702558517456],"max":[0.1429857313632965,0.335965096950531,0.13353197276592255]},{"bufferView":1,"componentType":5126,"count":778,"type":"VEC3"},{"bufferView":2,"componentType":5126,"count":778,"type":"VEC2"},{"bufferView":3,"componentType":5125,"count":2700,"type":"SCALAR"}],"bufferViews":[{"buffer":0,"byteOffset":0,"byteLength":9336},{"buffer":0,"byteOffset":9336,"byteLength":9336},{"buffer":0,"byteOffset":18672,"byteLength":6224},{"buffer":0,"byteOffset":24896,"byteLength":10800}],"images":[{"uri":"xn2018_desk_001_D.png"}],"textures":[{"source":0}],"buffers":[{"uri":"furn_xn2018_desk_001.bin","byteLength":35696}]}