{"asset":{"version":"2.0","generator":"yuntu-dorm-m1"},"scenes":[{"nodes":[0]}],"nodes":[{"name":"ab2024_carpet","translation":[0.0,0.0,-0.0],"rotation":[-0.0,-0.0,0.0,1.0],"scale":[1.0,1.0,1.0],"mesh":0,"extras":{"aabb":[-1.0463659763336182,-8.114611773635261e-07,-2.610004186630249,1.0463695526123047,5.388621460156173e-08,2.610004186630249]}}],"meshes":[{"name":"ab2024_carpet","primitives":[{"attributes":{"POSITION":0,"NORMAL":1,"TEXCOORD_0":2},"indices":3,"mode":4,"material":0}]}],"materials":[{"name":"ab2024_carpet_D","pbrMetallicRoughness":{"baseColorFactor":[0.6173763275146484,0.6020826101303101,0.6226415038108826,1.0],"metallicFactor":0.0,"roughnessFactor":0.9,"baseColorTexture":{"index":0}}}],"accessors":[{"bufferView":0,"componentType":5126,"count":4,"type":"VEC3","min":[-1.0463659763336182,-8.114611773635261e-07,-2.610004186630249],"max":[1.0463695526123047,5.388621460156173e-08,2.610004186630249]},{"bufferView":1,"componentType":5126,"count":4,"type":"VEC3"},{"bufferView":2,"componentType":5126,"count":4,"type":"VEC2"},{"bufferView":3,"componentType":5125,"count":6,"type":"SCALAR"}],"bufferViews":[{"buffer":0,"byteOffset":0,"byteLength":48},{"buffer":0,"byteOffset":48,"byteLength":48},{"buffer":0,"byteOffset":96,"byteLength":32},{"buffer":0,"byteOffset":128,"byteLength":24}],"images":[{"uri":"ab2024_carpet_D.png"}],"textures":[{"source":0}],"buffers":[{"uri":"furn_ab2024_carpet.bin","byteLength":152}]}