{"asset":{"version":"2.0","generator":"yuntu-dorm-m1"},"scenes":[{"nodes":[0]}],"nodes":[{"name":"se2021_hammock_001","translation":[0.0,0.0,-0.0],"rotation":[-0.0,-0.0,0.0,1.0],"scale":[1.0,1.0,1.0],"mesh":0,"extras":{"aabb":[-1.4540939331054688,-0.045998115092515945,-0.3858458995819092,1.337686538696289,2.0442726612091064,0.4589775502681732]}}],"meshes":[{"name":"se2021_hammock_001","primitives":[{"attributes":{"POSITION":0,"NORMAL":1,"TEXCOORD_0":2},"indices":3,"mode":4,"material":0},{"attributes":{"POSITION":0,"NORMAL":1,"TEXCOORD_0":2},"indices":4,"mode":4,"material":1}]}],"materials":[{"name":"se2021_hammock_001_T","pbrMetallicRoughness":{"baseColorFactor":[1.0,1.0,1.0,1.0],"metallicFactor":0.0,"roughnessFactor":0.9,"baseColorTexture":{"index":0}},"alphaMode":"BLEND","doubleSided":true},{"name":"se2021_hammock_001_D","pbrMetallicRoughness":{"baseColorFactor":[0.75,0.75,0.75,1.0],"metallicFactor":0.0,"roughnessFactor":0.9,"baseColorTexture":{"index":0}},"alphaMode":"MASK","alphaCutoff":0.5,"doubleSided":true}],"accessors":[{"bufferView":0,"componentType":5126,"count":2032,"type":"VEC3","min":[-1.4540939331054688,-0.045998115092515945,-0.3858458995819092],"max":[1.337686538696289,2.0442726612091064,0.4589775502681732]},{"bufferView":1,"componentType":5126,"count":2032,"type":"VEC3"},{"bufferView":2,"componentType":5126,"count":2032,"type":"VEC2"},{"bufferView":3,"componentType":5125,"count":2808,"type":"SCALAR"},{"bufferView":4,"componentType":5125,"count":2760,"type":"SCALAR"}],"bufferViews":[{"buffer":0,"byteOffset":0,"byteLength":24384},{"buffer":0,"byteOffset":24384,"byteLength":24384},{"buffer":0,"byteOffset":48768,"byteLength":16256},{"buffer":0,"byteOffset":65024,"byteLength":11232},{"buffer":0,"byteOffset":76256,"byteLength":11040}],"images":[{"uri":"se2021_hammock_001_T.png"}],"textures":[{"source":0}],"buffers":[{"uri":"furn_se2021_hammock_001.bin","byteLength":87296}]}