{"asset":{"version":"2.0","generator":"yuntu-dorm-m1"},"scenes":[{"nodes":[0]}],"nodes":[{"name":"ab2024_walldeco02","translation":[0.0,0.0,-0.0],"rotation":[-0.0,-0.0,0.0,1.0],"scale":[1.0,1.0,1.0],"mesh":0,"extras":{"aabb":[-2.7764651775360107,9.971618419513106e-05,-0.08031633496284485,2.7764651775360107,2.45767879486084,-0.0016013581771403551]}}],"meshes":[{"name":"ab2024_walldeco02","primitives":[{"attributes":{"POSITION":0,"NORMAL":1,"TEXCOORD_0":2},"indices":3,"mode":4,"material":0},{"attributes":{"POSITION":0,"NORMAL":1,"TEXCOORD_0":2},"indices":4,"mode":4,"material":1}]}],"materials":[{"name":"ab2024_walldeco02_D","pbrMetallicRoughness":{"baseColorFactor":[0.6320754289627075,0.6320754289627075,0.6320754289627075,1.0],"metallicFactor":0.0,"roughnessFactor":0.9,"baseColorTexture":{"index":0}},"alphaMode":"MASK","alphaCutoff":0.5,"doubleSided":true},{"name":"ab2024_walldeco02_T","pbrMetallicRoughness":{"baseColorFactor":[0.7075471878051758,0.7075471878051758,0.7075471878051758,1.0],"metallicFactor":0.0,"roughnessFactor":0.9,"baseColorTexture":{"index":1}},"alphaMode":"MASK","alphaCutoff":0.5,"doubleSided":true}],"accessors":[{"bufferView":0,"componentType":5126,"count":766,"type":"VEC3","min":[-2.7764651775360107,9.971618419513106e-05,-0.08031633496284485],"max":[2.7764651775360107,2.45767879486084,-0.0016013581771403551]},{"bufferView":1,"componentType":5126,"count":766,"type":"VEC3"},{"bufferView":2,"componentType":5126,"count":766,"type":"VEC2"},{"bufferView":3,"componentType":5125,"count":1188,"type":"SCALAR"},{"bufferView":4,"componentType":5125,"count":6,"type":"SCALAR"}],"bufferViews":[{"buffer":0,"byteOffset":0,"byteLength":9192},{"buffer":0,"byteOffset":9192,"byteLength":9192},{"buffer":0,"byteOffset":18384,"byteLength":6128},{"buffer":0,"byteOffset":24512,"byteLength":4752},{"buffer":0,"byteOffset":29264,"byteLength":24}],"images":[{"uri":"ab2024_walldeco02_D.png"},{"uri":"ab2024_walldeco02_T.png"}],"textures":[{"source":0},{"source":1}],"buffers":[{"uri":"furn_ab2024_walldeco02.bin","byteLength":29288}]}