{"asset":{"version":"2.0","generator":"yuntu-dorm-m1"},"scenes":[{"nodes":[0]}],"nodes":[{"name":"syp2017_bed_001","translation":[0.0,0.0,-0.0],"rotation":[-0.0,-0.0,0.0,1.0],"scale":[1.0,1.0,1.0],"children":[1]},{"name":"syp2017_bed_001_syp2017_bed_001","translation":[0.0,0.0,-0.0],"rotation":[0.0,0.0,-0.0,1.0],"scale":[0.800000011920929,0.800000011920929,0.800000011920929],"mesh":0,"extras":{"aabb":[-0.6750620603561401,-0.002301997970789671,-0.38222211599349976,0.6750620603561401,0.3518630266189575,0.38222211599349976]}}],"meshes":[{"name":"syp2017_bed_001","primitives":[{"attributes":{"POSITION":0,"NORMAL":1,"TEXCOORD_0":2},"indices":3,"mode":4,"material":0}]}],"materials":[{"name":"syp2017_bed_001_D","pbrMetallicRoughness":{"baseColorFactor":[0.75,0.75,0.75,1.0],"metallicFactor":0.0,"roughnessFactor":0.9,"baseColorTexture":{"index":0}}}],"accessors":[{"bufferView":0,"componentType":5126,"count":428,"type":"VEC3","min":[-0.6750620603561401,-0.002301997970789671,-0.38222211599349976],"max":[0.6750620603561401,0.3518630266189575,0.38222211599349976]},{"bufferView":1,"componentType":5126,"count":428,"type":"VEC3"},{"bufferView":2,"componentType":5126,"count":428,"type":"VEC2"},{"bufferView":3,"componentType":5125,"count":1656,"type":"SCALAR"}],"bufferViews":[{"buffer":0,"byteOffset":0,"byteLength":5136},{"buffer":0,"byteOffset":5136,"byteLength":5136},{"buffer":0,"byteOffset":10272,"byteLength":3424},{"buffer":0,"byteOffset":13696,"byteLength":6624}],"images":[{"uri":"syp2017_bed_001_D.png"}],"textures":[{"source":0}],"buffers":[{"uri":"furn_syp2017_bed_001.bin","byteLength":20320}]}