{"asset":{"version":"2.0","generator":"yuntu-dorm-m1"},"scenes":[{"nodes":[0]}],"nodes":[{"name":"dwc2022_deco_04","translation":[0.0,0.0,-0.0],"rotation":[-0.0,-0.0,0.0,1.0],"scale":[1.0,1.0,1.0],"children":[1,6]},{"name":"dwc2022_deco_04_dwc2022_deco_04","translation":[0.0,0.0,-0.0],"rotation":[0.0,0.0,-0.0,1.0],"scale":[1.0,1.0,1.0],"children":[2,3]},{"name":"dwc2022_deco_04_dwc2022_deco_04_dwc2022_deco_04","translation":[-0.0,0.0,-0.0],"rotation":[-0.0,0.0,-0.0,1.0],"scale":[1.0,1.0,1.0],"skin":0,"mesh":0,"extras":{"aabb":[-0.7349252700805664,-5.2325858632684685e-06,-0.9487834572792053,0.7504945993423462,2.693378210067749,0.995401918888092]}},{"name":"dwc2022_deco_04_dwc2022_deco_04_root","translation":[-0.0,0.0,-0.0],"rotation":[-1.331580534724696e-07,1.8679027213863554e-09,2.4872630158221716e-16,0.9999999999999911],"scale":[1.0,1.0,1.0],"children":[4,5]},{"name":"dwc2022_deco_04_dwc2022_deco_04_root_bind_path","translation":[-0.0,0.0,-0.0],"rotation":[2.3841857910155572e-07,2.3035513093861816e-23,-5.269913419527006e-16,0.9999999999999716],"scale":[1.0,1.0,1.0]},{"name":"dwc2022_deco_04_dwc2022_deco_04_root_Bone001","translation":[4.00473537867138e-18,2.8421708795129297e-16,-1.071987165701671e-09],"rotation":[1.6858739404357132e-07,1.6858739404357132e-07,-0.7071067811865274,0.7071067811865274],"scale":[1.0,1.0,1.0]},{"name":"dwc2022_deco_04_Glow_(2)","translation":[0.0010000000474974513,2.196000099182129,0.20900000631809235],"rotation":[0.02917645279165638,-0.476453835232592,-0.8782923120201768,-0.027259716449417756],"scale":[0.35350164771080017,0.32438382506370544,0.794510006904602]}],"meshes":[{"name":"dwc2022_deco_04","primitives":[{"attributes":{"POSITION":1,"NORMAL":2,"TEXCOORD_0":3,"JOINTS_0":4,"WEIGHTS_0":5},"indices":6,"mode":4,"material":0},{"attributes":{"POSITION":1,"NORMAL":2,"TEXCOORD_0":3,"JOINTS_0":4,"WEIGHTS_0":5},"indices":7,"mode":4,"material":1},{"attributes":{"POSITION":1,"NORMAL":2,"TEXCOORD_0":3,"JOINTS_0":4,"WEIGHTS_0":5},"indices":8,"mode":4,"material":2},{"attributes":{"POSITION":1,"NORMAL":2,"TEXCOORD_0":3,"JOINTS_0":4,"WEIGHTS_0":5},"indices":9,"mode":4,"material":3}]}],"materials":[{"name":"dwc2022_deco_04_D","pbrMetallicRoughness":{"baseColorFactor":[0.650943398475647,0.650943398475647,0.650943398475647,1.0],"metallicFactor":0.0,"roughnessFactor":0.9,"baseColorTexture":{"index":0}}},{"name":"dwc2022_deco_04_004_D","pbrMetallicRoughness":{"baseColorFactor":[1.0,1.0,1.0,1.0],"metallicFactor":0.0,"roughnessFactor":0.9,"baseColorTexture":{"index":1}},"alphaMode":"MASK","alphaCutoff":0.5,"doubleSided":true},{"name":"dwc2022_deco_04_002_D","pbrMetallicRoughness":{"baseColorFactor":[1.0,1.0,1.0,1.0],"metallicFactor":0.0,"roughnessFactor":0.9,"baseColorTexture":{"index":2}},"alphaMode":"MASK","alphaCutoff":0.5,"doubleSided":true},{"name":"dwc2022_deco_04_003_D","pbrMetallicRoughness":{"baseColorFactor":[1.0,1.0,1.0,1.0],"metallicFactor":0.0,"roughnessFactor":0.9,"baseColorTexture":{"index":3}},"alphaMode":"MASK","alphaCutoff":0.5,"doubleSided":true}],"skins":[{"joints":[5],"inverseBindMatrices":0,"skeleton":5}],"accessors":[{"bufferView":0,"componentType":5126,"count":1,"type":"MAT4"},{"bufferView":1,"componentType":5126,"count":2809,"type":"VEC3","min":[-0.7349252700805664,-5.2325858632684685e-06,-0.9487834572792053],"max":[0.7504945993423462,2.693378210067749,0.995401918888092]},{"bufferView":2,"componentType":5126,"count":2809,"type":"VEC3"},{"bufferView":3,"componentType":5126,"count":2809,"type":"VEC2"},{"bufferView":4,"componentType":5123,"count":2809,"type":"VEC4"},{"bufferView":5,"componentType":5126,"count":2809,"type":"VEC4"},{"bufferView":6,"componentType":5125,"count":7608,"type":"SCALAR"},{"bufferView":7,"componentType":5125,"count":60,"type":"SCALAR"},{"bufferView":8,"componentType":5125,"count":6,"type":"SCALAR"},{"bufferView":9,"componentType":5125,"count":12,"type":"SCALAR"}],"bufferViews":[{"buffer":0,"byteOffset":0,"byteLength":64},{"buffer":0,"byteOffset":64,"byteLength":33708},{"buffer":0,"byteOffset":33772,"byteLength":33708},{"buffer":0,"byteOffset":67480,"byteLength":22472},{"buffer":0,"byteOffset":89952,"byteLength":22472},{"buffer":0,"byteOffset":112424,"byteLength":44944},{"buffer":0,"byteOffset":157368,"byteLength":30432},{"buffer":0,"byteOffset":187800,"byteLength":240},{"buffer":0,"byteOffset":188040,"byteLength":24},{"buffer":0,"byteOffset":188064,"byteLength":48}],"images":[{"uri":"dwc2022_deco_04_D.png"},{"uri":"dwc2022_deco_04_004_D.png"},{"uri":"dwc2022_deco_04_002_D.png"},{"uri":"dwc2022_deco_04_003_D.png"}],"textures":[{"source":0},{"source":1},{"source":2},{"source":3}],"buffers":[{"uri":"furn_dwc2022_deco_04.bin","byteLength":188112}]}