{"asset":{"version":"2.0","generator":"yuntu-dorm-m1"},"scenes":[{"nodes":[0]}],"nodes":[{"name":"se2021_table_001","translation":[-0.0,0.0,-0.0],"rotation":[-0.0,-0.0,0.0,1.0],"scale":[1.0,1.0,1.0],"mesh":0,"extras":{"aabb":[-0.9045963287353516,-0.004924040753394365,-0.5277832746505737,0.8786540627479553,0.5472173094749451,0.3972747027873993]}}],"meshes":[{"name":"se2021_table_001","primitives":[{"attributes":{"POSITION":0,"NORMAL":1,"TEXCOORD_0":2},"indices":3,"mode":4,"material":0},{"attributes":{"POSITION":0,"NORMAL":1,"TEXCOORD_0":2},"indices":4,"mode":4,"material":1}]}],"materials":[{"name":"se2021_table_001_T","pbrMetallicRoughness":{"baseColorFactor":[1.0,1.0,1.0,1.0],"metallicFactor":0.0,"roughnessFactor":0.9,"baseColorTexture":{"index":0}}},{"name":"se2021_table_001_D","pbrMetallicRoughness":{"baseColorFactor":[0.699999988079071,0.699999988079071,0.699999988079071,1.0],"metallicFactor":0.0,"roughnessFactor":0.9,"baseColorTexture":{"index":0}},"alphaMode":"MASK","alphaCutoff":0.5,"doubleSided":true}],"accessors":[{"bufferView":0,"componentType":5126,"count":3109,"type":"VEC3","min":[-0.9045963287353516,-0.004924040753394365,-0.5277832746505737],"max":[0.8786540627479553,0.5472173094749451,0.3972747027873993]},{"bufferView":1,"componentType":5126,"count":3109,"type":"VEC3"},{"bufferView":2,"componentType":5126,"count":3109,"type":"VEC2"},{"bufferView":3,"componentType":5125,"count":156,"type":"SCALAR"},{"bufferView":4,"componentType":5125,"count":10662,"type":"SCALAR"}],"bufferViews":[{"buffer":0,"byteOffset":0,"byteLength":37308},{"buffer":0,"byteOffset":37308,"byteLength":37308},{"buffer":0,"byteOffset":74616,"byteLength":24872},{"buffer":0,"byteOffset":99488,"byteLength":624},{"buffer":0,"byteOffset":100112,"byteLength":42648}],"images":[{"uri":"se2021_table_001_D.png"}],"textures":[{"source":0}],"buffers":[{"uri":"furn_se2021_table_001.bin","byteLength":142760}]}