{"asset":{"version":"2.0","generator":"yuntu-dorm-m1"},"scenes":[{"nodes":[0]}],"nodes":[{"name":"se2021_boat_001","translation":[-0.0,0.0,-0.0],"rotation":[-0.0,-0.0,0.0,1.0],"scale":[1.0,1.0,1.0],"mesh":0,"extras":{"aabb":[-0.2510278522968292,0.0003771066549234092,-0.5542873740196228,0.2510278820991516,0.33986008167266846,0.5542873740196228]}}],"meshes":[{"name":"se2021_boat_001","primitives":[{"attributes":{"POSITION":0,"NORMAL":1,"TEXCOORD_0":2},"indices":3,"mode":4,"material":0}]}],"materials":[{"name":"se2021_boat_001_D","pbrMetallicRoughness":{"baseColorFactor":[0.75,0.75,0.75,1.0],"metallicFactor":0.0,"roughnessFactor":0.9,"baseColorTexture":{"index":0}},"alphaMode":"MASK","alphaCutoff":0.5,"doubleSided":true}],"accessors":[{"bufferView":0,"componentType":5126,"count":184,"type":"VEC3","min":[-0.2510278522968292,0.0003771066549234092,-0.5542873740196228],"max":[0.2510278820991516,0.33986008167266846,0.5542873740196228]},{"bufferView":1,"componentType":5126,"count":184,"type":"VEC3"},{"bufferView":2,"componentType":5126,"count":184,"type":"VEC2"},{"bufferView":3,"componentType":5125,"count":570,"type":"SCALAR"}],"bufferViews":[{"buffer":0,"byteOffset":0,"byteLength":2208},{"buffer":0,"byteOffset":2208,"byteLength":2208},{"buffer":0,"byteOffset":4416,"byteLength":1472},{"buffer":0,"byteOffset":5888,"byteLength":2280}],"images":[{"uri":"se2021_boat_001_D.png"}],"textures":[{"source":0}],"buffers":[{"uri":"furn_se2021_boat_001.bin","byteLength":8168}]}