{"asset":{"version":"2.0","generator":"yuntu-dorm-m1"},"scenes":[{"nodes":[0]}],"nodes":[{"name":"ab2024_deco01","translation":[0.0,0.0,-0.0],"rotation":[-0.0,-0.0,0.0,1.0],"scale":[1.0,1.0,1.0],"children":[1],"mesh":0,"extras":{"aabb":[-1.8432178497314453,-0.06686585396528244,-1.843218207359314,1.8432178497314453,1.8716052770614624,1.8432178497314453]}},{"name":"ab2024_deco01_FXP_2024zn_glow","translation":[0.0,0.0,-0.0],"rotation":[-0.0,-0.0,0.0,1.0],"scale":[1.0,1.0,1.0],"children":[2]},{"name":"ab2024_deco01_FXP_2024zn_glow_low","translation":[0.0,0.009999999776482582,-0.0],"rotation":[-0.0,-0.0,0.0,1.0],"scale":[1.0,1.0,1.0],"children":[3]},{"name":"ab2024_deco01_FXP_2024zn_glow_low_E003_dots_(2)","translation":[-0.0,1.4589999914169312,-0.7099999785423279],"rotation":[0.7071067811865475,0.0,-0.0,0.7071067811865475],"scale":[1.0,1.0,1.0]}],"meshes":[{"name":"ab2024_deco01","primitives":[{"attributes":{"POSITION":0,"NORMAL":1,"TEXCOORD_0":2},"indices":3,"mode":4,"material":0}]}],"materials":[{"name":"ab2024_deco01_D","pbrMetallicRoughness":{"baseColorFactor":[0.6415094137191772,0.6415094137191772,0.6415094137191772,1.0],"metallicFactor":0.0,"roughnessFactor":0.9,"baseColorTexture":{"index":0}}}],"accessors":[{"bufferView":0,"componentType":5126,"count":3264,"type":"VEC3","min":[-1.8432178497314453,-0.06686585396528244,-1.843218207359314],"max":[1.8432178497314453,1.8716052770614624,1.8432178497314453]},{"bufferView":1,"componentType":5126,"count":3264,"type":"VEC3"},{"bufferView":2,"componentType":5126,"count":3264,"type":"VEC2"},{"bufferView":3,"componentType":5125,"count":5541,"type":"SCALAR"}],"bufferViews":[{"buffer":0,"byteOffset":0,"byteLength":39168},{"buffer":0,"byteOffset":39168,"byteLength":39168},{"buffer":0,"byteOffset":78336,"byteLength":26112},{"buffer":0,"byteOffset":104448,"byteLength":22164}],"images":[{"uri":"ab2024_deco01.png"}],"textures":[{"source":0}],"buffers":[{"uri":"furn_ab2024_deco01.bin","byteLength":126612}]}