{"asset":{"version":"2.0","generator":"yuntu-dorm-m1"},"scenes":[{"nodes":[0]}],"nodes":[{"name":"xn2018_deco_008","translation":[0.0,0.0,-0.0],"rotation":[-0.0,-0.0,0.0,1.0],"scale":[1.0,1.0,1.0],"mesh":0,"extras":{"aabb":[-0.4125462770462036,-0.027071112766861916,-0.3563231825828552,0.5637591481208801,0.8747003078460693,0.3690376877784729]}}],"meshes":[{"name":"xn2018_deco_008","primitives":[{"attributes":{"POSITION":0,"NORMAL":1,"TEXCOORD_0":2},"indices":3,"mode":4,"material":0}]}],"materials":[{"name":"xn2018_deco_008_D","pbrMetallicRoughness":{"baseColorFactor":[0.699999988079071,0.699999988079071,0.699999988079071,1.0],"metallicFactor":0.0,"roughnessFactor":0.9,"baseColorTexture":{"index":0}}}],"accessors":[{"bufferView":0,"componentType":5126,"count":578,"type":"VEC3","min":[-0.4125462770462036,-0.027071112766861916,-0.3563231825828552],"max":[0.5637591481208801,0.8747003078460693,0.3690376877784729]},{"bufferView":1,"componentType":5126,"count":578,"type":"VEC3"},{"bufferView":2,"componentType":5126,"count":578,"type":"VEC2"},{"bufferView":3,"componentType":5125,"count":2430,"type":"SCALAR"}],"bufferViews":[{"buffer":0,"byteOffset":0,"byteLength":6936},{"buffer":0,"byteOffset":6936,"byteLength":6936},{"buffer":0,"byteOffset":13872,"byteLength":4624},{"buffer":0,"byteOffset":18496,"byteLength":9720}],"images":[{"uri":"xn2018_deco_008_D.png"}],"textures":[{"source":0}],"buffers":[{"uri":"furn_xn2018_deco_008.bin","byteLength":28216}]}