{"asset":{"version":"2.0","generator":"yuntu-dorm-m1"},"scenes":[{"nodes":[0]}],"nodes":[{"name":"ab2024_walldeco01","translation":[0.0,0.0,-0.0],"rotation":[-0.0,-0.0,0.0,1.0],"scale":[1.0,1.0,1.0],"mesh":0,"extras":{"aabb":[-1.1103742122650146,-0.014409484341740608,-0.3811397850513458,1.1103742122650146,2.3968188762664795,0.0016469854163005948]}}],"meshes":[{"name":"ab2024_walldeco01","primitives":[{"attributes":{"POSITION":0,"NORMAL":1,"TEXCOORD_0":2},"indices":3,"mode":4,"material":0},{"attributes":{"POSITION":0,"NORMAL":1,"TEXCOORD_0":2},"indices":4,"mode":4,"material":1}]}],"materials":[{"name":"ab2024_walldeco01_D","pbrMetallicRoughness":{"baseColorFactor":[0.6415094137191772,0.6415094137191772,0.6415094137191772,1.0],"metallicFactor":0.0,"roughnessFactor":0.9,"baseColorTexture":{"index":0}},"alphaMode":"MASK","alphaCutoff":0.5,"doubleSided":true},{"name":"ab2024_walldeco01_T","pbrMetallicRoughness":{"baseColorFactor":[0.7075471878051758,0.7075471878051758,0.7075471878051758,1.0],"metallicFactor":0.0,"roughnessFactor":0.9,"baseColorTexture":{"index":1}},"alphaMode":"MASK","alphaCutoff":0.5,"doubleSided":true}],"accessors":[{"bufferView":0,"componentType":5126,"count":498,"type":"VEC3","min":[-1.1103742122650146,-0.014409484341740608,-0.3811397850513458],"max":[1.1103742122650146,2.3968188762664795,0.0016469854163005948]},{"bufferView":1,"componentType":5126,"count":498,"type":"VEC3"},{"bufferView":2,"componentType":5126,"count":498,"type":"VEC2"},{"bufferView":3,"componentType":5125,"count":750,"type":"SCALAR"},{"bufferView":4,"componentType":5125,"count":6,"type":"SCALAR"}],"bufferViews":[{"buffer":0,"byteOffset":0,"byteLength":5976},{"buffer":0,"byteOffset":5976,"byteLength":5976},{"buffer":0,"byteOffset":11952,"byteLength":3984},{"buffer":0,"byteOffset":15936,"byteLength":3000},{"buffer":0,"byteOffset":18936,"byteLength":24}],"images":[{"uri":"ab2024_walldeco01_D.png"},{"uri":"ab2024_walldeco01_T.png"}],"textures":[{"source":0},{"source":1}],"buffers":[{"uri":"furn_ab2024_walldeco01.bin","byteLength":18960}]}