{"asset":{"version":"2.0","generator":"yuntu-dorm-m1"},"scenes":[{"nodes":[0]}],"nodes":[{"name":"do2022_table","translation":[0.0,0.0,-0.0],"rotation":[-0.0,-0.0,0.0,1.0],"scale":[1.0,1.0,1.0],"mesh":0,"extras":{"aabb":[-0.3564150929450989,-5.199963126756302e-08,-0.37577763199806213,0.3564150929450989,0.48740896582603455,0.37577754259109497]}}],"meshes":[{"name":"do2022_table","primitives":[{"attributes":{"POSITION":0,"NORMAL":1,"TEXCOORD_0":2},"indices":3,"mode":4,"material":0}]}],"materials":[{"name":"do2022_table_D","pbrMetallicRoughness":{"baseColorFactor":[0.589444637298584,0.6367873549461365,0.698113203048706,1.0],"metallicFactor":0.0,"roughnessFactor":0.9,"baseColorTexture":{"index":0}}}],"accessors":[{"bufferView":0,"componentType":5126,"count":351,"type":"VEC3","min":[-0.3564150929450989,-5.199963126756302e-08,-0.37577763199806213],"max":[0.3564150929450989,0.48740896582603455,0.37577754259109497]},{"bufferView":1,"componentType":5126,"count":351,"type":"VEC3"},{"bufferView":2,"componentType":5126,"count":351,"type":"VEC2"},{"bufferView":3,"componentType":5125,"count":1047,"type":"SCALAR"}],"bufferViews":[{"buffer":0,"byteOffset":0,"byteLength":4212},{"buffer":0,"byteOffset":4212,"byteLength":4212},{"buffer":0,"byteOffset":8424,"byteLength":2808},{"buffer":0,"byteOffset":11232,"byteLength":4188}],"images":[{"uri":"do2022_table_D.png"}],"textures":[{"source":0}],"buffers":[{"uri":"furn_do2022_table.bin","byteLength":15420}]}