{"asset":{"version":"2.0","generator":"yuntu-dorm-m1"},"scenes":[{"nodes":[0]}],"nodes":[{"name":"xn2018_chair_01","translation":[0.0,0.0,-0.0],"rotation":[-0.0,-0.0,0.0,1.0],"scale":[1.0,1.0,1.0],"mesh":0,"extras":{"aabb":[-0.18249239027500153,-9.598731594451237e-06,-0.12795358896255493,0.18922559916973114,0.5043995380401611,0.33427563309669495]}}],"meshes":[{"name":"xn2018_chair_001","primitives":[{"attributes":{"POSITION":0,"NORMAL":1,"TEXCOORD_0":2},"indices":3,"mode":4,"material":0}]}],"materials":[{"name":"xn2018_chair_001_D","pbrMetallicRoughness":{"baseColorFactor":[0.75,0.75,0.75,1.0],"metallicFactor":0.0,"roughnessFactor":0.9,"baseColorTexture":{"index":0}}}],"accessors":[{"bufferView":0,"componentType":5126,"count":741,"type":"VEC3","min":[-0.18249239027500153,-9.598731594451237e-06,-0.12795358896255493],"max":[0.18922559916973114,0.5043995380401611,0.33427563309669495]},{"bufferView":1,"componentType":5126,"count":741,"type":"VEC3"},{"bufferView":2,"componentType":5126,"count":741,"type":"VEC2"},{"bufferView":3,"componentType":5125,"count":3186,"type":"SCALAR"}],"bufferViews":[{"buffer":0,"byteOffset":0,"byteLength":8892},{"buffer":0,"byteOffset":8892,"byteLength":8892},{"buffer":0,"byteOffset":17784,"byteLength":5928},{"buffer":0,"byteOffset":23712,"byteLength":12744}],"images":[{"uri":"xn2018_chair_001_D.png"}],"textures":[{"source":0}],"buffers":[{"uri":"furn_xn2018_chair_01.bin","byteLength":36456}]}