{"asset":{"version":"2.0","generator":"yuntu-dorm-m1"},"scenes":[{"nodes":[0]}],"nodes":[{"name":"bamboo_shelf","translation":[0.0,0.0,-0.0],"rotation":[-0.0,-0.0,0.0,1.0],"scale":[1.0,1.0,1.0],"mesh":0,"extras":{"aabb":[-0.3963857889175415,-0.005123367067426443,-0.7828648686408997,0.3963857889175415,1.390147089958191,0.7828648686408997]}}],"meshes":[{"name":"bamboo_shelf","primitives":[{"attributes":{"POSITION":0,"NORMAL":1,"TEXCOORD_0":2},"indices":3,"mode":4,"material":0},{"attributes":{"POSITION":0,"NORMAL":1,"TEXCOORD_0":2},"indices":4,"mode":4,"material":1}]}],"materials":[{"name":"bamboo_shelf_T","pbrMetallicRoughness":{"baseColorFactor":[0.8773584961891174,0.7242345809936523,0.7258502244949341,1.0],"metallicFactor":0.0,"roughnessFactor":0.9,"baseColorTexture":{"index":0}}},{"name":"bamboo_shelf_D","pbrMetallicRoughness":{"baseColorFactor":[0.8962264060974121,0.8962264060974121,0.8962264060974121,1.0],"metallicFactor":0.0,"roughnessFactor":0.9,"baseColorTexture":{"index":0}}}],"accessors":[{"bufferView":0,"componentType":5126,"count":3496,"type":"VEC3","min":[-0.3963857889175415,-0.005123367067426443,-0.7828648686408997],"max":[0.3963857889175415,1.390147089958191,0.7828648686408997]},{"bufferView":1,"componentType":5126,"count":3496,"type":"VEC3"},{"bufferView":2,"componentType":5126,"count":3496,"type":"VEC2"},{"bufferView":3,"componentType":5125,"count":348,"type":"SCALAR"},{"bufferView":4,"componentType":5125,"count":10884,"type":"SCALAR"}],"bufferViews":[{"buffer":0,"byteOffset":0,"byteLength":41952},{"buffer":0,"byteOffset":41952,"byteLength":41952},{"buffer":0,"byteOffset":83904,"byteLength":27968},{"buffer":0,"byteOffset":111872,"byteLength":1392},{"buffer":0,"byteOffset":113264,"byteLength":43536}],"images":[{"uri":"bamboo_shelf_T.png"}],"textures":[{"source":0}],"buffers":[{"uri":"furn_bamboo_shelf.bin","byteLength":156800}]}