{"asset":{"version":"2.0","generator":"yuntu-dorm-m1"},"scenes":[{"nodes":[0]}],"nodes":[{"name":"we2021_sofa_001","translation":[0.0,0.0,-0.0],"rotation":[-0.0,-0.0,0.0,1.0],"scale":[1.0,1.0,1.0],"mesh":0,"extras":{"aabb":[-0.9240864515304565,0.00031557082547806203,-0.32124122977256775,0.924086332321167,0.5137802958488464,0.32124125957489014]}}],"meshes":[{"name":"we2021_sofa_001","primitives":[{"attributes":{"POSITION":0,"NORMAL":1,"TEXCOORD_0":2},"indices":3,"mode":4,"material":0}]}],"materials":[{"name":"we2021_sofa_001_D","pbrMetallicRoughness":{"baseColorFactor":[0.6990000009536743,0.6990000009536743,0.6990000009536743,1.0],"metallicFactor":0.0,"roughnessFactor":0.9,"baseColorTexture":{"index":0}}}],"accessors":[{"bufferView":0,"componentType":5126,"count":1126,"type":"VEC3","min":[-0.9240864515304565,0.00031557082547806203,-0.32124122977256775],"max":[0.924086332321167,0.5137802958488464,0.32124125957489014]},{"bufferView":1,"componentType":5126,"count":1126,"type":"VEC3"},{"bufferView":2,"componentType":5126,"count":1126,"type":"VEC2"},{"bufferView":3,"componentType":5125,"count":4572,"type":"SCALAR"}],"bufferViews":[{"buffer":0,"byteOffset":0,"byteLength":13512},{"buffer":0,"byteOffset":13512,"byteLength":13512},{"buffer":0,"byteOffset":27024,"byteLength":9008},{"buffer":0,"byteOffset":36032,"byteLength":18288}],"images":[{"uri":"we2021_sofa_001_D.png"}],"textures":[{"source":0}],"buffers":[{"uri":"furn_we2021_sofa_001.bin","byteLength":54320}]}