{"asset":{"version":"2.0","generator":"yuntu-dorm-m1"},"scenes":[{"nodes":[0]}],"nodes":[{"name":"sd2016_table_001","translation":[0.0,0.0,-0.0],"rotation":[-0.0,0.0,-0.0,1.0],"scale":[1.0,1.0,1.0],"mesh":0,"extras":{"aabb":[-0.503389298915863,-1.4105932770386836e-39,-0.5033891797065735,0.503389298915863,0.7853417992591858,0.5033891797065735]}}],"meshes":[{"name":"sd2016_table_001","primitives":[{"attributes":{"POSITION":0,"NORMAL":1,"TEXCOORD_0":2},"indices":3,"mode":4,"material":0},{"attributes":{"POSITION":0,"NORMAL":1,"TEXCOORD_0":2},"indices":4,"mode":4,"material":1}]}],"materials":[{"name":"sd2016_table_001_D","pbrMetallicRoughness":{"baseColorFactor":[0.75,0.75,0.75,1.0],"metallicFactor":0.0,"roughnessFactor":0.9,"baseColorTexture":{"index":0}},"alphaMode":"MASK","alphaCutoff":0.5,"doubleSided":true},{"name":"sd2016_table_001_T","pbrMetallicRoughness":{"baseColorFactor":[1.0,1.0,1.0,1.0],"metallicFactor":0.0,"roughnessFactor":0.9,"baseColorTexture":{"index":0}},"alphaMode":"BLEND","doubleSided":true}],"accessors":[{"bufferView":0,"componentType":5126,"count":2110,"type":"VEC3","min":[-0.503389298915863,-1.4105932770386836e-39,-0.5033891797065735],"max":[0.503389298915863,0.7853417992591858,0.5033891797065735]},{"bufferView":1,"componentType":5126,"count":2110,"type":"VEC3"},{"bufferView":2,"componentType":5126,"count":2110,"type":"VEC2"},{"bufferView":3,"componentType":5125,"count":7566,"type":"SCALAR"},{"bufferView":4,"componentType":5125,"count":132,"type":"SCALAR"}],"bufferViews":[{"buffer":0,"byteOffset":0,"byteLength":25320},{"buffer":0,"byteOffset":25320,"byteLength":25320},{"buffer":0,"byteOffset":50640,"byteLength":16880},{"buffer":0,"byteOffset":67520,"byteLength":30264},{"buffer":0,"byteOffset":97784,"byteLength":528}],"images":[{"uri":"sd2016_table_001_T.png"}],"textures":[{"source":0}],"buffers":[{"uri":"furn_sd2016_table_001.bin","byteLength":98312}]}