{"asset":{"version":"2.0","generator":"yuntu-dorm-m1"},"scenes":[{"nodes":[0]}],"nodes":[{"name":"ab2024_Wall","translation":[0.0,0.0,-0.0],"rotation":[-0.0,-0.0,0.0,1.0],"scale":[1.0,1.0,1.0],"children":[1,2,3,4]},{"name":"ab2024_Wall_1","translation":[0.0,0.0,-0.0],"rotation":[-0.0,-0.0,0.0,1.0],"scale":[1.0,1.0,1.0],"mesh":1,"extras":{"aabb":[-1.9999886751174927,0.0,1.8000104427337646,1.9999886751174927,2.3999998569488525,2.000011682510376]}},{"name":"ab2024_Wall_2","translation":[0.0,0.0,-0.0],"rotation":[-0.0,-0.7071067811865475,0.0,0.7071067811865475],"scale":[1.0,1.0,1.0],"mesh":3,"extras":{"aabb":[-1.9999886751174927,0.0,1.8000104427337646,1.9999886751174927,2.3999998569488525,2.000011682510376]}},{"name":"ab2024_Wall_3","translation":[0.0,0.0,-0.0],"rotation":[-0.0,-1.0,0.0,0.0],"scale":[1.0,1.0,1.0],"mesh":2,"extras":{"aabb":[-1.9999886751174927,0.0,1.8000104427337646,1.9999886751174927,2.3999998569488525,2.000011682510376]}},{"name":"ab2024_Wall_4","translation":[0.0,0.0,-0.0],"rotation":[-0.0,-0.7071067811865475,-0.0,-0.7071067811865475],"scale":[1.0,1.0,1.0],"mesh":0,"extras":{"aabb":[-1.9999886751174927,0.0,1.8000104427337646,1.9999886751174927,2.3999998569488525,2.000011682510376]}}],"meshes":[{"name":"ab2024_Wall","primitives":[{"attributes":{"POSITION":0,"NORMAL":1,"TEXCOORD_0":2},"indices":3,"mode":4,"material":0},{"attributes":{"POSITION":0,"NORMAL":1,"TEXCOORD_0":2},"indices":4,"mode":4,"material":1}]},{"name":"ab2024_Wall","primitives":[{"attributes":{"POSITION":5,"NORMAL":6,"TEXCOORD_0":7},"indices":8,"mode":4,"material":0},{"attributes":{"POSITION":5,"NORMAL":6,"TEXCOORD_0":7},"indices":9,"mode":4,"material":1}]},{"name":"ab2024_Wall","primitives":[{"attributes":{"POSITION":10,"NORMAL":11,"TEXCOORD_0":12},"indices":13,"mode":4,"material":0},{"attributes":{"POSITION":10,"NORMAL":11,"TEXCOORD_0":12},"indices":14,"mode":4,"material":1}]},{"name":"ab2024_Wall","primitives":[{"attributes":{"POSITION":15,"NORMAL":16,"TEXCOORD_0":17},"indices":18,"mode":4,"material":0},{"attributes":{"POSITION":15,"NORMAL":16,"TEXCOORD_0":17},"indices":19,"mode":4,"material":1}]}],"materials":[{"name":"ab2024_wall_b_D","pbrMetallicRoughness":{"baseColorFactor":[0.6226415038108826,0.6226415038108826,0.6226415038108826,1.0],"metallicFactor":0.0,"roughnessFactor":0.9,"baseColorTexture":{"index":0}},"alphaMode":"BLEND","doubleSided":true},{"name":"ab2024_wall_f_D","pbrMetallicRoughness":{"baseColorFactor":[0.5188679099082947,0.5188679099082947,0.5188679099082947,1.0],"metallicFactor":0.0,"roughnessFactor":0.9,"baseColorTexture":{"index":0}},"alphaMode":"MASK","alphaCutoff":0.5,"doubleSided":true}],"accessors":[{"bufferView":0,"componentType":5126,"count":24,"type":"VEC3","min":[-1.9999886751174927,0.0,1.8000104427337646],"max":[1.9999886751174927,2.3999998569488525,2.000011682510376]},{"bufferView":1,"componentType":5126,"count":24,"type":"VEC3"},{"bufferView":2,"componentType":5126,"count":24,"type":"VEC2"},{"bufferView":3,"componentType":5125,"count":30,"type":"SCALAR"},{"bufferView":4,"componentType":5125,"count":6,"type":"SCALAR"},{"bufferView":5,"componentType":5126,"count":24,"type":"VEC3","min":[-1.9999886751174927,0.0,1.8000104427337646],"max":[1.9999886751174927,2.3999998569488525,2.000011682510376]},{"bufferView":6,"componentType":5126,"count":24,"type":"VEC3"},{"bufferView":7,"componentType":5126,"count":24,"type":"VEC2"},{"bufferView":8,"componentType":5125,"count":30,"type":"SCALAR"},{"bufferView":9,"componentType":5125,"count":6,"type":"SCALAR"},{"bufferView":10,"componentType":5126,"count":24,"type":"VEC3","min":[-1.9999886751174927,0.0,1.8000104427337646],"max":[1.9999886751174927,2.3999998569488525,2.000011682510376]},{"bufferView":11,"componentType":5126,"count":24,"type":"VEC3"},{"bufferView":12,"componentType":5126,"count":24,"type":"VEC2"},{"bufferView":13,"componentType":5125,"count":30,"type":"SCALAR"},{"bufferView":14,"componentType":5125,"count":6,"type":"SCALAR"},{"bufferView":15,"componentType":5126,"count":24,"type":"VEC3","min":[-1.9999886751174927,0.0,1.8000104427337646],"max":[1.9999886751174927,2.3999998569488525,2.000011682510376]},{"bufferView":16,"componentType":5126,"count":24,"type":"VEC3"},{"bufferView":17,"componentType":5126,"count":24,"type":"VEC2"},{"bufferView":18,"componentType":5125,"count":30,"type":"SCALAR"},{"bufferView":19,"componentType":5125,"count":6,"type":"SCALAR"}],"bufferViews":[{"buffer":0,"byteOffset":0,"byteLength":288},{"buffer":0,"byteOffset":288,"byteLength":288},{"buffer":0,"byteOffset":576,"byteLength":192},{"buffer":0,"byteOffset":768,"byteLength":120},{"buffer":0,"byteOffset":888,"byteLength":24},{"buffer":0,"byteOffset":912,"byteLength":288},{"buffer":0,"byteOffset":1200,"byteLength":288},{"buffer":0,"byteOffset":1488,"byteLength":192},{"buffer":0,"byteOffset":1680,"byteLength":120},{"buffer":0,"byteOffset":1800,"byteLength":24},{"buffer":0,"byteOffset":1824,"byteLength":288},{"buffer":0,"byteOffset":2112,"byteLength":288},{"buffer":0,"byteOffset":2400,"byteLength":192},{"buffer":0,"byteOffset":2592,"byteLength":120},{"buffer":0,"byteOffset":2712,"byteLength":24},{"buffer":0,"byteOffset":2736,"byteLength":288},{"buffer":0,"byteOffset":3024,"byteLength":288},{"buffer":0,"byteOffset":3312,"byteLength":192},{"buffer":0,"byteOffset":3504,"byteLength":120},{"buffer":0,"byteOffset":3624,"byteLength":24}],"images":[{"uri":"ab2024_wall_D.png"}],"textures":[{"source":0}],"buffers":[{"uri":"room_ab2024_wall.bin","byteLength":3648}]}