{"asset":{"version":"2.0","generator":"yuntu-dorm-m1"},"scenes":[{"nodes":[0]}],"nodes":[{"name":"ab2024_floor","translation":[0.0,0.0,-0.0],"rotation":[-0.0,-0.0,0.0,1.0],"scale":[1.0,1.0,1.0],"mesh":0,"extras":{"aabb":[-2.0,-0.2000003159046173,-2.0,2.0,3.2584134146418364e-07,2.0]}}],"meshes":[{"name":"ab2024_floor","primitives":[{"attributes":{"POSITION":0,"NORMAL":1,"TEXCOORD_0":2},"indices":3,"mode":4,"material":0}]}],"materials":[{"name":"ab2024_floor_D","pbrMetallicRoughness":{"baseColorFactor":[0.5849056243896484,0.5821466445922852,0.5821466445922852,1.0],"metallicFactor":0.0,"roughnessFactor":0.9,"baseColorTexture":{"index":0}}}],"accessors":[{"bufferView":0,"componentType":5126,"count":49,"type":"VEC3","min":[-2.0,-0.2000003159046173,-2.0],"max":[2.0,3.2584134146418364e-07,2.0]},{"bufferView":1,"componentType":5126,"count":49,"type":"VEC3"},{"bufferView":2,"componentType":5126,"count":49,"type":"VEC2"},{"bufferView":3,"componentType":5125,"count":96,"type":"SCALAR"}],"bufferViews":[{"buffer":0,"byteOffset":0,"byteLength":588},{"buffer":0,"byteOffset":588,"byteLength":588},{"buffer":0,"byteOffset":1176,"byteLength":392},{"buffer":0,"byteOffset":1568,"byteLength":384}],"images":[{"uri":"ab2024_floor_D.png"}],"textures":[{"source":0}],"buffers":[{"uri":"room_ab2024_floor.bin","byteLength":1952}]}